{
.formatVersion = 3;
featurePrefixes = (
{
code = "table OS/2 {
    WeightClass 700;
} OS/2;";
name = WeightClassOverride;
},
);
date = "2011-12-17 23:48:40 +0000";
familyName = Asul;
fontMaster = (
{
customParameters = (
{
name = typoAscender;
value = 949;
},
{
name = typoDescender;
value = -264;
},
{
name = typoLineGap;
value = 0;
},
{
name = winAscent;
value = 949;
},
{
name = winDescent;
value = 264;
},
{
name = hheaAscender;
value = 949;
},
{
name = hheaDescender;
value = -264;
},
{
name = hheaLineGap;
value = 0;
}
);
id = "826dc620-19a3-4a75-b922-e71bdb8ea4ca";
metricValues = (
{
},
{
pos = -50;
},
{
pos = 50;
},
{
pos = 800;
},
{
pos = -200;
},
{
pos = 700;
},
{
pos = 650;
},
{
},
{
pos = 140;
},
{
pos = 700;
},
{
pos = 650;
},
{
},
{
pos = 477;
},
{
pos = 50;
},
{
pos = 250;
}
);
name = Bold;
visible = 1;
}
);
glyphs = (
{
category = Letter;
glyphname = exclam;
layers = (
{
layerId = "826dc620-19a3-4a75-b922-e71bdb8ea4ca";
name = Fore;
shapes = (
{
closed = 1;
nodes = (
(101,181,l),
(101,406,o),
(92,583,q),
(86,649,o),
(50,672,q),
(50,689,l),
(222,716,l),
(235,697,l),
(228,657,o),
(219,435,q),
(210,213,o),
(210,197,q)
);
},
{
closed = 1;
nodes = (
(106,102,l),
(162,120,o),
(216,120,q),
(227,114,l),
(236,106,o),
(239.5,80,q),
(243,54,o),
(243,40,q),
(243,26,o),
(241,15,q),
(232,7,l),
(183,-7,o),
(125,-11,q),
(125,-11,o),
(114,-6,q),
(106,8,o),
(101,35.5,q),
(96,63,o),
(96,75.5,q),
(96,88,o),
(97,94,q)
);
}
);
width = 306;
}
);
unicode = 33;
},
{
category = Letter;
glyphname = quotedbl;
layers = (
{
layerId = "826dc620-19a3-4a75-b922-e71bdb8ea4ca";
name = Fore;
shapes = (
{
closed = 1;
nodes = (
(228,675,o),
(228,642.5,q),
(228,610,o),
(216.5,530,q),
(205,450,o),
(194,422,q),
(132,422,l),
(126,436,o),
(116,492,q),
(99,590,o),
(99,631,q),
(99,672,o),
(107,686,q),
(123,698,l),
(142,704,o),
(165,704,q),
(188,704,o),
(206,698,q),
(220,687,l)
);
},
{
closed = 1;
nodes = (
(408,675,o),
(408,642.5,q),
(408,610,o),
(396.5,530,q),
(385,450,o),
(374,422,q),
(312,422,l),
(306,436,o),
(296,492,q),
(279,590,o),
(279,631,q),
(279,672,o),
(287,686,q),
(303,698,l),
(323,704,o),
(345.5,704,q),
(368,704,o),
(386,698,q),
(400,687,l)
);
}
);
width = 507;
}
);
unicode = 34;
},
{
category = Letter;
glyphname = numbersign;
layers = (
{
layerId = "826dc620-19a3-4a75-b922-e71bdb8ea4ca";
name = Fore;
shapes = (
{
closed = 1;
nodes = (
(430,199,l),
(426,171,o),
(425.5,162.5,q),
(425,154,o),
(406,-6,q),
(308,-6,l),
(306,8,l),
(320,55,o),
(347,199,q),
(216,199,l),
(211,159,o),
(211,156,q),
(191,-6,l),
(93,-6,l),
(91,8,l),
(105,55,o),
(132,199,q),
(2,199,l),
(24,292,l),
(149,292,l),
(166,389,l),
(37,389,l),
(62,482,l),
(181,482,l),
(210,688,l),
(303,706,l),
(306,692,l),
(297,662,o),
(290,632.5,q),
(283,603,o),
(262,482,q),
(396,482,l),
(425,688,l),
(518,706,l),
(520,692,l),
(502,637,o),
(476,482,q),
(592,482,l),
(573,389,l),
(461,389,l),
(445,292,l),
(556,292,l),
(536,199,l)
);
},
{
closed = 1;
nodes = (
(232,298,o),
(231,292,q),
(364,292,l),
(381,389,l),
(247,389,l)
);
}
);
width = 609;
}
);
unicode = 35;
},
{
category = Letter;
glyphname = dollar;
layers = (
{
layerId = "826dc620-19a3-4a75-b922-e71bdb8ea4ca";
name = Fore;
shapes = (
{
closed = 1;
nodes = (
(561,106,o),
(503,54,q),
(445,2,o),
(345,-9,q),
(345,-71,o),
(349,-115,q),
(269,-131,l),
(264,-117,l),
(270,-75,o),
(274,-12,q),
(151,-7,o),
(54,58,q),
(57,129,o),
(110,193,q),
(186,111,o),
(276,82,q),
(276,310,l),
(246,323,o),
(233,328.5,q),
(220,334,o),
(193,347.5,q),
(166,361,o),
(153,371,q),
(140,381,o),
(121,398.5,q),
(102,416,o),
(93,433,q),
(70,476,o),
(70,526,q),
(70,610,o),
(127.5,655.5,q),
(185,701,o),
(276,710,q),
(274,764,o),
(272,792,q),
(348,818,l),
(353,804,l),
(346,744,o),
(345,711,q),
(444,704,o),
(542,662,q),
(531,588,o),
(491,521,q),
(419,586,o),
(345,612,q),
(345,420,l),
(387,403,o),
(407.5,394,q),
(428,385,o),
(463,364,q),
(498,343,o),
(515.5,322.5,q),
(533,302,o),
(547,269,q),
(561,236,o),
(561,197,q)
);
},
{
closed = 1;
nodes = (
(429,233,o),
(345,278,q),
(345,72,l),
(382,72,o),
(410,87,q),
(429,112,o),
(429,165,q)
);
},
{
closed = 1;
nodes = (
(193,492,o),
(276,450,q),
(276,625,l),
(244,625,o),
(211,611,q),
(193,593,o),
(193,553,q)
);
}
);
width = 621;
}
);
unicode = 36;
},
{
category = Letter;
glyphname = percent;
layers = (
{
layerId = "826dc620-19a3-4a75-b922-e71bdb8ea4ca";
name = Fore;
shapes = (
{
closed = 1;
nodes = (
(689,720,l),
(688,714,l),
(646,654,o),
(543,481.5,q),
(440,309,o),
(394,226,q),
(267,-11,l),
(162,-19,l),
(163,-13,l),
(204,46,o),
(305.5,218,q),
(407,390,o),
(457,479,q),
(585,716,l)
);
},
{
closed = 1;
nodes = (
(487,97,o),
(487,191,q),
(487,285,o),
(535,340.5,q),
(583,396,o),
(659,396,q),
(735,396,o),
(773.5,340,q),
(812,284,o),
(812,194,q),
(812,104,o),
(768,43,q),
(724,-18,o),
(649,-18,q),
(574,-18,o),
(530.5,39.5,q)
);
},
{
closed = 1;
nodes = (
(718,330,o),
(644,330,q),
(615,330,o),
(602,315,q),
(581,277,o),
(581,208,q),
(581,45,o),
(662,45,q),
(685,45,o),
(696,62,q),
(718,90,o),
(718,180,q)
);
},
{
closed = 1;
nodes = (
(26,406,o),
(26,500,q),
(26,594,o),
(74,649.5,q),
(122,705,o),
(198,705,q),
(274,705,o),
(312.5,649,q),
(351,593,o),
(351,503,q),
(351,413,o),
(307,352,q),
(263,291,o),
(188,291,q),
(113,291,o),
(69.5,348.5,q)
);
},
{
closed = 1;
nodes = (
(257,639,o),
(183,639,q),
(154,639,o),
(141,624,q),
(120,586,o),
(120,517,q),
(120,354,o),
(201,354,q),
(224,354,o),
(235,371,q),
(257,399,o),
(257,489,q)
);
}
);
width = 851;
}
);
unicode = 37;
},
{
category = Letter;
glyphname = ampersand;
layers = (
{
layerId = "826dc620-19a3-4a75-b922-e71bdb8ea4ca";
name = Fore;
shapes = (
{
closed = 1;
nodes = (
(672,232,o),
(639,160,q),
(744,98,o),
(859,41,q),
(775,-67,l),
(680,0,o),
(579,75,q),
(490,-11,o),
(338,-11,q),
(186,-11,o),
(113,54,q),
(40,119,o),
(40,220,q),
(40,304,o),
(81,350.5,q),
(122,397,o),
(176,415,q),
(113,491,o),
(113,571,q),
(113,711,o),
(318,711,q),
(383,711,o),
(445.5,698.5,q),
(508,686,o),
(532,677,q),
(529,650,o),
(520,621,q),
(511,592,o),
(479,554,q),
(374,636,o),
(311,636,q),
(276,636,o),
(255,615,q),
(234,594,o),
(234,561,q),
(234,464,o),
(425,313,q),
(501,254,o),
(561,212,q),
(567,245,o),
(567,295,q),
(567,345,o),
(551,394,q),
(437,396,l),
(492,467,l),
(572,461,o),
(611,461,q),
(765,465,l),
(731,394,l),
(668,394,l),
(672,360,o),
(672,323,q)
);
},
{
closed = 1;
nodes = (
(179,317,o),
(179,244,q),
(179,171,o),
(227.5,119,q),
(276,67,o),
(359.5,67,q),
(443,67,o),
(502,107,q),
(507,110,o),
(516,119,q),
(388,214,o),
(338.5,254,q),
(289,294,o),
(226,359,q)
);
}
);
width = 855;
}
);
unicode = 38;
},
{
category = Letter;
glyphname = quotesingle;
layers = (
{
layerId = "826dc620-19a3-4a75-b922-e71bdb8ea4ca";
name = Fore;
shapes = (
{
closed = 1;
nodes = (
(224,675,o),
(224,642.5,q),
(224,610,o),
(212.5,530,q),
(201,450,o),
(190,422,q),
(128,422,l),
(122,436,o),
(112,492,q),
(95,590,o),
(95,631,q),
(95,672,o),
(103,686,q),
(119,698,l),
(139,704,o),
(161.5,704,q),
(184,704,o),
(202,698,q),
(216,687,l)
);
}
);
width = 318;
}
);
unicode = 39;
},
{
category = Letter;
glyphname = parenleft;
layers = (
{
layerId = "826dc620-19a3-4a75-b922-e71bdb8ea4ca";
name = Fore;
shapes = (
{
closed = 1;
nodes = (
(299,-80,o),
(417,-127,q),
(414,-147,o),
(394,-181,q),
(385,-184,l),
(252,-138,o),
(162.5,-19,q),
(73,100,o),
(73,276,q),
(73,549,o),
(250,684,q),
(313,732,o),
(385,757,q),
(394,754,l),
(412,720,o),
(417,699,q),
(288,649,o),
(238,531,q),
(195,429,o),
(195,267.5,q),
(195,106,o),
(247,13,q)
);
}
);
width = 449;
}
);
unicode = 40;
},
{
category = Letter;
glyphname = parenright;
layers = (
{
layerId = "826dc620-19a3-4a75-b922-e71bdb8ea4ca";
name = Fore;
shapes = (
{
closed = 1;
nodes = (
(376,549,o),
(376,276,q),
(376,100,o),
(286.5,-19,q),
(197,-138,o),
(64,-184,q),
(55,-181,l),
(35,-147,o),
(32,-127,q),
(150,-80,o),
(202,13,q),
(254,106,o),
(254,278,q),
(254,524,o),
(142,631,q),
(97,674,o),
(32,699,q),
(37,720,o),
(55,754,q),
(64,757,l),
(136,732,o),
(200,684,q)
);
}
);
width = 449;
}
);
unicode = 41;
},
{
category = Letter;
glyphname = asterisk;
layers = (
{
layerId = "826dc620-19a3-4a75-b922-e71bdb8ea4ca";
name = Fore;
shapes = (
{
closed = 1;
nodes = (
(237,394,o),
(213,449,q),
(191,401,o),
(177,340,q),
(162,321,l),
(63,388,l),
(73,409,l),
(126,438,o),
(163,478,q),
(105,469,o),
(59,443,q),
(38,447,l),
(37,567,l),
(60,568,l),
(111,552,o),
(162,545,q),
(100,602,o),
(74,614,q),
(66,636,l),
(150,696,l),
(170,678,l),
(185,621,o),
(213,571,q),
(244,625,o),
(256,678,q),
(276,696,l),
(360,636,l),
(352,614,l),
(324,600,o),
(264,545,q),
(315,552,o),
(366,568,q),
(389,567,l),
(388,447,l),
(366,443,l),
(324,468,o),
(263,478,q),
(306,433,o),
(353,409,q),
(363,388,l),
(264,321,l),
(249,340,l)
);
}
);
width = 426;
}
);
unicode = 42;
},
{
category = Letter;
glyphname = plus;
layers = (
{
layerId = "826dc620-19a3-4a75-b922-e71bdb8ea4ca";
name = Fore;
shapes = (
{
closed = 1;
nodes = (
(606,352,l),
(605,265,l),
(372,265,l),
(372,45,l),
(267,45,l),
(267,265,l),
(42,265,l),
(43,353,l),
(267,352,l),
(268,565,l),
(372,564,l),
(372,352,l)
);
}
);
width = 648;
}
);
unicode = 43;
},
{
category = Letter;
glyphname = comma;
layers = (
{
layerId = "826dc620-19a3-4a75-b922-e71bdb8ea4ca";
name = Fore;
shapes = (
{
closed = 1;
nodes = (
(222,72,o),
(222,36.5,q),
(222,1,o),
(213,-26.5,q),
(204,-54,o),
(182,-85,q),
(156,-124,o),
(106,-180,q),
(32,-155,l),
(63,-106,o),
(76,-70,q),
(89,-34,o),
(89,6,q),
(89,46,o),
(68,80,q),
(73,94,l),
(123,113,o),
(182,113,q),
(189,113,o),
(195,112,q),
(210,97,o),
(210,96,q)
);
}
);
width = 302;
}
);
unicode = 44;
},
{
category = Letter;
glyphname = hyphen;
layers = (
{
layerId = "826dc620-19a3-4a75-b922-e71bdb8ea4ca";
name = Fore;
shapes = (
{
closed = 1;
nodes = (
(93,316,o),
(140,316,q),
(222,317,l),
(244,317,o),
(290.5,319,q),
(337,321,o),
(361,321,q),
(323,222,l),
(309,222,l),
(241,231,o),
(135,231,q),
(1,225,l),
(39,325,l),
(53,325,l)
);
}
);
width = 362;
}
);
unicode = 45;
},
{
category = Letter;
glyphname = period;
layers = (
{
layerId = "826dc620-19a3-4a75-b922-e71bdb8ea4ca";
name = Fore;
shapes = (
{
closed = 1;
nodes = (
(262,125,o),
(266,95,q),
(270,65,o),
(270,48.5,q),
(270,32,o),
(268,20,q),
(258,11,l),
(213,-2,o),
(124,-10,q),
(112,-4,l),
(103,11,o),
(97.5,46,q),
(92,81,o),
(92,94.5,q),
(92,108,o),
(92,112,q),
(102,121,l),
(166,142,o),
(229,142,q),
(235,142,o),
(240,142,q),
(252,135,l)
);
}
);
width = 341;
}
);
unicode = 46;
},
{
category = Letter;
glyphname = slash;
layers = (
{
layerId = "826dc620-19a3-4a75-b922-e71bdb8ea4ca";
name = Fore;
shapes = (
{
closed = 1;
nodes = (
(406,734,l),
(406,712,l),
(365,635,o),
(275.5,414,q),
(186,193,o),
(153.5,107.5,q),
(121,22,o),
(85,-86,q),
(-46,-120,l),
(-46,-98,l),
(-14,-40,o),
(75.5,172,q),
(165,384,o),
(199,473,q),
(286,711,l)
);
}
);
width = 374;
}
);
unicode = 47;
},
{
category = Letter;
glyphname = zero;
layers = (
{
layerId = "826dc620-19a3-4a75-b922-e71bdb8ea4ca";
name = Fore;
shapes = (
{
closed = 1;
nodes = (
(70,190,o),
(70,355.5,q),
(70,521,o),
(158,617.5,q),
(246,714,o),
(387.5,714,q),
(529,714,o),
(600.5,616,q),
(672,518,o),
(672,359.5,q),
(672,201,o),
(591,95,q),
(510,-11,o),
(381,-11,q),
(231,-11,o),
(150.5,89.5,q)
);
},
{
closed = 1;
nodes = (
(528,265,o),
(528,332.5,q),
(528,400,o),
(520.5,450,q),
(513,500,o),
(495,542,q),
(458,629,o),
(361,629,q),
(333,629,o),
(305.5,621,q),
(278,613,o),
(266,602,q),
(244,573,o),
(229,508.5,q),
(214,444,o),
(214,389.5,q),
(214,335,o),
(219,292.5,q),
(224,250,o),
(236.5,208.5,q),
(249,167,o),
(269,138,q),
(314,73,o),
(395,73,q),
(412,73,o),
(437.5,81,q),
(463,89,o),
(475,103,q),
(500,128,o),
(514,196.5,q)
);
}
);
width = 742;
}
);
unicode = 48;
},
{
category = Letter;
glyphname = one;
layers = (
{
layerId = "826dc620-19a3-4a75-b922-e71bdb8ea4ca";
name = Fore;
shapes = (
{
closed = 1;
nodes = (
(299,82,o),
(315,22,q),
(315,0,l),
(149,0,l),
(149,22,l),
(165,82,o),
(165,220,q),
(165,506,l),
(165,574,o),
(162,591,q),
(103,579,o),
(31,576,q),
(20,633,l),
(131,652,o),
(203,700,q),
(304,700,l),
(299,582,l),
(299,220,l)
);
}
);
width = 423;
}
);
unicode = 49;
},
{
category = Letter;
glyphname = two;
layers = (
{
layerId = "826dc620-19a3-4a75-b922-e71bdb8ea4ca";
name = Fore;
shapes = (
{
closed = 1;
nodes = (
(366,637,o),
(284,637,q),
(223,637,o),
(101,542,q),
(52,595,o),
(45,661,q),
(182,712,o),
(288.5,712,q),
(395,712,o),
(452.5,668.5,q),
(510,625,o),
(510,550,q),
(510,445,o),
(402,311,q),
(348,245,o),
(303.5,198,q),
(259,151,o),
(192,85,q),
(255,85,o),
(279,86,q),
(459,92,o),
(522,141,q),
(549,122,l),
(502,0,l),
(63,0,l),
(39,57,l),
(96,113,o),
(131.5,149,q),
(167,185,o),
(216.5,243,q),
(266,301,o),
(294.5,345.5,q),
(323,390,o),
(344.5,443.5,q),
(366,497,o),
(366,543,q)
);
}
);
width = 590;
}
);
unicode = 50;
},
{
category = Letter;
glyphname = three;
layers = (
{
layerId = "826dc620-19a3-4a75-b922-e71bdb8ea4ca";
name = Fore;
shapes = (
{
closed = 1;
nodes = (
(375,-10,o),
(249.5,-10,q),
(124,-10,o),
(18,45,q),
(18,51,l),
(18,101,o),
(59,144,q),
(172,65,o),
(250,65,q),
(255,65,l),
(307,65,o),
(335,81,q),
(379,122,o),
(379,213,q),
(379,282,o),
(348.5,310.5,q),
(318,339,o),
(249,339,q),
(180,339,o),
(152,335,q),
(132,335,l),
(109,411,l),
(218,411,l),
(268,411,o),
(300,449.5,q),
(332,488,o),
(332,538,q),
(332,641,o),
(257,641,q),
(190,641,o),
(93,565,q),
(54,618,o),
(46,679,q),
(162,712,o),
(267,712,q),
(466,712,o),
(466,562,q),
(466,502,o),
(435.5,458.5,q),
(405,415,o),
(363,394,q),
(518,361,o),
(518,218,q),
(518,119,o),
(446.5,54.5,q)
);
}
);
width = 563;
}
);
unicode = 51;
},
{
category = Letter;
glyphname = four;
layers = (
{
layerId = "826dc620-19a3-4a75-b922-e71bdb8ea4ca";
name = Fore;
shapes = (
{
closed = 1;
nodes = (
(467,97,o),
(479,22,q),
(479,0,l),
(326,0,l),
(326,22,l),
(338,96,o),
(338,177,q),
(338,187,l),
(119,187,o),
(44,186,q),
(16,241,l),
(131,435,o),
(315,699,q),
(470,714,l),
(465,607,o),
(465,274,q),
(579,280,l),
(558,187,l),
(467,187,l)
);
},
{
closed = 1;
nodes = (
(341,389,o),
(341,464.5,q),
(341,540,o),
(341,586,q),
(199,382,o),
(133,269,q),
(242,269,o),
(340,272,q)
);
}
);
width = 632;
}
);
unicode = 52;
},
{
category = Letter;
glyphname = five;
layers = (
{
layerId = "826dc620-19a3-4a75-b922-e71bdb8ea4ca";
name = Fore;
shapes = (
{
closed = 1;
nodes = (
(414,332,o),
(244,343,q),
(111,352,l),
(86,379,l),
(103,506,o),
(141,698,q),
(495,703,l),
(520,557,l),
(501,557,l),
(469,585,o),
(409.5,601.5,q),
(350,618,o),
(282,618,q),
(230,618,l),
(209,554,o),
(190,430,q),
(302,425,o),
(344.5,419.5,q),
(387,414,o),
(428,400.5,q),
(469,387,o),
(494,366,q),
(553,318,o),
(553,221.5,q),
(553,125,o),
(476.5,57,q),
(400,-11,o),
(275,-11,q),
(150,-11,o),
(14,56,q),
(18,77,o),
(37,110.5,q),
(56,144,o),
(74,160,q),
(202,68,o),
(300,68,q),
(346,68,o),
(376,81,q),
(394,102,o),
(404,140.5,q),
(414,179,o),
(414,213,q)
);
}
);
width = 601;
}
);
unicode = 53;
},
{
category = Letter;
glyphname = six;
layers = (
{
layerId = "826dc620-19a3-4a75-b922-e71bdb8ea4ca";
name = Fore;
shapes = (
{
closed = 1;
nodes = (
(559,388,o),
(579,344.5,q),
(599,301,o),
(599,242,q),
(599,131,o),
(531,60.5,q),
(463,-10,o),
(338,-10,q),
(213,-10,o),
(141.5,61,q),
(70,132,o),
(70,281,q),
(70,490,o),
(226,609,q),
(280,649,o),
(353.5,677.5,q),
(427,706,o),
(491,714,q),
(504,657,l),
(369,616,o),
(303,546,q),
(255,494,o),
(231,412,q),
(298,455,o),
(380.5,455,q),
(463,455,o),
(526,411,q)
);
},
{
closed = 1;
nodes = (
(214,155,o),
(242.5,108.5,q),
(271,62,o),
(343,62,q),
(396,62,o),
(418,76,q),
(434,95,o),
(444.5,135,q),
(455,175,o),
(455,234.5,q),
(455,294,o),
(426,330.5,q),
(397,367,o),
(341.5,367,q),
(286,367,o),
(216,320,q),
(214,280,o),
(214,254,q)
);
}
);
width = 656;
}
);
unicode = 54;
},
{
category = Letter;
glyphname = seven;
layers = (
{
layerId = "826dc620-19a3-4a75-b922-e71bdb8ea4ca";
name = Fore;
shapes = (
{
closed = 1;
nodes = (
(508,701,l),
(511,689,l),
(491,655,o),
(367,342,q),
(285,135,o),
(262,-3,q),
(81,-3,l),
(77,19,l),
(178,187,o),
(257,352.5,q),
(336,518,o),
(375,614,q),
(303,617,o),
(272,617,q),
(130,617,o),
(67,559,q),
(50,559,l),
(21,704,l),
(161,700,o),
(251,700,q)
);
}
);
width = 504;
}
);
unicode = 55;
},
{
category = Letter;
glyphname = eight;
layers = (
{
layerId = "826dc620-19a3-4a75-b922-e71bdb8ea4ca";
name = Fore;
shapes = (
{
closed = 1;
nodes = (
(551,439,o),
(433,367,q),
(515,320,o),
(549.5,282.5,q),
(584,245,o),
(584,185,q),
(584,92,o),
(509,40.5,q),
(434,-11,o),
(319,-11,q),
(204,-11,o),
(128,39.5,q),
(52,90,o),
(52,183,q),
(52,310,o),
(202,365,q),
(146,400,o),
(120,438,q),
(94,476,o),
(94,530,q),
(94,618,o),
(156.5,665,q),
(219,712,o),
(321.5,712,q),
(424,712,o),
(487.5,671.5,q),
(551,631,o),
(551,544,q)
);
},
{
closed = 1;
nodes = (
(440,210,o),
(406,242,q),
(372,274,o),
(278,322,q),
(196,285,o),
(196,195,q),
(196,70,o),
(325,70,q),
(376,70,o),
(405,82,q),
(440,106,o),
(440,167,q)
);
},
{
closed = 1;
nodes = (
(225,508,o),
(252.5,478.5,q),
(280,449,o),
(360,409,q),
(420,453,o),
(420,538,q),
(420,647,o),
(318,647,q),
(281,647,o),
(255,635,q),
(225,609,o),
(225,547,q)
);
}
);
width = 636;
}
);
unicode = 56;
},
{
category = Letter;
glyphname = nine;
layers = (
{
layerId = "826dc620-19a3-4a75-b922-e71bdb8ea4ca";
name = Fore;
shapes = (
{
closed = 1;
nodes = (
(97,300,o),
(77.5,345,q),
(58,390,o),
(58,451,q),
(58,568,o),
(127,639.5,q),
(196,711,o),
(319.5,711,q),
(443,711,o),
(515,638,q),
(587,565,o),
(587,412,q),
(587,188,o),
(424,71,q),
(336,10,o),
(169,-12,q),
(152,45,l),
(210,55,o),
(264.5,81,q),
(319,107,o),
(358,148.5,q),
(397,190,o),
(420,264,q),
(348,231,o),
(271,231,q),
(194,231,o),
(130,276,q)
);
},
{
closed = 1;
nodes = (
(443,543,o),
(414.5,590,q),
(386,637,o),
(314,637,q),
(264,637,o),
(240,623,q),
(202,574,o),
(202,472,q),
(202,321,o),
(317,321,q),
(374,321,o),
(438,351,q),
(443,418,o),
(443,441,q)
);
}
);
width = 657;
}
);
unicode = 57;
},
{
category = Letter;
glyphname = colon;
layers = (
{
layerId = "826dc620-19a3-4a75-b922-e71bdb8ea4ca";
name = Fore;
shapes = (
{
closed = 1;
nodes = (
(239,442,o),
(239,391,q),
(239,378,o),
(237,367,q),
(228,359,l),
(173,344,o),
(120,341,q),
(109,346,l),
(92,376,o),
(92,425,q),
(92,431,o),
(92,436,q),
(101,444,l),
(158,462,o),
(207,462,q),
(212,462,o),
(223,456,q)
);
},
{
closed = 1;
nodes = (
(257,91,o),
(257,40,q),
(257,27,o),
(255,16,q),
(246,8,l),
(191,-7,o),
(138,-10,q),
(127,-5,l),
(110,25,o),
(110,74,q),
(110,80,o),
(110,85,q),
(119,93,l),
(176,111,o),
(225,111,q),
(230,111,o),
(241,105,q)
);
}
);
width = 343;
}
);
unicode = 58;
},
{
category = Letter;
glyphname = semicolon;
layers = (
{
layerId = "826dc620-19a3-4a75-b922-e71bdb8ea4ca";
name = Fore;
shapes = (
{
closed = 1;
nodes = (
(242,72,o),
(242,36.5,q),
(242,1,o),
(233,-26.5,q),
(224,-54,o),
(202,-85,q),
(176,-124,o),
(126,-180,q),
(52,-155,l),
(83,-106,o),
(96,-70,q),
(109,-34,o),
(109,6,q),
(109,46,o),
(88,80,q),
(93,94,l),
(143,113,o),
(202,113,q),
(209,113,o),
(215,112,q),
(230,97,o),
(230,96,q)
);
},
{
closed = 1;
nodes = (
(205,437,o),
(205,386,q),
(205,373,o),
(203,362,q),
(194,354,l),
(139,339,o),
(86,336,q),
(75,341,l),
(58,371,o),
(58,420,q),
(58,426,o),
(58,431,q),
(67,439,l),
(124,457,o),
(173,457,q),
(178,457,o),
(189,451,q)
);
}
);
width = 340;
}
);
unicode = 59;
},
{
category = Letter;
glyphname = less;
layers = (
{
layerId = "826dc620-19a3-4a75-b922-e71bdb8ea4ca";
name = Fore;
shapes = (
{
closed = 1;
nodes = (
(526,45,l),
(10,287,l),
(10,357,l),
(526,600,l),
(526,508,l),
(128,322,l),
(526,136,l)
);
}
);
width = 536;
}
);
unicode = 60;
},
{
category = Letter;
glyphname = equal;
layers = (
{
layerId = "826dc620-19a3-4a75-b922-e71bdb8ea4ca";
name = Fore;
shapes = (
{
closed = 1;
nodes = (
(524,327,l),
(10,327,l),
(11,415,l),
(525,414,l)
);
},
{
closed = 1;
nodes = (
(524,175,l),
(10,175,l),
(11,263,l),
(525,262,l)
);
}
);
width = 535;
}
);
unicode = 61;
},
{
category = Letter;
glyphname = greater;
layers = (
{
layerId = "826dc620-19a3-4a75-b922-e71bdb8ea4ca";
name = Fore;
shapes = (
{
closed = 1;
nodes = (
(9,136,l),
(407,322,l),
(9,508,l),
(9,600,l),
(525,357,l),
(525,287,l),
(9,45,l)
);
}
);
width = 534;
}
);
unicode = 62;
},
{
category = Letter;
glyphname = question;
layers = (
{
layerId = "826dc620-19a3-4a75-b922-e71bdb8ea4ca";
name = Fore;
shapes = (
{
closed = 1;
nodes = (
(313,621,o),
(229,621,q),
(167,621,o),
(81,555,q),
(45,607,o),
(45,669,q),
(45,676,o),
(45,682,q),
(135,713,o),
(234,713,q),
(333,713,o),
(390,671,q),
(447,629,o),
(447,544,q),
(447,489,o),
(422,440,q),
(397,391,o),
(358,357,q),
(296,304,o),
(240,276,q),
(240,270,l),
(240,251,o),
(252,210,q),
(252,192,l),
(216,185,o),
(186.5,185,q),
(157,185,o),
(125,191,q),
(125,210,l),
(135,256,o),
(135,273.5,q),
(135,291,o),
(135,294,q),
(155,308,l),
(313,418,o),
(313,531,q)
);
},
{
closed = 1;
nodes = (
(235,114,o),
(246,108,q),
(262,94,o),
(262,37,q),
(262,24,o),
(260,13,q),
(251,5,l),
(213,-6,o),
(153,-11,q),
(142,-6,l),
(134,8,o),
(129.5,35.5,q),
(125,63,o),
(125,74.5,q),
(125,86,o),
(125,90,q),
(134,98,l),
(186,114,o),
(230,114,q)
);
}
);
width = 484;
}
);
unicode = 63;
},
{
category = Letter;
glyphname = at;
layers = (
{
layerId = "826dc620-19a3-4a75-b922-e71bdb8ea4ca";
name = Fore;
shapes = (
{
closed = 1;
nodes = (
(253,-54,o),
(144,40.5,q),
(35,135,o),
(35,307,q),
(35,479,o),
(149,593.5,q),
(263,708,o),
(454,708,q),
(645,708,o),
(740,619.5,q),
(835,531,o),
(835,395,q),
(835,278,o),
(758.5,197.5,q),
(682,117,o),
(578,117,q),
(476,117,o),
(476,225,q),
(471,225,l),
(422,173,o),
(376,145,q),
(330,117,o),
(297,117,q),
(213,117,o),
(213,235,q),
(213,311,o),
(245,382,q),
(277,453,o),
(347.5,503.5,q),
(418,554,o),
(514,554,q),
(585,554,o),
(644,535,q),
(570,285,l),
(560,251,o),
(560,228,q),
(560,185,o),
(595,187,q),
(656,190,o),
(695,256,q),
(734,322,o),
(734,385,q),
(734,448,o),
(713.5,490.5,q),
(693,533,o),
(661.5,558.5,q),
(630,584,o),
(588,601,q),
(515,630,o),
(437.5,630,q),
(360,630,o),
(307,612,q),
(151,523,o),
(151,328,q),
(151,172,o),
(231,97.5,q),
(311,23,o),
(438,23,q),
(538,23,o),
(647,75,q),
(679,28,l),
(560,-54,o),
(421,-54,q)
);
},
{
closed = 1;
nodes = (
(510,485,o),
(478.5,485,q),
(447,485,o),
(416,475,q),
(369,417,o),
(346,331,q),
(333,283,o),
(333,245.5,q),
(333,208,o),
(346,208,q),
(367,208,o),
(450,286,q),
(483,318,o),
(490,350,q),
(528,478,l)
);
}
);
width = 872;
}
);
unicode = 64;
},
{
category = Letter;
glyphname = A;
layers = (
{
layerId = "826dc620-19a3-4a75-b922-e71bdb8ea4ca";
name = Fore;
shapes = (
{
closed = 1;
nodes = (
(361,237,o),
(294,237,q),
(227,237,o),
(186,236,q),
(153,122,o),
(147,95.5,q),
(141,69,o),
(141,22,q),
(141,0,l),
(-27,0,l),
(-27,22,l),
(25,58,o),
(102,288,q),
(179,518,o),
(203,592.5,q),
(227,667,o),
(231,700,q),
(385,715,l),
(385,677,o),
(451,497,q),
(574,161,o),
(622,84,q),
(645,45,o),
(674,22,q),
(674,0,l),
(462,0,l),
(462,22,l),
(462,64,o),
(399,236,q)
);
},
{
closed = 1;
nodes = (
(255,479,o),
(205,309,q),
(378,309,l),
(372,326,o),
(360,366,q),
(334,455,o),
(288,574,q)
);
}
);
width = 643;
}
);
unicode = 65;
},
{
category = Letter;
glyphname = B;
layers = (
{
layerId = "826dc620-19a3-4a75-b922-e71bdb8ea4ca";
name = Fore;
shapes = (
{
closed = 1;
nodes = (
(361,700,l),
(479,700,o),
(541,668,q),
(603,636,o),
(603,556,q),
(603,502,o),
(575.5,463,q),
(548,424,o),
(507,404,q),
(556,392,o),
(600,355,q),
(653,311,o),
(653,228.5,q),
(653,146,o),
(612,95,q),
(571,44,o),
(507.5,21,q),
(444,-2,o),
(348,-2,q),
(192,2,o),
(188,2,q),
(108,0,l),
(108,23,l),
(128,72,o),
(128,163,q),
(128,528,l),
(128,626,o),
(111,678,q),
(111,700,l),
(139,698,o),
(190,698,q)
);
},
{
closed = 1;
nodes = (
(270,357,l),
(270,118,o),
(273,70,q),
(313,64,o),
(334,64,q),
(410,64,o),
(456.5,105,q),
(503,146,o),
(503,215,q),
(503,357,o),
(305,357,q)
);
},
{
closed = 1;
nodes = (
(406,638,o),
(351.5,638,q),
(297,638,o),
(271,635,q),
(270,621,o),
(270,418,q),
(338,418,l),
(466,418,o),
(466,528,q),
(466,588,o),
(436,613,q)
);
}
);
width = 720;
}
);
unicode = 66;
},
{
category = Letter;
glyphname = C;
layers = (
{
layerId = "826dc620-19a3-4a75-b922-e71bdb8ea4ca";
name = Fore;
shapes = (
{
closed = 1;
nodes = (
(200,237,o),
(269.5,161,q),
(339,85,o),
(443,85,q),
(521,85,o),
(663,157,q),
(700,103,l),
(625,54,o),
(597.5,39,q),
(570,24,o),
(512.5,6,q),
(455,-12,o),
(398,-12,q),
(253,-12,o),
(151,85,q),
(49,182,o),
(49,345,q),
(49,508,o),
(166.5,610,q),
(284,712,o),
(458,712,q),
(575,712,o),
(684,660,q),
(671,597,o),
(627,537,q),
(558,588,o),
(502,607.5,q),
(446,627,o),
(399.5,627,q),
(353,627,o),
(319,622,q),
(267,586,o),
(233.5,524,q),
(200,462,o),
(200,375,q)
);
}
);
width = 728;
}
);
unicode = 67;
},
{
category = Letter;
glyphname = D;
layers = (
{
layerId = "826dc620-19a3-4a75-b922-e71bdb8ea4ca";
name = Fore;
shapes = (
{
closed = 1;
nodes = (
(385,701,l),
(583,701,o),
(679,620.5,q),
(775,540,o),
(775,373,q),
(775,270,o),
(738,188,q),
(701,106,o),
(630,59,q),
(542,0,o),
(389,0,q),
(370,0,l),
(186,1,l),
(108,1,l),
(108,23,l),
(125,87,o),
(125,221,q),
(125,479,l),
(125,614,o),
(108,678,q),
(108,700,l),
(152,698,o),
(186,698,q)
);
},
{
closed = 1;
nodes = (
(267,335,l),
(267,120,o),
(270,87,q),
(335,82,o),
(384,82,q),
(509,82,o),
(557,110,q),
(624,180,o),
(624,357,q),
(624,504,o),
(564.5,565.5,q),
(505,627,o),
(366,627,q),
(362,627,o),
(269,626,q),
(267,578,o),
(267,393,q)
);
}
);
width = 824;
}
);
unicode = 68;
},
{
category = Letter;
glyphname = E;
layers = (
{
layerId = "826dc620-19a3-4a75-b922-e71bdb8ea4ca";
name = Fore;
shapes = (
{
closed = 1;
nodes = (
(294,629,o),
(271,627,q),
(269,581,o),
(269,402,q),
(526,407,l),
(491,324,l),
(472,324,l),
(434,332,o),
(360.5,332,q),
(287,332,o),
(269,330,q),
(269,277,l),
(269,109,o),
(272,76,q),
(295,74,o),
(348.5,74,q),
(402,74,o),
(477,83,q),
(552,92,o),
(587,106,q),
(606,106,l),
(587,0,l),
(108,0,l),
(108,22,l),
(125,94,o),
(125,223,q),
(125,476,l),
(125,606,o),
(108,678,q),
(108,700,l),
(573,703,l),
(543,615,l),
(524,615,l),
(475,629,o),
(335,629,q)
);
}
);
width = 634;
}
);
unicode = 69;
},
{
category = Letter;
glyphname = F;
layers = (
{
layerId = "826dc620-19a3-4a75-b922-e71bdb8ea4ca";
name = Fore;
shapes = (
{
closed = 1;
nodes = (
(444,621,o),
(368.5,621,q),
(293,621,o),
(270,619,q),
(267,590,o),
(267,398,q),
(497,403,l),
(460,309,l),
(441,309,l),
(393,319,o),
(339,319,q),
(285,319,o),
(267,317,q),
(267,224,l),
(267,82,o),
(283,22,q),
(283,0,l),
(108,0,l),
(108,22,l),
(125,94,o),
(125,223,q),
(125,476,l),
(125,606,o),
(108,678,q),
(108,700,l),
(548,703,l),
(519,605,l),
(500,605,l)
);
}
);
width = 565;
}
);
unicode = 70;
},
{
category = Letter;
glyphname = G;
layers = (
{
layerId = "826dc620-19a3-4a75-b922-e71bdb8ea4ca";
name = Fore;
shapes = (
{
closed = 1;
nodes = (
(684,132,o),
(690,83,q),
(632,47,o),
(550.5,17.5,q),
(469,-12,o),
(392,-12,q),
(247,-12,o),
(148,85,q),
(49,182,o),
(49,336.5,q),
(49,491,o),
(157,601.5,q),
(265,712,o),
(426,712,q),
(569,712,o),
(691,624,q),
(648,577,o),
(565,530,q),
(534,572,o),
(480,601,q),
(426,630,o),
(370.5,630,q),
(315,630,o),
(293,624,q),
(200,544,o),
(200,367,q),
(200,222,o),
(253,148.5,q),
(306,75,o),
(427,75,q),
(488,75,o),
(536,91,q),
(550,164,o),
(550,261,q),
(417,261,l),
(468,341,l),
(564,334,o),
(631,334,q),
(698,334,o),
(742,336,q),
(707,264,l),
(684,264,l)
);
}
);
width = 765;
}
);
unicode = 71;
},
{
category = Letter;
glyphname = H;
layers = (
{
layerId = "826dc620-19a3-4a75-b922-e71bdb8ea4ca";
name = Fore;
shapes = (
{
closed = 1;
nodes = (
(707,223,l),
(707,79,o),
(722,22,q),
(722,0,l),
(550,0,l),
(550,22,l),
(556,45,o),
(560.5,114.5,q),
(565,184,o),
(565,220,q),
(565,315,l),
(453,317,o),
(387,317,q),
(321,317,o),
(265,316,q),
(265,220,l),
(265,185,o),
(269.5,115,q),
(274,45,o),
(279,22,q),
(279,0,l),
(108,0,l),
(108,22,l),
(123,79,o),
(123,223,q),
(123,477,l),
(123,621,o),
(108,678,q),
(108,700,l),
(279,700,l),
(279,678,l),
(274,655,o),
(269.5,585,q),
(265,515,o),
(265,479,q),
(265,403,l),
(565,403,l),
(565,479,l),
(565,516,o),
(560.5,585.5,q),
(556,655,o),
(550,678,q),
(550,700,l),
(722,700,l),
(722,678,l),
(707,621,o),
(707,477,q)
);
}
);
width = 830;
}
);
unicode = 72;
},
{
category = Letter;
glyphname = I;
layers = (
{
layerId = "826dc620-19a3-4a75-b922-e71bdb8ea4ca";
name = Fore;
shapes = (
{
closed = 1;
nodes = (
(266,230,l),
(266,82,o),
(282,22,q),
(282,0,l),
(108,0,l),
(108,22,l),
(124,82,o),
(124,230,q),
(124,479,l),
(124,618,o),
(108,678,q),
(108,700,l),
(282,700,l),
(282,678,l),
(275,655,o),
(270.5,581.5,q),
(266,508,o),
(266,469,q)
);
}
);
width = 390;
}
);
unicode = 73;
},
{
category = Letter;
glyphname = J;
layers = (
{
layerId = "826dc620-19a3-4a75-b922-e71bdb8ea4ca";
name = Fore;
shapes = (
{
closed = 1;
nodes = (
(140,479,l),
(140,626,o),
(122,678,q),
(122,700,l),
(298,700,l),
(298,678,l),
(291,655,o),
(286.5,581.5,q),
(282,508,o),
(282,469,q),
(282,161,l),
(282,63,o),
(268,20.5,q),
(254,-22,o),
(246.5,-44.5,q),
(239,-67,o),
(219.5,-91.5,q),
(200,-116,o),
(191,-128,q),
(182,-140,o),
(155,-162,q),
(128,-184,o),
(120,-190,q),
(40,-248,l),
(-13,-200,l),
(10,-184,o),
(43,-157,q),
(103,-106,o),
(121.5,-34,q),
(140,38,o),
(140,203,q)
);
}
);
width = 406;
}
);
unicode = 74;
},
{
category = Letter;
glyphname = K;
layers = (
{
layerId = "826dc620-19a3-4a75-b922-e71bdb8ea4ca";
name = Fore;
shapes = (
{
closed = 1;
nodes = (
(640,700,l),
(640,678,l),
(585,670,o),
(508,579,q),
(349,385,l),
(485,219,l),
(628,44,o),
(714,22,q),
(714,0,l),
(520,0,l),
(462,65,o),
(265,316,q),
(265,220,l),
(265,185,o),
(269.5,115,q),
(274,45,o),
(279,22,q),
(279,0,l),
(108,0,l),
(108,22,l),
(123,79,o),
(123,223,q),
(123,477,l),
(123,621,o),
(108,678,q),
(108,700,l),
(279,700,l),
(279,678,l),
(274,655,o),
(269.5,585,q),
(265,515,o),
(265,479,q),
(265,408,l),
(409,580,l),
(474,658,o),
(474,700,q)
);
}
);
width = 675;
}
);
unicode = 75;
},
{
category = Letter;
glyphname = L;
layers = (
{
layerId = "826dc620-19a3-4a75-b922-e71bdb8ea4ca";
name = Fore;
shapes = (
{
closed = 1;
nodes = (
(108,22,l),
(124,91,o),
(124,220,q),
(124,479,l),
(124,618,o),
(108,678,q),
(108,700,l),
(282,700,l),
(282,678,l),
(275,655,o),
(270.5,584,q),
(266,513,o),
(266,476,q),
(266,209,l),
(266,136,o),
(272,76,q),
(291,74,o),
(351,74,q),
(509,74,o),
(585,106,q),
(604,106,l),
(586,0,l),
(108,0,l)
);
}
);
width = 584;
}
);
unicode = 76;
},
{
category = Letter;
glyphname = M;
layers = (
{
layerId = "826dc620-19a3-4a75-b922-e71bdb8ea4ca";
name = Fore;
shapes = (
{
closed = 1;
nodes = (
(113,249,o),
(113,550,q),
(113,630,o),
(109,679,q),
(109,701,l),
(274,714,l),
(284,666,o),
(316.5,565,q),
(349,464,o),
(473,146,q),
(555,373,o),
(598,514,q),
(641,655,o),
(649,699,q),
(820,717,l),
(820,695,l),
(819,674,o),
(819,610.5,q),
(819,547,o),
(830.5,378.5,q),
(842,210,o),
(869,22,q),
(869,0,l),
(704,0,l),
(704,22,l),
(707,81,o),
(707,155,q),
(707,341,o),
(689,505,q),
(566,161,o),
(520,2,q),
(399,-10,l),
(399,37,o),
(220,510,q),
(209,334,o),
(209,217.5,q),
(209,101,o),
(212,22,q),
(212,0,l),
(75,0,l),
(75,22,l)
);
}
);
width = 938;
}
);
unicode = 77;
},
{
category = Letter;
glyphname = N;
layers = (
{
layerId = "826dc620-19a3-4a75-b922-e71bdb8ea4ca";
name = Fore;
shapes = (
{
closed = 1;
nodes = (
(72,0,l),
(72,22,l),
(88,82,o),
(88,249,q),
(88,452,l),
(88,601,o),
(75,677,q),
(75,699,l),
(233,710,l),
(585,216,l),
(585,479,l),
(585,530,o),
(578,591.5,q),
(571,653,o),
(562,678,q),
(562,700,l),
(703,700,l),
(703,678,l),
(697,653,o),
(692,580.5,q),
(687,508,o),
(687,451,q),
(687,213,l),
(687,155,o),
(693,86,q),
(699,17,o),
(703,2,q),
(572,-11,l),
(190,524,l),
(190,220,l),
(190,94,o),
(209,22,q),
(209,0,l)
);
}
);
width = 784;
}
);
unicode = 78;
},
{
category = Letter;
glyphname = O;
layers = (
{
layerId = "826dc620-19a3-4a75-b922-e71bdb8ea4ca";
name = Fore;
shapes = (
{
closed = 1;
nodes = (
(49,190,o),
(49,344.5,q),
(49,499,o),
(156,606.5,q),
(263,714,o),
(429,714,q),
(595,714,o),
(685,614,q),
(775,514,o),
(775,368,q),
(775,203,o),
(667.5,95.5,q),
(560,-12,o),
(400,-12,q),
(240,-12,o),
(144.5,89,q)
);
},
{
closed = 1;
nodes = (
(624,424,o),
(604.5,486,q),
(585,548,o),
(533,589.5,q),
(481,631,o),
(399,631,q),
(362,631,o),
(324,622.5,q),
(286,614,o),
(269,604,q),
(239,573,o),
(219.5,509,q),
(200,445,o),
(200,374.5,q),
(200,304,o),
(212.5,253.5,q),
(225,203,o),
(251.5,160.5,q),
(278,118,o),
(325,93.5,q),
(372,69,o),
(438.5,69,q),
(505,69,o),
(555,97,q),
(624,163,o),
(624,341,q)
);
}
);
width = 824;
}
);
unicode = 79;
},
{
category = Letter;
glyphname = P;
layers = (
{
layerId = "826dc620-19a3-4a75-b922-e71bdb8ea4ca";
name = Fore;
shapes = (
{
closed = 1;
nodes = (
(357,700,l),
(498,700,o),
(571.5,656,q),
(645,612,o),
(645,503.5,q),
(645,395,o),
(559,333.5,q),
(473,272,o),
(341,272,q),
(305,272,o),
(270,279,q),
(270,148,l),
(270,74,o),
(290,22,q),
(290,0,l),
(108,0,l),
(108,22,l),
(128,79,o),
(128,162,q),
(128,521,l),
(128,621,o),
(111,678,q),
(111,700,l),
(179,698,o),
(190,698,q)
);
},
{
closed = 1;
nodes = (
(429,635,o),
(356.5,635,q),
(284,635,o),
(272,634,q),
(270,604,o),
(270,468,q),
(270,340,l),
(302,331,o),
(340,331,q),
(416,331,o),
(455.5,374,q),
(495,417,o),
(495,493,q),
(495,569,o),
(462,602,q)
);
}
);
width = 683;
}
);
unicode = 80;
},
{
category = Letter;
glyphname = Q;
layers = (
{
layerId = "826dc620-19a3-4a75-b922-e71bdb8ea4ca";
name = Fore;
shapes = (
{
closed = 1;
nodes = (
(49,189,o),
(49,344.5,q),
(49,500,o),
(157,607,q),
(265,714,o),
(429,714,q),
(593,714,o),
(683.5,616,q),
(774,518,o),
(774,365,q),
(774,181,o),
(637,68,q),
(720,-4,o),
(798,-41,q),
(799,-49,l),
(654,-96,l),
(594,-27,o),
(549,17,q),
(482,-12,o),
(399,-12,q),
(240,-12,o),
(144.5,88.5,q)
);
},
{
closed = 1;
nodes = (
(465,631,o),
(393.5,631,q),
(322,631,o),
(268,604,q),
(238,571,o),
(219,506.5,q),
(200,442,o),
(200,375,q),
(200,308,o),
(211,258,q),
(222,208,o),
(247.5,163,q),
(273,118,o),
(321.5,92,q),
(370,66,o),
(437,66,q),
(466,66,o),
(490,72,q),
(464,96,o),
(385,163,q),
(385,169,l),
(486,207,l),
(529,158,o),
(574,121,q),
(624,205,o),
(624,333,q),
(624,547,o),
(510,607,q)
);
}
);
width = 827;
}
);
unicode = 81;
},
{
category = Letter;
glyphname = R;
layers = (
{
layerId = "826dc620-19a3-4a75-b922-e71bdb8ea4ca";
name = Fore;
shapes = (
{
closed = 1;
nodes = (
(352,700,l),
(481,700,o),
(551.5,661,q),
(622,622,o),
(622,529.5,q),
(622,437,o),
(565,381,q),
(508,325,o),
(413,316,q),
(527,183,l),
(600,98,o),
(639.5,66,q),
(679,34,o),
(711,24,q),
(711,0,l),
(536,0,l),
(522,21,o),
(467,91,q),
(287,310,l),
(275,310,o),
(270,311,q),
(270,172,l),
(270,74,o),
(286,22,q),
(286,0,l),
(108,0,l),
(108,22,l),
(128,74,o),
(128,162,q),
(128,521,l),
(128,621,o),
(111,678,q),
(111,700,l),
(139,698,o),
(209,698,q)
);
},
{
closed = 1;
nodes = (
(413,635,o),
(348.5,635,q),
(284,635,o),
(272,634,q),
(270,604,o),
(270,374,q),
(293,371,o),
(327,371,q),
(407,371,o),
(440.5,406.5,q),
(474,442,o),
(474,512,q),
(474,582,o),
(443.5,608.5,q)
);
}
);
width = 707;
}
);
unicode = 82;
},
{
category = Letter;
glyphname = S;
layers = (
{
layerId = "826dc620-19a3-4a75-b922-e71bdb8ea4ca";
name = Fore;
shapes = (
{
closed = 1;
nodes = (
(305,445,o),
(329.5,434,q),
(354,423,o),
(361,419.5,q),
(368,416,o),
(394.5,404,q),
(421,392,o),
(428,388.5,q),
(435,385,o),
(459,371,q),
(483,357,o),
(492,348,q),
(501,339,o),
(518,321.5,q),
(535,304,o),
(542,288,q),
(561,243,o),
(561,197,q),
(561,94,o),
(487.5,41,q),
(414,-12,o),
(286.5,-12,q),
(159,-12,o),
(54,58,q),
(57,130,o),
(109,193,q),
(157,140,o),
(217,106,q),
(277,72,o),
(326.5,72,q),
(376,72,o),
(414,94,q),
(433,119,o),
(433,172,q),
(433,212,o),
(410,236,q),
(396,249,o),
(386.5,257.5,q),
(377,266,o),
(353,278,q),
(329,291,o),
(255.5,323.5,q),
(182,356,o),
(153,375,q),
(70,431,o),
(70,525.5,q),
(70,620,o),
(141.5,666,q),
(213,712,o),
(319,712,q),
(425,712,o),
(542,662,q),
(530,593,o),
(491,528,q),
(440,575,o),
(383,604.5,q),
(326,634,o),
(280,634,q),
(234,634,o),
(207,619,q),
(191,600,o),
(191,560,q),
(191,520,o),
(217,497,q),
(243,474,o),
(274,459.5,q)
);
}
);
width = 623;
}
);
unicode = 83;
},
{
category = Letter;
glyphname = T;
layers = (
{
layerId = "826dc620-19a3-4a75-b922-e71bdb8ea4ca";
name = Fore;
shapes = (
{
closed = 1;
nodes = (
(-10,646,o),
(-15,703,q),
(180,700,o),
(277,700,q),
(374,700,o),
(569,703,q),
(564,646,o),
(564,601,q),
(545,601,l),
(432,627,o),
(351,630,q),
(347,580,o),
(347,480,q),
(347,218,l),
(347,82,o),
(363,22,q),
(363,0,l),
(191,0,l),
(191,22,l),
(205,82,o),
(205,215,q),
(205,476,l),
(205,579,o),
(201,630,q),
(126,627,o),
(9,601,q),
(-10,601,l)
);
}
);
width = 554;
}
);
unicode = 84;
},
{
category = Letter;
glyphname = U;
layers = (
{
layerId = "826dc620-19a3-4a75-b922-e71bdb8ea4ca";
name = Fore;
shapes = (
{
closed = 1;
nodes = (
(676,312,l),
(676,130,o),
(609.5,59.5,q),
(543,-11,o),
(386,-11,q),
(229,-11,o),
(159,57.5,q),
(89,126,o),
(89,277,q),
(89,475,l),
(89,624,o),
(73,678,q),
(73,700,l),
(245,700,l),
(245,678,l),
(231,588,o),
(231,445,q),
(231,322,l),
(231,221,o),
(243.5,178,q),
(256,135,o),
(274,116,q),
(315,71,o),
(399.5,71,q),
(484,71,o),
(525,97,q),
(551,136,o),
(558,204,q),
(565,272,o),
(565,434.5,q),
(565,597,o),
(549,678,q),
(549,700,l),
(692,700,l),
(692,679,l),
(685,656,o),
(680.5,591.5,q),
(676,527,o),
(676,491,q)
);
}
);
width = 769;
}
);
unicode = 85;
},
{
category = Letter;
glyphname = V;
layers = (
{
layerId = "826dc620-19a3-4a75-b922-e71bdb8ea4ca";
name = Fore;
shapes = (
{
closed = 1;
nodes = (
(702,700,l),
(702,678,l),
(647,634,o),
(559,396,q),
(440,52,o),
(424,1,q),
(280,-14,l),
(279,38,o),
(101,486,q),
(36,650,o),
(-5,678,q),
(-5,700,l),
(199,700,l),
(199,678,l),
(199,626,o),
(242,497,q),
(373,123,l),
(491,485,l),
(526,590,o),
(530,678,q),
(530,700,l)
);
}
);
width = 695;
}
);
unicode = 86;
},
{
category = Letter;
glyphname = W;
layers = (
{
layerId = "826dc620-19a3-4a75-b922-e71bdb8ea4ca";
name = Fore;
shapes = (
{
closed = 1;
nodes = (
(863,700,l),
(1029,700,l),
(1029,678,l),
(982,612,o),
(915,397.5,q),
(848,183,o),
(799,0,q),
(647,-14,l),
(633,85,o),
(536,411,q),
(507,509,l),
(487,449,o),
(471.5,398,q),
(456,347,o),
(364,0,q),
(211,-14,l),
(208,70,o),
(75,487,q),
(44,584,o),
(28,622,q),
(12,660,o),
(-4,678,q),
(-4,700,l),
(180,700,l),
(180,672,l),
(180,604,o),
(211,504,q),
(314,137,l),
(440,555,o),
(444,700,q),
(597,700,l),
(603,651,o),
(626,555.5,q),
(649,460,o),
(747,137,q),
(753,158,o),
(775.5,233.5,q),
(798,309,o),
(810,352,q),
(847,488,o),
(855,560,q),
(863,632,o),
(863,678,q)
);
}
);
width = 1021;
}
);
unicode = 87;
},
{
category = Letter;
glyphname = X;
layers = (
{
layerId = "826dc620-19a3-4a75-b922-e71bdb8ea4ca";
name = Fore;
shapes = (
{
closed = 1;
nodes = (
(167,75,o),
(167,-1,q),
(-14,0,l),
(-14,22,l),
(47,55,o),
(116,152,q),
(221,301,o),
(258,356,q),
(176,481,l),
(64,653,o),
(6,678,q),
(6,700,l),
(232,699,l),
(232,677,l),
(232,643,o),
(254,599,q),
(279,549,o),
(344,453,q),
(466,626,o),
(466,700,q),
(642,700,l),
(642,678,l),
(611,662,o),
(584.5,634,q),
(558,606,o),
(497,523.5,q),
(436,441,o),
(399,384,q),
(570,133,o),
(609.5,85.5,q),
(649,38,o),
(679,22,q),
(679,0,l),
(455,0,l),
(455,22,l),
(455,38,o),
(443.5,61,q),
(432,84,o),
(424.5,98.5,q),
(417,113,o),
(411,123,q),
(405,133,o),
(395,149.5,q),
(385,166,o),
(380,175,q),
(315,284,l)
);
}
);
width = 670;
}
);
unicode = 88;
},
{
category = Letter;
glyphname = Y;
layers = (
{
layerId = "826dc620-19a3-4a75-b922-e71bdb8ea4ca";
name = Fore;
shapes = (
{
closed = 1;
nodes = (
(355,184,o),
(359.5,114.5,q),
(364,45,o),
(370,22,q),
(370,0,l),
(208,0,l),
(208,22,l),
(223,79,o),
(223,194,q),
(223,294,l),
(125,476,l),
(86,547,o),
(45,608,q),
(4,669,o),
(-15,678,q),
(-15,700,l),
(170,700,l),
(170,678,l),
(170,638,o),
(207,563,q),
(244,488,o),
(304,380,q),
(388,550,o),
(407,600.5,q),
(426,651,o),
(426,678,q),
(426,700,l),
(571,700,l),
(571,678,l),
(535,653,o),
(483,556,q),
(454,502,o),
(355,292,q),
(355,220,l)
);
}
);
width = 562;
}
);
unicode = 89;
},
{
category = Letter;
glyphname = Z;
layers = (
{
layerId = "826dc620-19a3-4a75-b922-e71bdb8ea4ca";
name = Fore;
shapes = (
{
closed = 1;
nodes = (
(192,74,o),
(279.5,74,q),
(367,74,o),
(451,83,q),
(535,92,o),
(571,106,q),
(590,106,l),
(567,0,l),
(31,0,l),
(-4,58,l),
(415,626,l),
(391,627,o),
(310,627,q),
(154,627,o),
(51,589,q),
(32,589,l),
(53,698,l),
(538,705,l),
(578,639,l),
(163,76,l)
);
}
);
width = 585;
}
);
unicode = 90;
},
{
category = Letter;
glyphname = bracketleft;
layers = (
{
layerId = "826dc620-19a3-4a75-b922-e71bdb8ea4ca";
name = Fore;
shapes = (
{
closed = 1;
nodes = (
(296,-114,o),
(347,-95,q),
(366,-95,l),
(410,-178,l),
(95,-174,l),
(95,757,l),
(410,760,l),
(366,678,l),
(347,678,l),
(302,695,o),
(230,695,q),
(215,695,l),
(215,-34,l),
(215,-85,o),
(217,-114,q),
(228,-114,l)
);
}
);
width = 485;
}
);
unicode = 91;
},
{
category = Letter;
glyphname = backslash;
layers = (
{
layerId = "826dc620-19a3-4a75-b922-e71bdb8ea4ca";
name = Fore;
shapes = (
{
closed = 1;
nodes = (
(286,-189,l),
(271,-174,l),
(245,-91,o),
(150.5,130,q),
(56,351,o),
(21,427.5,q),
(-14,504,o),
(-72,617,q),
(-2,731,l),
(14,715,l),
(33,652,o),
(120.5,439.5,q),
(208,227,o),
(248,138,q),
(356,-92,l)
);
}
);
width = 277;
}
);
unicode = 92;
},
{
category = Letter;
glyphname = bracketright;
layers = (
{
layerId = "826dc620-19a3-4a75-b922-e71bdb8ea4ca";
name = Fore;
shapes = (
{
closed = 1;
nodes = (
(288,-114,l),
(290,-85,o),
(290,-34,q),
(290,695,l),
(275,695,l),
(203,695,o),
(158,678,q),
(139,678,l),
(95,760,l),
(410,757,l),
(410,-174,l),
(95,-178,l),
(139,-95,l),
(158,-95,l),
(209,-114,o),
(277,-114,q)
);
}
);
width = 485;
}
);
unicode = 93;
},
{
category = Letter;
glyphname = asciicircum;
layers = (
{
layerId = "826dc620-19a3-4a75-b922-e71bdb8ea4ca";
name = Fore;
shapes = (
{
closed = 1;
nodes = (
(364,682,l),
(516,379,l),
(414,379,l),
(318,578,l),
(217,379,l),
(118,379,l),
(276,682,l)
);
}
);
width = 634;
}
);
unicode = 94;
},
{
category = Letter;
glyphname = underscore;
layers = (
{
layerId = "826dc620-19a3-4a75-b922-e71bdb8ea4ca";
name = Fore;
shapes = (
{
closed = 1;
nodes = (
(24,-135,l),
(24,-44,l),
(601,-44,l),
(601,-135,l)
);
}
);
width = 625;
}
);
unicode = 95;
},
{
category = Letter;
glyphname = grave;
layers = (
{
layerId = "826dc620-19a3-4a75-b922-e71bdb8ea4ca";
name = Fore;
shapes = (
{
closed = 1;
nodes = (
(354,505,l),
(241,561,o),
(132,657,q),
(169,710,o),
(232,732,q),
(292,629,o),
(391,544,q)
);
}
);
width = 523;
}
);
unicode = 96;
},
{
category = Letter;
glyphname = a;
layers = (
{
layerId = "826dc620-19a3-4a75-b922-e71bdb8ea4ca";
name = Fore;
shapes = (
{
closed = 1;
nodes = (
(302,213,o),
(258.5,213,q),
(215,213,o),
(192,197,q),
(177,178,o),
(177,147,q),
(177,69,o),
(245,69,q),
(301,69,o),
(338,115,q),
(338,200,l)
);
},
{
closed = 1;
nodes = (
(141,-18,o),
(93,20,q),
(45,58,o),
(45,130,q),
(45,269,o),
(248,269,q),
(337,265,l),
(337,326,l),
(337,378,o),
(311,410,q),
(285,442,o),
(231,442,q),
(219,442,o),
(200,429.5,q),
(181,417,o),
(168,404,q),
(127,365,o),
(102,340,q),
(52,399,o),
(48,459,q),
(176,499,o),
(264,499,q),
(352,499,o),
(411,458,q),
(470,417,o),
(470,329,q),
(470,172,l),
(470,127,o),
(485,86,q),
(500,45,o),
(522,31,q),
(524,9,l),
(381,-21,l),
(365,9,o),
(351,63,q),
(325,35,o),
(309,21.5,q),
(293,8,o),
(264.5,-5,q),
(236,-18,o),
(204,-18,q)
);
}
);
width = 552;
}
);
unicode = 97;
},
{
category = Letter;
glyphname = b;
layers = (
{
layerId = "826dc620-19a3-4a75-b922-e71bdb8ea4ca";
name = Fore;
shapes = (
{
closed = 1;
nodes = (
(294,56,o),
(339,56,q),
(384,56,o),
(397,66,q),
(412,85,o),
(425,142.5,q),
(438,200,o),
(438,256,q),
(438,425,o),
(356,425,q),
(303,425,o),
(223,378,q),
(223,81,l)
);
},
{
closed = 1;
nodes = (
(223,447,l),
(290,499,o),
(361,499,q),
(464,499,o),
(523,431.5,q),
(582,364,o),
(582,266,q),
(582,145,o),
(494,63,q),
(406,-19,o),
(285,-19,q),
(207,-19,o),
(83,28,q),
(83,50,l),
(94,78,o),
(94,182,q),
(94,570,l),
(94,646,o),
(49,689,q),
(49,711,l),
(220,746,l),
(228,724,l),
(223,697,o),
(223,642,q)
);
}
);
width = 626;
}
);
unicode = 98;
},
{
category = Letter;
glyphname = c;
layers = (
{
layerId = "826dc620-19a3-4a75-b922-e71bdb8ea4ca";
name = Fore;
shapes = (
{
closed = 1;
nodes = (
(188,71,o),
(290,71,q),
(362,71,o),
(479,132,q),
(505,91,l),
(465,54,o),
(399.5,18,q),
(334,-18,o),
(288,-18,q),
(175,-18,o),
(109.5,51.5,q),
(44,121,o),
(44,234.5,q),
(44,348,o),
(127,423.5,q),
(210,499,o),
(317,499,q),
(424,499,o),
(501,448,q),
(467,391,o),
(437,359,q),
(356,421,o),
(282,421,q),
(263,421,o),
(248,418,q),
(222,394,o),
(205,348,q),
(188,302,o),
(188,246,q)
);
}
);
width = 542;
}
);
unicode = 99;
},
{
category = Letter;
glyphname = d;
layers = (
{
layerId = "826dc620-19a3-4a75-b922-e71bdb8ea4ca";
name = Fore;
shapes = (
{
closed = 1;
nodes = (
(171,-19,o),
(110,54,q),
(49,127,o),
(49,236.5,q),
(49,346,o),
(126.5,422.5,q),
(204,499,o),
(323,499,q),
(367,499,o),
(408,492,q),
(408,582,l),
(408,648,o),
(363,689,q),
(363,711,l),
(530,746,l),
(540,724,l),
(537,705,o),
(537,648,q),
(537,181,l),
(537,135,o),
(550.5,95,q),
(564,55,o),
(586,40,q),
(588,18,l),
(438,-21,l),
(427,10,o),
(418,47,q),
(352,-19,o),
(289,-19,q)
);
},
{
closed = 1;
nodes = (
(193,174,o),
(220,117.5,q),
(247,61,o),
(298,61,q),
(349,61,o),
(408,108,q),
(408,388,l),
(349,426,o),
(279,426,q),
(249,426,o),
(232,413,q),
(193,365,o),
(193,250,q)
);
}
);
width = 622;
}
);
unicode = 100;
},
{
category = Letter;
glyphname = e;
layers = (
{
layerId = "826dc620-19a3-4a75-b922-e71bdb8ea4ca";
name = Fore;
shapes = (
{
closed = 1;
nodes = (
(182,-19,o),
(113,46,q),
(44,111,o),
(44,221.5,q),
(44,332,o),
(117,415.5,q),
(190,499,o),
(306,499,q),
(404,499,o),
(452,436,q),
(500,373,o),
(500,262,q),
(462,223,l),
(188,223,l),
(189,151,o),
(226.5,112,q),
(264,73,o),
(316.5,73,q),
(369,73,o),
(475,128,q),
(500,90,l),
(481,72,o),
(457,53,q),
(433,34,o),
(376.5,7.5,q),
(320,-19,o),
(269,-19,q)
);
},
{
closed = 1;
nodes = (
(246,435,o),
(224,420,q),
(208,395,o),
(199,354,q),
(190,313,o),
(189,281,q),
(364,291,l),
(364,435,o),
(283,435,q)
);
}
);
width = 540;
}
);
unicode = 101;
},
{
category = Letter;
glyphname = f;
layers = (
{
layerId = "826dc620-19a3-4a75-b922-e71bdb8ea4ca";
name = Fore;
shapes = (
{
closed = 1;
nodes = (
(257,161,o),
(266,104,q),
(275,47,o),
(286,22,q),
(286,0,l),
(111,0,l),
(111,22,l),
(128,72,o),
(128,185,q),
(128,411,l),
(69,409,o),
(40,406,q),
(70,490,l),
(128,487,l),
(128,541,l),
(128,628,o),
(172,684,q),
(216,740,o),
(309,740,q),
(402,740,o),
(505,697,q),
(471,620,o),
(445,587,q),
(363,657,o),
(307,657,q),
(285,657,o),
(272,649,q),
(257,626,o),
(257,527,q),
(257,486,l),
(301,488,o),
(413,495,q),
(377,397,l),
(312,406,o),
(257,409,q),
(257,208,l)
);
}
);
width = 413;
}
);
unicode = 102;
},
{
category = Letter;
glyphname = g;
layers = (
{
layerId = "826dc620-19a3-4a75-b922-e71bdb8ea4ca";
name = Fore;
shapes = (
{
closed = 1;
nodes = (
(66,405,o),
(131.5,452,q),
(197,499,o),
(299,499,q),
(371,499,o),
(425,472,q),
(491,472,o),
(562,482,q),
(595,412,l),
(494,412,l),
(520,368,o),
(520,321,q),
(520,239,o),
(458.5,189.5,q),
(397,140,o),
(300,140,q),
(263,140,o),
(239,146,q),
(214,125,o),
(214,114.5,q),
(214,104,o),
(223.5,98,q),
(233,92,o),
(258,86,q),
(284,80,o),
(320,73,q),
(478,44,o),
(522.5,20.5,q),
(567,-3,o),
(567,-59.5,q),
(567,-116,o),
(524,-157,q),
(444,-235,o),
(278,-235,q),
(194,-235,o),
(118,-210,q),
(78,-196,o),
(53.5,-168,q),
(29,-140,o),
(29,-102,q),
(29,-21,o),
(130,19,q),
(72,45,o),
(72,80,q),
(72,100,o),
(82,110,q),
(113,141,o),
(144,152,q),
(148,154,o),
(158,159,q),
(168,164,o),
(171,165,q),
(66,215,o),
(66,321,q)
);
},
{
closed = 1;
nodes = (
(240,197,o),
(301,197,q),
(344,197,o),
(360,211,q),
(387,244,o),
(387,326,q),
(387,441,o),
(288,441,q),
(251,441,o),
(226,427,q),
(199,388,o),
(199,334.5,q),
(199,281,o),
(214,252,q)
);
},
{
closed = 1;
nodes = (
(156,-129,o),
(200.5,-153.5,q),
(245,-178,o),
(294,-178,q),
(343,-178,o),
(377.5,-159.5,q),
(412,-141,o),
(412,-100,q),
(412,-77,o),
(403.5,-69.5,q),
(395,-62,o),
(392,-59,q),
(389,-56,o),
(381,-52.5,q),
(373,-49,o),
(368.5,-47.5,q),
(364,-46,o),
(353.5,-43,q),
(343,-40,o),
(337.5,-38.5,q),
(332,-37,o),
(319,-34,q),
(306,-31,o),
(279,-24,q),
(266,-20,o),
(193,-6,q),
(156,-27,o),
(156,-78,q)
);
}
);
width = 595;
}
);
unicode = 103;
},
{
category = Letter;
glyphname = h;
layers = (
{
layerId = "826dc620-19a3-4a75-b922-e71bdb8ea4ca";
name = Fore;
shapes = (
{
closed = 1;
nodes = (
(224,75,o),
(249,22,q),
(249,0,l),
(78,0,l),
(78,22,l),
(95,77,o),
(95,167,q),
(95,560,l),
(95,646,o),
(50,689,q),
(50,711,l),
(215,746,l),
(227,724,l),
(224,696,o),
(224,528,q),
(224,418,l),
(276,459,o),
(314,479,q),
(352,499,o),
(396,499,q),
(476,499,o),
(519,452.5,q),
(562,406,o),
(562,318,q),
(562,191,l),
(562,92,o),
(592,22,q),
(592,0,l),
(416,0,l),
(416,22,l),
(433,69,o),
(433,157,q),
(433,282,l),
(433,341,o),
(417.5,368,q),
(402,395,o),
(351.5,395,q),
(301,395,o),
(224,353,q),
(224,188,l)
);
}
);
width = 647;
}
);
unicode = 104;
},
{
category = Letter;
glyphname = i;
layers = (
{
layerId = "826dc620-19a3-4a75-b922-e71bdb8ea4ca";
name = Fore;
shapes = (
{
closed = 1;
nodes = (
(226,709,o),
(229.5,683,q),
(233,657,o),
(233,643,q),
(233,629,o),
(231,618,q),
(222,610,l),
(178,597,o),
(107,592,q),
(96,597,l),
(88,610,o),
(83.5,640,q),
(79,670,o),
(79,681.5,q),
(79,693,o),
(79,697,q),
(88,705,l),
(142,723,o),
(195,723,q),
(206,723,l),
(217,717,l)
);
},
{
closed = 1;
nodes = (
(236,179,l),
(236,84,o),
(265,22,q),
(265,0,l),
(90,0,l),
(90,22,l),
(107,73,o),
(107,157,q),
(107,305,l),
(107,360,o),
(90,396.5,q),
(73,433,o),
(47,447,q),
(47,469,l),
(230,503,l),
(242,483,l),
(236,460,o),
(236,393,q)
);
}
);
width = 314;
}
);
unicode = 105;
},
{
category = Letter;
glyphname = j;
layers = (
{
layerId = "826dc620-19a3-4a75-b922-e71bdb8ea4ca";
name = Fore;
shapes = (
{
closed = 1;
nodes = (
(211,114,l),
(211,-43,o),
(154,-122,q),
(132,-151,o),
(119,-164,q),
(105,-178,o),
(27,-250,q),
(-21,-203,l),
(8,-179,o),
(20,-164,q),
(53,-127,o),
(67.5,-60,q),
(82,7,o),
(82,152,q),
(82,302,l),
(82,357,o),
(61.5,396,q),
(41,435,o),
(15,447,q),
(15,469,l),
(205,503,l),
(217,483,l),
(211,456,o),
(211,384,q)
);
},
{
closed = 1;
nodes = (
(202,709,o),
(205.5,683,q),
(209,657,o),
(209,643,q),
(209,629,o),
(207,618,q),
(198,610,l),
(154,597,o),
(83,592,q),
(72,597,l),
(64,610,o),
(59.5,640,q),
(55,670,o),
(55,681.5,q),
(55,693,o),
(55,697,q),
(64,705,l),
(118,723,o),
(171,723,q),
(182,723,l),
(193,717,l)
);
}
);
width = 277;
}
);
unicode = 106;
},
{
category = Letter;
glyphname = k;
layers = (
{
layerId = "826dc620-19a3-4a75-b922-e71bdb8ea4ca";
name = Fore;
shapes = (
{
closed = 1;
nodes = (
(79,0,l),
(79,22,l),
(95,71,o),
(95,167,q),
(95,560,l),
(95,646,o),
(50,689,q),
(50,711,l),
(215,746,l),
(227,724,l),
(224,696,o),
(224,529,q),
(224,335,l),
(374,449,l),
(397,467,o),
(397,486,q),
(554,486,l),
(554,464,l),
(516,459,o),
(449,405,q),
(308,292,l),
(488,99,l),
(504,82,o),
(539.5,54.5,q),
(575,27,o),
(598,22,q),
(598,0,l),
(408,0,l),
(408,19,o),
(388,40,q),
(361,73,o),
(224,224,q),
(224,179,l),
(224,70,o),
(241,22,q),
(241,0,l)
);
}
);
width = 583;
}
);
unicode = 107;
},
{
category = Letter;
glyphname = l;
layers = (
{
layerId = "826dc620-19a3-4a75-b922-e71bdb8ea4ca";
name = Fore;
shapes = (
{
closed = 1;
nodes = (
(223,676,o),
(223,610,q),
(223,544,o),
(224,529,q),
(224,167,l),
(224,74,o),
(240,22,q),
(241,0,l),
(79,0,l),
(79,22,l),
(95,74,o),
(95,167,q),
(95,560,l),
(95,646,o),
(50,689,q),
(50,711,l),
(215,746,l),
(227,724,l)
);
}
);
width = 297;
}
);
unicode = 108;
},
{
category = Letter;
glyphname = m;
layers = (
{
layerId = "826dc620-19a3-4a75-b922-e71bdb8ea4ca";
name = Fore;
shapes = (
{
closed = 1;
nodes = (
(492,499,o),
(523,415,q),
(556,442,o),
(576.5,457,q),
(597,472,o),
(628,485.5,q),
(659,499,o),
(687,499,q),
(762,499,o),
(803,452.5,q),
(844,406,o),
(844,318,q),
(844,181,l),
(844,92,o),
(874,22,q),
(874,0,l),
(698,0,l),
(698,22,l),
(715,69,o),
(715,150,q),
(715,282,l),
(715,339,o),
(701,367,q),
(687,395,o),
(642.5,395,q),
(598,395,o),
(536,360,q),
(538,334,o),
(538,318,q),
(538,181,l),
(538,92,o),
(568,22,q),
(568,0,l),
(402,0,l),
(402,22,l),
(419,69,o),
(419,150,q),
(419,282,l),
(419,339,o),
(406,367,q),
(393,395,o),
(351.5,395,q),
(310,395,o),
(241,353,q),
(241,179,l),
(241,84,o),
(270,22,q),
(270,0,l),
(95,0,l),
(95,22,l),
(112,73,o),
(112,157,q),
(112,305,l),
(112,417,o),
(52,447,q),
(52,469,l),
(214,500,l),
(224,481,l),
(232,461,o),
(236,417,q),
(283,459,o),
(318.5,479,q),
(354,499,o),
(397,499,q)
);
}
);
width = 929;
}
);
unicode = 109;
},
{
category = Letter;
glyphname = n;
layers = (
{
layerId = "826dc620-19a3-4a75-b922-e71bdb8ea4ca";
name = Fore;
shapes = (
{
closed = 1;
nodes = (
(476,499,o),
(517,452.5,q),
(558,406,o),
(558,318,q),
(558,191,l),
(558,92,o),
(588,22,q),
(588,0,l),
(412,0,l),
(412,22,l),
(429,69,o),
(429,157,q),
(429,282,l),
(429,340,o),
(415,367.5,q),
(401,395,o),
(355,395,q),
(309,395,o),
(238,353,q),
(238,189,l),
(238,84,o),
(267,22,q),
(267,0,l),
(92,0,l),
(92,22,l),
(109,73,o),
(109,164,q),
(109,298,l),
(109,417,o),
(49,447,q),
(49,469,l),
(211,500,l),
(222,481,l),
(230,457,o),
(233,417,q),
(284,458,o),
(321.5,478.5,q),
(359,499,o),
(401,499,q)
);
}
);
width = 643;
}
);
unicode = 110;
},
{
category = Letter;
glyphname = o;
layers = (
{
layerId = "826dc620-19a3-4a75-b922-e71bdb8ea4ca";
name = Fore;
shapes = (
{
closed = 1;
nodes = (
(44,117,o),
(44,228,q),
(44,339,o),
(121,418.5,q),
(198,498,o),
(317.5,498,q),
(437,498,o),
(500.5,431.5,q),
(564,365,o),
(564,253,q),
(564,141,o),
(487,61,q),
(410,-19,o),
(293.5,-19,q),
(177,-19,o),
(110.5,49,q)
);
},
{
closed = 1;
nodes = (
(420,325,o),
(392,379.5,q),
(364,434,o),
(294,434,q),
(249,434,o),
(224,412,q),
(208,389,o),
(198,343,q),
(188,297,o),
(188,254,q),
(188,45,o),
(321,45,q),
(361,45,o),
(386,66,q),
(403,89,o),
(411.5,136.5,q),
(420,184,o),
(420,228,q)
);
}
);
width = 608;
}
);
unicode = 111;
},
{
category = Letter;
glyphname = p;
layers = (
{
layerId = "826dc620-19a3-4a75-b922-e71bdb8ea4ca";
name = Fore;
shapes = (
{
closed = 1;
nodes = (
(376,59,o),
(396,64,q),
(420,94,o),
(432,149.5,q),
(444,205,o),
(444,250,q),
(444,408,o),
(361,408,q),
(301,408,o),
(229,363,q),
(229,90,l),
(294,59,o),
(352,59,q)
);
},
{
closed = 1;
nodes = (
(100,304,l),
(100,348,o),
(86.5,387.5,q),
(73,427,o),
(51,439,q),
(49,461,l),
(212,500,l),
(224,481,l),
(222,466,o),
(222,432,q),
(289,499,o),
(362,499,q),
(463,499,o),
(525.5,432,q),
(588,365,o),
(588,269,q),
(588,150,o),
(504,66,q),
(420,-18,o),
(313,-18,q),
(270,-18,o),
(229,-9,q),
(229,-36,l),
(229,-155,o),
(269,-200,q),
(269,-222,l),
(96,-243,l),
(100,-191,o),
(100,-90,q)
);
}
);
width = 633;
}
);
unicode = 112;
},
{
category = Letter;
glyphname = q;
layers = (
{
layerId = "826dc620-19a3-4a75-b922-e71bdb8ea4ca";
name = Fore;
shapes = (
{
closed = 1;
nodes = (
(401,40,l),
(341,-18,o),
(269,-18,q),
(159,-18,o),
(101.5,55,q),
(44,128,o),
(44,237,q),
(44,346,o),
(119,422.5,q),
(194,499,o),
(310,499,q),
(374,499,o),
(445,472,q),
(486,499,l),
(487,499,o),
(491.5,499,q),
(496,499,o),
(513,495.5,q),
(530,492,o),
(536,489,q),
(530,443,o),
(530,349,q),
(530,-90,l),
(530,-189,o),
(534,-241,q),
(361,-230,l),
(361,-208,l),
(401,-156,o),
(401,-20,q)
);
},
{
closed = 1;
nodes = (
(260,71,o),
(303,71,q),
(346,71,o),
(401,111,q),
(401,404,l),
(351,427,o),
(286,427,q),
(267,427,o),
(250,422.5,q),
(233,418,o),
(229,414,q),
(188,363,o),
(188,257,q),
(188,151,o),
(234,100,q)
);
}
);
width = 586;
}
);
unicode = 113;
},
{
category = Letter;
glyphname = r;
layers = (
{
layerId = "826dc620-19a3-4a75-b922-e71bdb8ea4ca";
name = Fore;
shapes = (
{
closed = 1;
nodes = (
(88,0,l),
(88,22,l),
(105,76,o),
(105,156,q),
(105,305,l),
(105,349,o),
(88.5,390.5,q),
(72,432,o),
(49,445,q),
(49,467,l),
(190,500,l),
(200,486,l),
(206,477,o),
(218,445,q),
(283,499,o),
(354,499,q),
(389,499,o),
(419,485,q),
(419,480,o),
(419,476,q),
(419,413,o),
(394,350,q),
(341,387,o),
(280,387,q),
(261,387,o),
(234,381,q),
(234,184,l),
(234,88,o),
(263,22,q),
(263,0,l)
);
}
);
width = 412;
}
);
unicode = 114;
},
{
category = Letter;
glyphname = s;
layers = (
{
layerId = "826dc620-19a3-4a75-b922-e71bdb8ea4ca";
name = Fore;
shapes = (
{
closed = 1;
nodes = (
(333,65,o),
(333,120,q),
(333,171,o),
(236,197,q),
(196,208,o),
(156,222,q),
(116,236,o),
(88,267,q),
(60,298,o),
(60,346,q),
(60,415,o),
(122,453.5,q),
(184,492,o),
(273,492,q),
(362,492,o),
(459,449,q),
(454,405,o),
(405,343,q),
(365,383,o),
(322,404,q),
(279,425,o),
(247,425,q),
(215,425,o),
(198,418,q),
(183,405,o),
(183,375.5,q),
(183,346,o),
(211.5,330,q),
(240,314,o),
(281,304.5,q),
(322,295,o),
(363,281,q),
(404,267,o),
(432.5,233.5,q),
(461,200,o),
(461,146,q),
(461,68,o),
(400.5,28.5,q),
(340,-11,o),
(240,-11,q),
(140,-11,o),
(49,46,q),
(53,106,o),
(94,157,q),
(193,65,o),
(276,65,q)
);
}
);
width = 504;
}
);
unicode = 115;
},
{
category = Letter;
glyphname = t;
layers = (
{
layerId = "826dc620-19a3-4a75-b922-e71bdb8ea4ca";
name = Fore;
shapes = (
{
closed = 1;
nodes = (
(246,80,o),
(265,80,q),
(292,80,o),
(366,111,q),
(396,66,l),
(356,40,o),
(301,14.5,q),
(246,-11,o),
(205,-11,q),
(117,-11,o),
(117,90,q),
(117,408,l),
(102,408,o),
(18,401,q),
(54,491,l),
(72,488,o),
(118,486,q),
(116,532,o),
(112,571,q),
(246,605,l),
(246,487,l),
(286,488,o),
(403,500,q),
(364,397,l),
(313,406,o),
(246,408,q),
(246,116,l)
);
}
);
width = 423;
}
);
unicode = 116;
},
{
category = Letter;
glyphname = u;
layers = (
{
layerId = "826dc620-19a3-4a75-b922-e71bdb8ea4ca";
name = Fore;
shapes = (
{
closed = 1;
nodes = (
(156,-13,o),
(120.5,30.5,q),
(85,74,o),
(85,172,q),
(85,291,l),
(85,390,o),
(55,458,q),
(55,480,l),
(229,480,l),
(229,456,l),
(214,404,o),
(214,321,q),
(214,188,l),
(214,138,o),
(231,110.5,q),
(248,83,o),
(279,83,q),
(332,83,o),
(405,134,q),
(405,291,l),
(405,392,o),
(376,458,q),
(376,480,l),
(549,480,l),
(549,456,l),
(534,404,o),
(534,321,q),
(534,188,l),
(534,143,o),
(548.5,100,q),
(563,57,o),
(583,40,q),
(586,18,l),
(429,-22,l),
(408,14,o),
(405,59,q),
(319,-13,o),
(258,-13,q)
);
}
);
width = 640;
}
);
unicode = 117;
},
{
category = Letter;
glyphname = v;
layers = (
{
layerId = "826dc620-19a3-4a75-b922-e71bdb8ea4ca";
name = Fore;
shapes = (
{
closed = 1;
nodes = (
(166,458,o),
(207,332,q),
(268,156,l),
(336,371,l),
(354,425,o),
(354,474,q),
(354,486,l),
(497,486,l),
(497,464,l),
(468,445,o),
(440,366,q),
(326,45,l),
(312,-7,l),
(190,-11,l),
(172,47,l),
(53,370,l),
(42,400,o),
(24,427,q),
(6,454,o),
(-6,459,q),
(-6,481,l),
(166,494,l),
(166,482,l)
);
}
);
width = 496;
}
);
unicode = 118;
},
{
category = Letter;
glyphname = w;
layers = (
{
layerId = "826dc620-19a3-4a75-b922-e71bdb8ea4ca";
name = Fore;
shapes = (
{
closed = 1;
nodes = (
(161,455,o),
(204,329,q),
(264,159,l),
(296,249,o),
(316,301,q),
(335,350,o),
(351,408,q),
(330,453,o),
(320,461,q),
(320,483,l),
(472,490,l),
(472,475,l),
(472,447,o),
(516,322,q),
(575,159,l),
(639,359,o),
(649.5,395.5,q),
(660,432,o),
(660,476,q),
(660,486,l),
(796,486,l),
(795,463,l),
(768,444,o),
(743,365,q),
(639,45,l),
(626,-9,l),
(510,-11,l),
(492,47,l),
(405,270,l),
(324,44,l),
(313,-9,l),
(200,-11,l),
(182,47,l),
(51,370,l),
(37,404,o),
(20.5,429,q),
(4,454,o),
(-6,459,q),
(-6,481,l),
(161,493,l),
(161,478,l)
);
}
);
width = 797;
}
);
unicode = 119;
},
{
category = Letter;
glyphname = x;
layers = (
{
layerId = "826dc620-19a3-4a75-b922-e71bdb8ea4ca";
name = Fore;
shapes = (
{
closed = 1;
nodes = (
(330,0,l),
(330,15,l),
(330,55,o),
(292,105,q),
(251,160,l),
(207,93,l),
(174,43,o),
(173,15,q),
(173,0,l),
(0,0,l),
(0,22,l),
(22,29,o),
(53,55,q),
(84,81,o),
(106,115,q),
(189,244,l),
(114,346,l),
(84,387,o),
(49,423.5,q),
(14,460,o),
(-1,464,q),
(-1,486,l),
(186,486,l),
(186,472,l),
(186,446,o),
(234,385,q),
(269,338,l),
(303,391,l),
(337,445,o),
(337,473,q),
(337,487,l),
(509,486,l),
(509,464,l),
(453,446,o),
(403,367,q),
(331,254,l),
(417,141,l),
(451,96,o),
(485,62,q),
(519,28,o),
(533,22,q),
(533,0,l)
);
}
);
width = 530;
}
);
unicode = 120;
},
{
category = Letter;
glyphname = y;
layers = (
{
layerId = "826dc620-19a3-4a75-b922-e71bdb8ea4ca";
name = Fore;
shapes = (
{
closed = 1;
nodes = (
(166,431,o),
(201,338,q),
(279,129,l),
(363,388,o),
(363,436,q),
(363,438,l),
(363,453,o),
(358,464,q),
(358,486,l),
(503,486,l),
(503,464,l),
(490,450,o),
(462.5,376,q),
(435,302,o),
(343.5,41.5,q),
(252,-219,o),
(249,-228,q),
(249,-246,l),
(87,-255,l),
(84,-233,l),
(112,-199,o),
(130,-174,q),
(179,-105,o),
(216,-9,q),
(73,320,l),
(24,434,o),
(-7,460,q),
(-7,482,l),
(166,493,l),
(166,479,l)
);
}
);
width = 503;
}
);
unicode = 121;
},
{
category = Letter;
glyphname = z;
layers = (
{
layerId = "826dc620-19a3-4a75-b922-e71bdb8ea4ca";
name = Fore;
shapes = (
{
closed = 1;
nodes = (
(171,82,l),
(343,82,o),
(423,103,q),
(445,97,l),
(410,0,l),
(44,0,l),
(15,59,l),
(294,404,l),
(123,404,o),
(66,379,q),
(44,392,l),
(69,489,l),
(412,486,l),
(444,426,l)
);
}
);
width = 469;
}
);
unicode = 122;
},
{
category = Letter;
glyphname = braceleft;
layers = (
{
layerId = "826dc620-19a3-4a75-b922-e71bdb8ea4ca";
name = Fore;
shapes = (
{
closed = 1;
nodes = (
(259,35,l),
(259,-79,o),
(280,-102,q),
(291,-113,o),
(319,-113,q),
(347,-113,o),
(403,-103,q),
(411,-149,l),
(333,-168,o),
(290.5,-168,q),
(248,-168,o),
(218.5,-156.5,q),
(189,-145,o),
(172,-127,q),
(155,-109,o),
(146,-78,q),
(132,-31,o),
(132,52,q),
(132,134,l),
(132,213,o),
(79,248,q),
(69,254,o),
(53,262,q),
(53,278,l),
(75,292,o),
(89.5,304,q),
(104,316,o),
(118.5,346,q),
(133,376,o),
(133,415,q),
(133,529,l),
(133,660,o),
(170,704,q),
(185,722,o),
(215.5,735,q),
(246,748,o),
(292.5,748,q),
(339,748,o),
(410,729,q),
(402,683,l),
(346,693,o),
(311,693,q),
(276,693,o),
(267.5,657.5,q),
(259,622,o),
(259,550,q),
(259,434,l),
(259,366,o),
(225,326,q),
(201,299,o),
(162,273,q),
(162,267,l),
(259,209,o),
(259,104,q)
);
}
);
width = 446;
}
);
unicode = 123;
},
{
category = Letter;
glyphname = bar;
layers = (
{
layerId = "826dc620-19a3-4a75-b922-e71bdb8ea4ca";
name = Fore;
shapes = (
{
closed = 1;
nodes = (
(192,-143,l),
(74,-189,l),
(73,690,l),
(73,695,l),
(201,739,l),
(192,620,o),
(192,580,q)
);
}
);
width = 274;
}
);
unicode = 124;
},
{
category = Letter;
glyphname = braceright;
layers = (
{
layerId = "826dc620-19a3-4a75-b922-e71bdb8ea4ca";
name = Fore;
shapes = (
{
closed = 1;
nodes = (
(187,104,l),
(187,209,o),
(284,267,q),
(284,273,l),
(212,321,o),
(196,373,q),
(187,400,o),
(187,434,q),
(187,550,l),
(187,622,o),
(178.5,657.5,q),
(170,693,o),
(135,693,q),
(100,693,o),
(44,683,q),
(36,729,l),
(107,748,o),
(153.5,748,q),
(200,748,o),
(230.5,735,q),
(261,722,o),
(276.5,703.5,q),
(292,685,o),
(300,652,q),
(313,605,o),
(313,529,q),
(313,415,l),
(313,376,o),
(327.5,346,q),
(342,316,o),
(356.5,304,q),
(371,292,o),
(393,278,q),
(393,262,l),
(336,233,o),
(322,188,q),
(314,165,o),
(314,134,q),
(314,52,l),
(314,-85,o),
(274,-127,q),
(235,-168,o),
(156,-168,q),
(113,-168,o),
(35,-149,q),
(43,-103,l),
(99,-113,o),
(134.5,-113,q),
(170,-113,o),
(178.5,-76,q),
(187,-39,o),
(187,35,q)
);
}
);
width = 446;
}
);
unicode = 125;
},
{
category = Letter;
glyphname = asciitilde;
layers = (
{
layerId = "826dc620-19a3-4a75-b922-e71bdb8ea4ca";
name = Fore;
shapes = (
{
closed = 1;
nodes = (
(405,206,o),
(336,232.5,q),
(267,259,o),
(226,259,q),
(185,259,o),
(125,215,q),
(80,302,l),
(168,350,o),
(230,350,q),
(262,350,o),
(335,323,q),
(408,296,o),
(448.5,296,q),
(489,296,o),
(549,337,q),
(592,251,l),
(512,206,o),
(440,206,q)
);
}
);
width = 672;
}
);
unicode = 126;
},
{
category = Letter;
glyphname = exclamdown;
layers = (
{
layerId = "826dc620-19a3-4a75-b922-e71bdb8ea4ca";
name = Fore;
shapes = (
{
closed = 1;
nodes = (
(223,282,l),
(223,273,o),
(232,48.5,q),
(241,-176,o),
(248,-216,q),
(235,-235,l),
(63,-208,l),
(63,-191,l),
(99,-168,o),
(105,-102,q),
(114,75,o),
(114,302,q)
);
},
{
closed = 1;
nodes = (
(109,393,o),
(109,405.5,q),
(109,418,o),
(114,445.5,q),
(119,473,o),
(127,487,q),
(138,492,l),
(196,488,o),
(245,474,q),
(254,466,l),
(256,455,o),
(256,441,q),
(256,427,o),
(252.5,401,q),
(249,375,o),
(240,367,q),
(229,361,l),
(174,361,o),
(119,379,q),
(110,387,l)
);
}
);
width = 306;
}
);
unicode = 161;
},
{
category = Letter;
glyphname = cent;
layers = (
{
layerId = "826dc620-19a3-4a75-b922-e71bdb8ea4ca";
name = Fore;
shapes = (
{
closed = 1;
nodes = (
(40,122,o),
(40,230,q),
(40,338,o),
(110,410.5,q),
(180,483,o),
(281,496,q),
(281,543,o),
(277,584,q),
(353,610,l),
(358,596,l),
(352,548,o),
(350,497,q),
(436,487,o),
(497,448,q),
(463,391,o),
(433,359,q),
(390,391,o),
(350,407,q),
(350,79,l),
(402,93,o),
(475,132,q),
(501,91,l),
(434,28,o),
(350,-3,q),
(350,-80,o),
(354,-115,q),
(274,-131,l),
(269,-117,l),
(277,-56,o),
(279,-18,q),
(168,-17,o),
(104,52.5,q)
);
},
{
closed = 1;
nodes = (
(184,75,o),
(281,71,q),
(281,421,l),
(278,421,l),
(259,421,o),
(244,418,q),
(218,394,o),
(201,348,q),
(184,302,o),
(184,246,q)
);
}
);
width = 538;
}
);
unicode = 162;
},
{
category = Letter;
glyphname = sterling;
layers = (
{
layerId = "826dc620-19a3-4a75-b922-e71bdb8ea4ca";
name = Fore;
shapes = (
{
closed = 1;
nodes = (
(209,155,o),
(209,198.5,q),
(209,242,o),
(171,335,q),
(81,332,o),
(16,327,q),
(52,410,l),
(66,410,l),
(106,402,o),
(137,402,q),
(102,468,o),
(102,517,q),
(102,592,o),
(169.5,649,q),
(237,706,o),
(346.5,706,q),
(456,706,o),
(530,661,q),
(499,615,o),
(470,585,q),
(397,635,o),
(335,635,q),
(316,635,o),
(299,633,q),
(275,619,o),
(260.5,586,q),
(246,553,o),
(246,517,q),
(246,481,o),
(276,402,q),
(303,402,o),
(354.5,404,q),
(406,406,o),
(428,406,q),
(393,326,l),
(379,326,l),
(343,332,o),
(306,332,q),
(334,265,o),
(334,227,q),
(334,172,o),
(276,104,q),
(267,94,o),
(261.5,89,q),
(256,84,o),
(243,71,q),
(432,78,o),
(515,130,q),
(537,130,l),
(504,-12,l),
(14,-12,l),
(71,59,l),
(141,73,o),
(175,114,q)
);
}
);
width = 558;
}
);
unicode = 163;
},
{
category = Letter;
glyphname = currency;
layers = (
{
layerId = "826dc620-19a3-4a75-b922-e71bdb8ea4ca";
name = Fore;
shapes = (
{
closed = 1;
nodes = (
(390,146,o),
(329.5,146,q),
(269,146,o),
(214,181,q),
(158,119,l),
(75,153,l),
(155,227,l),
(115,282,o),
(115,347,q),
(115,412,o),
(157,470,q),
(75,547,l),
(158,578,l),
(214,517,l),
(266,550,o),
(328,550,q),
(390,550,o),
(442,517,q),
(487,568,l),
(498,579,l),
(581,548,l),
(497,471,l),
(539,416,o),
(539,346.5,q),
(539,277,o),
(496,227,q),
(580,150,l),
(499,119,l),
(445,181,l)
);
},
{
closed = 1;
nodes = (
(439,399,o),
(407,432.5,q),
(375,466,o),
(326.5,466,q),
(278,466,o),
(247,432.5,q),
(216,399,o),
(216,351,q),
(216,303,o),
(247,270,q),
(278,237,o),
(326.5,237,q),
(375,237,o),
(407,270,q),
(439,303,o),
(439,351,q)
);
}
);
width = 676;
}
);
unicode = 164;
},
{
category = Letter;
glyphname = yen;
layers = (
{
layerId = "826dc620-19a3-4a75-b922-e71bdb8ea4ca";
name = Fore;
shapes = (
{
closed = 1;
nodes = (
(372,238,l),
(372,200,o),
(376.5,124,q),
(381,48,o),
(387,24,q),
(387,0,l),
(225,0,l),
(225,24,l),
(240,84,o),
(240,208,q),
(240,240,l),
(150,240,l),
(106,240,o),
(11,233,q),
(46,315,l),
(234,315,l),
(142,488,l),
(103,556,o),
(61.5,613.5,q),
(20,671,o),
(2,679,q),
(2,700,l),
(187,700,l),
(187,678,l),
(187,637,o),
(226.5,555.5,q),
(266,474,o),
(321,373,q),
(405,549,o),
(424,599,q),
(443,649,o),
(443,678,q),
(443,700,l),
(588,700,l),
(588,680,l),
(551,654,o),
(500,564,q),
(481,532,o),
(434,433.5,q),
(387,335,o),
(377,315,q),
(457,315,l),
(502,315,o),
(596,322,q),
(565,240,l),
(372,240,l)
);
}
);
width = 596;
}
);
unicode = 165;
},
{
category = Letter;
glyphname = brokenbar;
layers = (
{
layerId = "826dc620-19a3-4a75-b922-e71bdb8ea4ca";
name = Fore;
shapes = (
{
closed = 1;
nodes = (
(192,-143,l),
(74,-189,l),
(73,235,l),
(192,235,l)
);
},
{
closed = 1;
nodes = (
(73,355,l),
(73,695,l),
(201,739,l),
(192,620,o),
(192,580,q),
(192,355,l)
);
}
);
width = 274;
}
);
unicode = 166;
},
{
category = Letter;
glyphname = section;
layers = (
{
layerId = "826dc620-19a3-4a75-b922-e71bdb8ea4ca";
name = Fore;
shapes = (
{
closed = 1;
nodes = (
(323,-98,o),
(343,-96,q),
(343,-11,o),
(309,63,q),
(297,89,o),
(267.5,123.5,q),
(238,158,o),
(225.5,170.5,q),
(213,183,o),
(173.5,219.5,q),
(134,256,o),
(111,282.5,q),
(88,309,o),
(67.5,356.5,q),
(47,404,o),
(47,459,q),
(47,543,o),
(90,604,q),
(171,717,o),
(325,717,q),
(419,717,o),
(511,679,q),
(510,654,o),
(495.5,617.5,q),
(481,581,o),
(463,555,q),
(384,636,o),
(312,636,q),
(286,636,o),
(264,629,q),
(266,546,o),
(311,486,q),
(334,456,o),
(353,436.5,q),
(372,417,o),
(406.5,387.5,q),
(441,358,o),
(455,345,q),
(469,332,o),
(496.5,302,q),
(524,272,o),
(536,248,q),
(569,182,o),
(569,110,q),
(569,-23,o),
(488,-104,q),
(407,-185,o),
(292,-185,q),
(241,-185,o),
(180.5,-166.5,q),
(120,-148,o),
(74,-115,q),
(77,-48,o),
(123,9,q),
(224,-98,o),
(313,-98,q)
);
},
{
closed = 1;
nodes = (
(145,547,o),
(145,481.5,q),
(145,416,o),
(173,370.5,q),
(201,325,o),
(246.5,281,q),
(292,237,o),
(306,222.5,q),
(320,208,o),
(349,172.5,q),
(378,137,o),
(391,110,q),
(427,37,o),
(427,-44,q),
(442,-25,o),
(453,12.5,q),
(464,50,o),
(464,89,q),
(464,170,o),
(432.5,222.5,q),
(401,275,o),
(340,328,q),
(306,358,o),
(295,367.5,q),
(284,377,o),
(257,406,q),
(230,435,o),
(220,456,q),
(186,523,o),
(183,582,q)
);
}
);
width = 622;
}
);
unicode = 167;
},
{
category = Letter;
glyphname = dieresis;
layers = (
{
layerId = "826dc620-19a3-4a75-b922-e71bdb8ea4ca";
name = Fore;
shapes = (
{
closed = 1;
nodes = (
(232,668,o),
(235.5,642,q),
(239,616,o),
(239,602,q),
(239,588,o),
(238,579,q),
(226,568,l),
(180,556,o),
(135,553,q),
(119,553,l),
(104,558,l),
(82,597,o),
(82,656,q),
(97,667,l),
(147,680,o),
(191,682,q),
(213,682,l),
(225,676,l)
);
},
{
closed = 1;
nodes = (
(446,679,o),
(449.5,653,q),
(453,627,o),
(453,613,q),
(453,599,o),
(452,590,q),
(440,579,l),
(394,567,o),
(349,564,q),
(333,564,l),
(318,569,l),
(296,608,o),
(296,667,q),
(311,678,l),
(361,691,o),
(405,693,q),
(427,693,l),
(439,687,l)
);
}
);
width = 544;
}
);
unicode = 168;
},
{
category = Letter;
glyphname = copyright;
layers = (
{
layerId = "826dc620-19a3-4a75-b922-e71bdb8ea4ca";
name = Fore;
shapes = (
{
closed = 1;
nodes = (
(753,502,o),
(753,353,q),
(753,204,o),
(648.5,98.5,q),
(544,-7,o),
(394,-7,q),
(244,-7,o),
(137.5,98.5,q),
(31,204,o),
(31,352,q),
(31,500,o),
(137.5,605.5,q),
(244,711,o),
(393,711,q),
(542,711,o),
(647.5,606.5,q)
);
},
{
closed = 1;
nodes = (
(675,232,o),
(675,351,q),
(675,470,o),
(593,555.5,q),
(511,641,o),
(394.5,641,q),
(278,641,o),
(195,556,q),
(112,471,o),
(112,352,q),
(112,233,o),
(194.5,148,q),
(277,63,o),
(392.5,63,q),
(508,63,o),
(591.5,147.5,q)
);
},
{
closed = 1;
nodes = (
(359,238,o),
(395.5,238,q),
(432,238,o),
(475.5,253,q),
(519,268,o),
(535,278,q),
(566,233,l),
(565,233,o),
(555.5,226,q),
(546,219,o),
(514,201,q),
(442,160,o),
(393,160,q),
(307,160,o),
(257,214,q),
(207,268,o),
(207,355,q),
(207,442,o),
(271.5,500.5,q),
(336,559,o),
(422,559,q),
(508,559,o),
(562,517,q),
(538,474,o),
(509,447,q),
(438,490,o),
(401,490,q),
(386,490,o),
(369,487,q),
(347,474,o),
(334.5,439,q),
(322,404,o),
(322,356.5,q),
(322,309,o),
(340.5,273.5,q)
);
}
);
width = 784;
}
);
unicode = 169;
},
{
category = Letter;
glyphname = ordfeminine;
layers = (
{
layerId = "826dc620-19a3-4a75-b922-e71bdb8ea4ca";
name = Fore;
shapes = (
{
closed = 1;
nodes = (
(192,535,o),
(165,535,q),
(138,535,o),
(126,524,q),
(119,507,o),
(119,487,q),
(119,443,o),
(160,443,q),
(172,443,o),
(188.5,451,q),
(205,459,o),
(214,470,q),
(214,526,l)
);
},
{
closed = 1;
nodes = (
(192,394,o),
(140.5,394,q),
(89,394,o),
(59,416,q),
(29,438,o),
(29,481,q),
(29,579,o),
(160,579,q),
(215,577,l),
(215,612,l),
(215,666,o),
(164,666,q),
(140,666,o),
(78,609,q),
(65,624,o),
(54,648,q),
(43,672,o),
(42,690,q),
(117,714,o),
(175.5,714,q),
(234,714,o),
(269.5,687.5,q),
(305,661,o),
(305,612,q),
(305,509,l),
(305,447,o),
(334,424,q),
(337,410,l),
(240,392,l),
(226,424,o),
(224,434,q)
);
}
);
width = 372;
}
);
unicode = 170;
},
{
category = Letter;
glyphname = guillemotleft;
layers = (
{
layerId = "826dc620-19a3-4a75-b922-e71bdb8ea4ca";
name = Fore;
shapes = (
{
closed = 1;
nodes = (
(290,276,l),
(338,303,o),
(354,317,q),
(516,457,l),
(563,410,l),
(430,267,l),
(570,118,l),
(517,64,l),
(476,107,o),
(463,117,q),
(335,224,l),
(297,253,l)
);
},
{
closed = 1;
nodes = (
(63,276,l),
(111,303,o),
(127,317,q),
(289,457,l),
(336,410,l),
(203,267,l),
(343,118,l),
(290,64,l),
(249,107,o),
(236,117,q),
(108,224,l),
(70,253,l)
);
}
);
width = 632;
}
);
unicode = 171;
},
{
category = Letter;
glyphname = logicalnot;
layers = (
{
layerId = "826dc620-19a3-4a75-b922-e71bdb8ea4ca";
name = Fore;
shapes = (
{
closed = 1;
nodes = (
(474,121,l),
(474,338,l),
(4,338,l),
(4,427,l),
(565,427,l),
(565,121,l)
);
}
);
width = 569;
}
);
unicode = 172;
},
{
category = Letter;
glyphname = uni00AD;
layers = (
{
layerId = "826dc620-19a3-4a75-b922-e71bdb8ea4ca";
name = Fore;
shapes = (
{
closed = 1;
nodes = (
(93,316,o),
(140,316,q),
(222,317,l),
(244,317,o),
(290.5,319,q),
(337,321,o),
(361,321,q),
(323,222,l),
(309,222,l),
(241,231,o),
(135,231,q),
(1,225,l),
(39,325,l),
(53,325,l)
);
}
);
width = 362;
}
);
unicode = 173;
},
{
category = Letter;
glyphname = registered;
layers = (
{
layerId = "826dc620-19a3-4a75-b922-e71bdb8ea4ca";
name = Fore;
shapes = (
{
closed = 1;
nodes = (
(753,502,o),
(753,353,q),
(753,204,o),
(648.5,98.5,q),
(544,-7,o),
(394,-7,q),
(244,-7,o),
(137.5,98.5,q),
(31,204,o),
(31,352,q),
(31,500,o),
(137.5,605.5,q),
(244,711,o),
(393,711,q),
(542,711,o),
(647.5,606.5,q)
);
},
{
closed = 1;
nodes = (
(675,232,o),
(675,351,q),
(675,470,o),
(593,555.5,q),
(511,641,o),
(394.5,641,q),
(278,641,o),
(195,556,q),
(112,471,o),
(112,352,q),
(112,233,o),
(194.5,148,q),
(277,63,o),
(392.5,63,q),
(508,63,o),
(591.5,147.5,q)
);
},
{
closed = 1;
nodes = (
(405,551,l),
(556,551,o),
(556,456,q),
(556,410,o),
(521,381,q),
(486,352,o),
(432,347,q),
(497,269,l),
(556,199,o),
(589,188,q),
(589,176,l),
(459,176,l),
(435,209,o),
(343,346,q),
(335,347,l),
(335,271,l),
(335,211,o),
(342,188,q),
(342,176,l),
(221,176,l),
(221,188,l),
(232,216,o),
(232,266,q),
(232,456,l),
(232,514,o),
(223,539,q),
(223,551,l),
(276,550,l)
);
},
{
closed = 1;
nodes = (
(412,508,o),
(379.5,508,q),
(347,508,o),
(336,506,q),
(335,495,o),
(335,384,q),
(348,383,o),
(379.5,383,q),
(411,383,o),
(426,398.5,q),
(441,414,o),
(441,447.5,q),
(441,481,o),
(426.5,494.5,q)
);
}
);
width = 784;
}
);
unicode = 174;
},
{
category = Letter;
glyphname = macron;
layers = (
{
layerId = "826dc620-19a3-4a75-b922-e71bdb8ea4ca";
name = Fore;
shapes = (
{
closed = 1;
nodes = (
(113,597,l),
(113,674,l),
(387,674,l),
(387,597,l)
);
}
);
width = 500;
}
);
unicode = 175;
},
{
category = Letter;
glyphname = degree;
layers = (
{
layerId = "826dc620-19a3-4a75-b922-e71bdb8ea4ca";
name = Fore;
shapes = (
{
closed = 1;
nodes = (
(120,705,o),
(183.5,705,q),
(247,705,o),
(287.5,666,q),
(328,627,o),
(328,563.5,q),
(328,500,o),
(288.5,458,q),
(249,416,o),
(185.5,416,q),
(122,416,o),
(80.5,456,q),
(39,496,o),
(39,560,q),
(39,624,o),
(79.5,664.5,q)
);
},
{
closed = 1;
nodes = (
(232,487,o),
(252,507,q),
(260,528,o),
(260,551,q),
(260,634,o),
(177,634,q),
(137,634,o),
(115,614,q),
(108,593,o),
(108,570,q),
(108,487,o),
(189,487,q)
);
}
);
width = 367;
}
);
unicode = 176;
},
{
category = Letter;
glyphname = plusminus;
layers = (
{
layerId = "826dc620-19a3-4a75-b922-e71bdb8ea4ca";
name = Fore;
shapes = (
{
closed = 1;
nodes = (
(558,456,l),
(557,369,l),
(341,369,l),
(341,163,l),
(252,163,l),
(252,369,l),
(42,369,l),
(43,457,l),
(252,456,l),
(253,663,l),
(341,662,l),
(341,456,l)
);
},
{
closed = 1;
nodes = (
(557,0,l),
(42,0,l),
(43,88,l),
(558,87,l)
);
}
);
width = 600;
}
);
unicode = 177;
},
{
category = Letter;
glyphname = twosuperior;
layers = (
{
layerId = "826dc620-19a3-4a75-b922-e71bdb8ea4ca";
name = Fore;
shapes = (
{
closed = 1;
nodes = (
(238,652,o),
(205,652,q),
(166,652,o),
(83,580,q),
(41,621,o),
(39,663,q),
(129,705,o),
(202,705,q),
(275,705,o),
(310,678.5,q),
(345,652,o),
(345,606,q),
(345,510,o),
(157,337,q),
(200,337,l),
(310,343,o),
(348,371,q),
(364,357,l),
(337,272,l),
(48,272,l),
(33,321,l),
(81,366,o),
(107,391.5,q),
(133,417,o),
(169,458,q),
(238,538,o),
(238,606,q)
);
}
);
width = 398;
}
);
unicode = 178;
},
{
category = Letter;
glyphname = threesuperior;
layers = (
{
layerId = "826dc620-19a3-4a75-b922-e71bdb8ea4ca";
name = Fore;
shapes = (
{
closed = 1;
nodes = (
(237,267,o),
(159.5,267,q),
(82,267,o),
(23,309,q),
(23,350,o),
(53,374,q),
(77,353,o),
(107,340.5,q),
(137,328,o),
(161.5,328,q),
(186,328,o),
(203,336,q),
(231,358,o),
(231,403,q),
(231,448,o),
(212,461.5,q),
(193,475,o),
(151,475,q),
(109,475,o),
(91,472,q),
(88,472,l),
(78,525,l),
(130,525,l),
(163,525,o),
(183.5,546.5,q),
(204,568,o),
(204,595.5,q),
(204,623,o),
(191,638,q),
(178,653,o),
(154,653,q),
(119,653,o),
(61,595,q),
(34,629,o),
(29,678,q),
(114,705,o),
(169.5,705,q),
(225,705,o),
(267,684,q),
(309,663,o),
(309,620,q),
(309,577,o),
(285,550,q),
(261,523,o),
(234,517,q),
(263,515,o),
(289,499,q),
(338,469,o),
(338,408,q),
(338,347,o),
(287.5,307,q)
);
}
);
width = 364;
}
);
unicode = 179;
},
{
category = Letter;
glyphname = acute;
layers = (
{
layerId = "826dc620-19a3-4a75-b922-e71bdb8ea4ca";
name = Fore;
shapes = (
{
closed = 1;
nodes = (
(295,562,o),
(182,506,q),
(145,545,l),
(245,630,o),
(305,732,q),
(368,710,o),
(404,658,q)
);
}
);
width = 549;
}
);
unicode = 180;
},
{
category = Letter;
glyphname = mu;
layers = (
{
layerId = "826dc620-19a3-4a75-b922-e71bdb8ea4ca";
name = Fore;
shapes = (
{
closed = 1;
nodes = (
(88,291,l),
(88,390,o),
(58,458,q),
(58,480,l),
(232,480,l),
(232,456,l),
(217,404,o),
(217,321,q),
(217,188,l),
(217,138,o),
(234,110.5,q),
(251,83,o),
(282,83,q),
(335,83,o),
(408,134,q),
(408,291,l),
(408,392,o),
(379,458,q),
(379,480,l),
(552,480,l),
(552,456,l),
(537,404,o),
(537,321,q),
(537,188,l),
(537,143,o),
(551.5,100,q),
(566,57,o),
(586,40,q),
(589,18,l),
(432,-22,l),
(411,14,o),
(408,59,q),
(320,-13,o),
(259,-13,q),
(215,-13,o),
(185,7,q),
(194,-63,o),
(227,-114,q),
(260,-165,o),
(308,-191,q),
(311,-210,l),
(111,-240,l),
(88,-42,o),
(88,96,q)
);
}
);
width = 643;
}
);
unicode = (181,956);
},
{
category = Letter;
glyphname = paragraph;
layers = (
{
layerId = "826dc620-19a3-4a75-b922-e71bdb8ea4ca";
name = Fore;
shapes = (
{
closed = 1;
nodes = (
(429,630,l),
(365,630,l),
(362,400,o),
(362,132,q),
(362,-136,o),
(366,-178,q),
(268,-194,l),
(264,-181,l),
(275,-107,o),
(275,-41,q),
(275,189,l),
(152,190,o),
(78.5,268,q),
(5,346,o),
(5,453.5,q),
(5,561,o),
(80,626,q),
(155,691,o),
(277,693,q),
(673,698,l),
(642,616,l),
(628,616,l),
(582,629,o),
(516,630,q),
(516,-113,l),
(516,-206,o),
(520,-248,q),
(422,-264,l),
(418,-250,l),
(429,-173,o),
(429,-102,q)
);
}
);
width = 686;
}
);
unicode = 182;
},
{
category = Letter;
glyphname = periodcentered;
layers = (
{
layerId = "826dc620-19a3-4a75-b922-e71bdb8ea4ca";
name = Fore;
shapes = (
{
closed = 1;
nodes = (
(243,334,o),
(247,302.5,q),
(251,271,o),
(251,254,q),
(251,237,o),
(249,225,q),
(239,216,l),
(195,203,o),
(102,195,q),
(90,201,l),
(81,216,o),
(75.5,252,q),
(70,288,o),
(70,302,q),
(70,316,o),
(70,320,q),
(80,329,l),
(144,350,o),
(210,350,q),
(215,350,o),
(221,350,q),
(233,343,l)
);
}
);
width = 323;
}
);
unicode = 183;
},
{
category = Letter;
glyphname = cedilla;
layers = (
{
layerId = "826dc620-19a3-4a75-b922-e71bdb8ea4ca";
name = Fore;
shapes = (
{
closed = 1;
nodes = (
(476,-102,o),
(476,-140,q),
(476,-178,o),
(441,-201,q),
(406,-224,o),
(368,-224,q),
(330,-224,o),
(294,-211,q),
(258,-198,o),
(243,-189,q),
(262,-148,l),
(294,-165,o),
(321.5,-165,q),
(349,-165,o),
(363.5,-156,q),
(378,-147,o),
(378,-132.5,q),
(378,-118,o),
(366,-109,q),
(352,-105,o),
(334,-105,q),
(316,-105,o),
(295,-109,q),
(282,-90,l),
(325,-2,l),
(401,-9,l),
(367,-63,l),
(377,-60,o),
(403.5,-60.5,q),
(430,-61,o),
(453,-81.5,q)
);
}
);
width = 522;
}
);
unicode = 184;
},
{
category = Letter;
glyphname = onesuperior;
layers = (
{
layerId = "826dc620-19a3-4a75-b922-e71bdb8ea4ca";
name = Fore;
shapes = (
{
closed = 1;
nodes = (
(221,398,l),
(221,314,o),
(230,276,q),
(230,272,l),
(107,272,l),
(107,276,l),
(117,305,o),
(117,393,q),
(117,561,l),
(117,603,o),
(114,618,q),
(78,610,o),
(24,608,q),
(16,659,l),
(90,669,o),
(134,700,q),
(224,700,l),
(221,649,o),
(221,631,q)
);
}
);
width = 292;
}
);
unicode = 185;
},
{
category = Letter;
glyphname = ordmasculine;
layers = (
{
layerId = "826dc620-19a3-4a75-b922-e71bdb8ea4ca";
name = Fore;
shapes = (
{
closed = 1;
nodes = (
(40,478,o),
(40,546.5,q),
(40,615,o),
(89,664.5,q),
(138,714,o),
(213.5,714,q),
(289,714,o),
(329,672.5,q),
(369,631,o),
(369,562,q),
(369,493,o),
(320,443.5,q),
(271,394,o),
(198,394,q),
(125,394,o),
(82.5,436,q)
);
},
{
closed = 1;
nodes = (
(273,487,o),
(273,544,q),
(273,601,o),
(257,630,q),
(241,659,o),
(199,659,q),
(172,659,o),
(158,648,q),
(136,620,o),
(136,562,q),
(136,448,o),
(215,448,q),
(238,448,o),
(252,459,q)
);
}
);
width = 409;
}
);
unicode = 186;
},
{
category = Letter;
glyphname = guillemotright;
layers = (
{
layerId = "826dc620-19a3-4a75-b922-e71bdb8ea4ca";
name = Fore;
shapes = (
{
closed = 1;
nodes = (
(335,253,l),
(297,224,l),
(169,117,l),
(156,107,o),
(115,64,q),
(62,118,l),
(202,267,l),
(69,410,l),
(116,457,l),
(278,317,l),
(294,303,o),
(342,276,q)
);
},
{
closed = 1;
nodes = (
(562,253,l),
(524,224,l),
(396,117,l),
(383,107,o),
(342,64,q),
(289,118,l),
(429,267,l),
(296,410,l),
(343,457,l),
(505,317,l),
(521,303,o),
(569,276,q)
);
}
);
width = 631;
}
);
unicode = 187;
},
{
category = Letter;
glyphname = onequarter;
layers = (
{
layerId = "826dc620-19a3-4a75-b922-e71bdb8ea4ca";
name = Fore;
shapes = (
{
closed = 1;
nodes = (
(719,39,o),
(728,3,q),
(728,0,l),
(608,0,l),
(608,3,l),
(613,30,o),
(615,94,q),
(615,99,l),
(532,99,o),
(450,99,q),
(425,151,l),
(491,264,o),
(595,422,q),
(720,429,l),
(718,375,o),
(718,165,q),
(734,165,o),
(764.5,167,q),
(795,169,o),
(797,169,q),
(785,99,l),
(719,99,l)
);
},
{
closed = 1;
nodes = (
(701,725,l),
(716,710,l),
(626,627,o),
(300,157,q),
(256,95,l),
(185,-13,l),
(75,-20,l),
(60,-5,l),
(115,47,o),
(253,235,q),
(467,527,o),
(593,718,q)
);
},
{
closed = 1;
nodes = (
(221,398,l),
(221,314,o),
(230,276,q),
(230,272,l),
(107,272,l),
(107,276,l),
(117,305,o),
(117,393,q),
(117,561,l),
(117,603,o),
(114,618,q),
(78,610,o),
(24,608,q),
(16,659,l),
(90,669,o),
(134,700,q),
(224,700,l),
(221,649,o),
(221,631,q)
);
},
{
closed = 1;
nodes = (
(616,352,l),
(527,219,o),
(497,162,q),
(530,162,o),
(616,164,q)
);
}
);
width = 822;
}
);
unicode = 188;
},
{
category = Letter;
glyphname = onehalf;
layers = (
{
layerId = "826dc620-19a3-4a75-b922-e71bdb8ea4ca";
name = Fore;
shapes = (
{
closed = 1;
nodes = (
(699,725,l),
(714,710,l),
(626,630,o),
(298,157,q),
(254,95,l),
(183,-13,l),
(73,-20,l),
(58,-5,l),
(113,47,o),
(251,235,q),
(465,527,o),
(591,718,q)
);
},
{
closed = 1;
nodes = (
(710,380,o),
(677,380,q),
(638,380,o),
(555,308,q),
(513,349,o),
(511,391,q),
(601,433,o),
(674,433,q),
(747,433,o),
(782,406.5,q),
(817,380,o),
(817,334,q),
(817,238,o),
(629,65,q),
(672,65,l),
(782,71,o),
(820,99,q),
(836,85,l),
(809,0,l),
(520,0,l),
(505,49,l),
(553,94,o),
(579,119.5,q),
(605,145,o),
(641,186,q),
(710,266,o),
(710,334,q)
);
},
{
closed = 1;
nodes = (
(221,398,l),
(221,314,o),
(230,276,q),
(230,272,l),
(107,272,l),
(107,276,l),
(117,305,o),
(117,393,q),
(117,561,l),
(117,603,o),
(114,618,q),
(78,610,o),
(24,608,q),
(16,659,l),
(90,669,o),
(134,700,q),
(224,700,l),
(221,649,o),
(221,631,q)
);
}
);
width = 870;
}
);
unicode = 189;
},
{
category = Letter;
glyphname = threequarters;
layers = (
{
layerId = "826dc620-19a3-4a75-b922-e71bdb8ea4ca";
name = Fore;
shapes = (
{
closed = 1;
nodes = (
(237,267,o),
(159.5,267,q),
(82,267,o),
(23,309,q),
(23,350,o),
(53,374,q),
(66,362,o),
(98.5,345.5,q),
(131,329,o),
(158.5,328.5,q),
(186,328,o),
(203,336,q),
(231,358,o),
(231,403,q),
(231,448,o),
(212,461.5,q),
(193,475,o),
(151,475,q),
(109,475,o),
(91,472,q),
(88,472,l),
(78,525,l),
(130,525,l),
(163,525,o),
(183.5,546.5,q),
(204,568,o),
(204,595.5,q),
(204,623,o),
(191,638,q),
(178,653,o),
(154,653,q),
(119,653,o),
(61,595,q),
(34,629,o),
(29,678,q),
(114,705,o),
(169.5,705,q),
(225,705,o),
(267,684,q),
(309,663,o),
(309,620,q),
(309,577,o),
(285,550,q),
(261,523,o),
(234,517,q),
(263,515,o),
(289,499,q),
(338,469,o),
(338,408,q),
(338,347,o),
(287.5,307,q)
);
},
{
closed = 1;
nodes = (
(817,39,o),
(826,3,q),
(826,0,l),
(706,0,l),
(706,3,l),
(711,30,o),
(713,94,q),
(713,99,l),
(548,99,l),
(523,151,l),
(589,264,o),
(693,422,q),
(818,429,l),
(816,375,o),
(816,165,q),
(832,165,o),
(862.5,167,q),
(893,169,o),
(895,169,q),
(883,99,l),
(817,99,l)
);
},
{
closed = 1;
nodes = (
(714,352,l),
(625,219,o),
(595,162,q),
(628,162,o),
(714,164,q)
);
},
{
closed = 1;
nodes = (
(797,725,l),
(812,710,l),
(724,630,o),
(396,157,q),
(352,95,l),
(281,-13,l),
(171,-20,l),
(156,-5,l),
(211,47,o),
(349,235,q),
(563,527,o),
(689,718,q)
);
}
);
width = 920;
}
);
unicode = 190;
},
{
category = Letter;
glyphname = questiondown;
layers = (
{
layerId = "826dc620-19a3-4a75-b922-e71bdb8ea4ca";
name = Fore;
shapes = (
{
closed = 1;
nodes = (
(171,-140,o),
(255,-140,q),
(317,-140,o),
(403,-74,q),
(439,-126,o),
(439,-188,q),
(439,-195,o),
(439,-201,q),
(349,-232,o),
(250,-232,q),
(151,-232,o),
(94,-190,q),
(37,-148,o),
(37,-63,q),
(37,-8,o),
(62,41,q),
(87,90,o),
(126,124,q),
(188,177,o),
(244,205,q),
(244,211,l),
(244,230,o),
(232,271,q),
(232,289,l),
(268,296,o),
(297.5,296,q),
(327,296,o),
(359,290,q),
(359,271,l),
(349,225,o),
(349,207.5,q),
(349,190,o),
(349,187,q),
(329,173,l),
(171,63,o),
(171,-50,q)
);
},
{
closed = 1;
nodes = (
(222,387,o),
(222,444,q),
(222,457,o),
(224,468,q),
(233,476,l),
(271,487,o),
(331,492,q),
(342,487,l),
(350,473,o),
(354.5,445.5,q),
(359,418,o),
(359,406.5,q),
(359,395,o),
(359,391,q),
(350,383,l),
(298,367,o),
(254,367,q),
(249,367,o),
(238,373,q)
);
}
);
width = 484;
}
);
unicode = 191;
},
{
category = Letter;
glyphname = Agrave;
layers = (
{
layerId = "826dc620-19a3-4a75-b922-e71bdb8ea4ca";
name = Fore;
shapes = (
{
closed = 1;
nodes = (
(361,237,o),
(294,237,q),
(227,237,o),
(186,236,q),
(153,122,o),
(147,95.5,q),
(141,69,o),
(141,22,q),
(141,0,l),
(-27,0,l),
(-27,22,l),
(25,58,o),
(102,288,q),
(179,518,o),
(203,592.5,q),
(227,667,o),
(231,700,q),
(385,715,l),
(385,677,o),
(451,497,q),
(574,161,o),
(622,84,q),
(645,45,o),
(674,22,q),
(674,0,l),
(462,0,l),
(462,22,l),
(462,64,o),
(399,236,q)
);
},
{
closed = 1;
nodes = (
(255,479,o),
(205,309,q),
(378,309,l),
(372,326,o),
(360,366,q),
(334,455,o),
(288,574,q)
);
},
{
closed = 1;
nodes = (
(421,751,l),
(288,762,o),
(155,811,q),
(169,884,o),
(213,918,q),
(259,883,o),
(323,848.5,q),
(387,814,o),
(438,798,q)
);
}
);
width = 643;
}
);
unicode = 192;
},
{
category = Letter;
glyphname = Aacute;
layers = (
{
layerId = "826dc620-19a3-4a75-b922-e71bdb8ea4ca";
name = Fore;
shapes = (
{
closed = 1;
nodes = (
(361,237,o),
(294,237,q),
(227,237,o),
(186,236,q),
(153,122,o),
(147,95.5,q),
(141,69,o),
(141,22,q),
(141,0,l),
(-27,0,l),
(-27,22,l),
(25,58,o),
(102,288,q),
(179,518,o),
(203,592.5,q),
(227,667,o),
(231,700,q),
(385,715,l),
(385,677,o),
(451,497,q),
(574,161,o),
(622,84,q),
(645,45,o),
(674,22,q),
(674,0,l),
(462,0,l),
(462,22,l),
(462,64,o),
(399,236,q)
);
},
{
closed = 1;
nodes = (
(255,479,o),
(205,309,q),
(378,309,l),
(372,326,o),
(360,366,q),
(334,455,o),
(288,574,q)
);
},
{
closed = 1;
nodes = (
(172,798,l),
(223,814,o),
(287,848.5,q),
(351,883,o),
(397,918,q),
(441,884,o),
(455,811,q),
(322,762,o),
(189,751,q)
);
}
);
width = 643;
}
);
unicode = 193;
},
{
category = Letter;
glyphname = Acircumflex;
layers = (
{
layerId = "826dc620-19a3-4a75-b922-e71bdb8ea4ca";
name = Fore;
shapes = (
{
closed = 1;
nodes = (
(361,237,o),
(294,237,q),
(227,237,o),
(186,236,q),
(153,122,o),
(147,95.5,q),
(141,69,o),
(141,22,q),
(141,0,l),
(-27,0,l),
(-27,22,l),
(25,58,o),
(102,288,q),
(179,518,o),
(203,592.5,q),
(227,667,o),
(231,700,q),
(385,715,l),
(385,677,o),
(451,497,q),
(574,161,o),
(622,84,q),
(645,45,o),
(674,22,q),
(674,0,l),
(462,0,l),
(462,22,l),
(462,64,o),
(399,236,q)
);
},
{
closed = 1;
nodes = (
(255,479,o),
(205,309,q),
(378,309,l),
(372,326,o),
(360,366,q),
(334,455,o),
(288,574,q)
);
},
{
closed = 1;
nodes = (
(359,920,l),
(385,867,o),
(434,822,q),
(451,806,o),
(484,778,q),
(442,733,l),
(369,777,o),
(316,836,q),
(270,789,o),
(202,738,q),
(159,782,l),
(246,858,o),
(279,920,q)
);
}
);
width = 643;
}
);
unicode = 194;
},
{
category = Letter;
glyphname = Atilde;
layers = (
{
layerId = "826dc620-19a3-4a75-b922-e71bdb8ea4ca";
name = Fore;
shapes = (
{
closed = 1;
nodes = (
(361,237,o),
(294,237,q),
(227,237,o),
(186,236,q),
(153,122,o),
(147,95.5,q),
(141,69,o),
(141,22,q),
(141,0,l),
(-27,0,l),
(-27,22,l),
(25,58,o),
(102,288,q),
(179,518,o),
(203,592.5,q),
(227,667,o),
(231,700,q),
(385,715,l),
(385,677,o),
(451,497,q),
(574,161,o),
(622,84,q),
(645,45,o),
(674,22,q),
(674,0,l),
(462,0,l),
(462,22,l),
(462,64,o),
(399,236,q)
);
},
{
closed = 1;
nodes = (
(255,479,o),
(205,309,q),
(378,309,l),
(372,326,o),
(360,366,q),
(334,455,o),
(288,574,q)
);
},
{
closed = 1;
nodes = (
(378,773,o),
(318.5,797,q),
(259,821,o),
(242.5,821,q),
(226,821,o),
(217.5,819,q),
(209,817,o),
(203.5,815,q),
(198,813,o),
(188.5,808,q),
(179,803,o),
(176,801,q),
(173,799,o),
(162.5,792.5,q),
(152,786,o),
(151,785,q),
(122,810,l),
(148,841,o),
(185.5,875,q),
(223,909,o),
(246,909,q),
(269,909,o),
(326.5,887.5,q),
(384,866,o),
(399,866,q),
(414,866,o),
(423,867.5,q),
(432,869,o),
(443.5,874,q),
(455,879,o),
(459.5,881,q),
(464,883,o),
(478,891,q),
(492,899,o),
(493,899,q),
(520,874,l),
(437,773,o),
(402,773,q)
);
}
);
width = 643;
}
);
unicode = 195;
},
{
category = Letter;
glyphname = Adieresis;
layers = (
{
layerId = "826dc620-19a3-4a75-b922-e71bdb8ea4ca";
name = Fore;
shapes = (
{
closed = 1;
nodes = (
(361,237,o),
(294,237,q),
(227,237,o),
(186,236,q),
(153,122,o),
(147,95.5,q),
(141,69,o),
(141,22,q),
(141,0,l),
(-27,0,l),
(-27,22,l),
(25,58,o),
(102,288,q),
(179,518,o),
(203,592.5,q),
(227,667,o),
(231,700,q),
(385,715,l),
(385,677,o),
(451,497,q),
(574,161,o),
(622,84,q),
(645,45,o),
(674,22,q),
(674,0,l),
(462,0,l),
(462,22,l),
(462,64,o),
(399,236,q)
);
},
{
closed = 1;
nodes = (
(255,479,o),
(205,309,q),
(378,309,l),
(372,326,o),
(360,366,q),
(334,455,o),
(288,574,q)
);
},
{
closed = 1;
nodes = (
(285,885,o),
(288.5,859,q),
(292,833,o),
(292,819,q),
(292,805,o),
(291,796,q),
(279,785,l),
(233,773,o),
(188,770,q),
(172,770,l),
(157,775,l),
(135,814,o),
(135,873,q),
(150,884,l),
(200,897,o),
(244,899,q),
(266,899,l),
(278,893,l)
);
},
{
closed = 1;
nodes = (
(499,896,o),
(502.5,870,q),
(506,844,o),
(506,830,q),
(506,816,o),
(505,807,q),
(493,796,l),
(447,784,o),
(402,781,q),
(386,781,l),
(371,786,l),
(349,825,o),
(349,884,q),
(364,895,l),
(414,908,o),
(458,910,q),
(480,910,l),
(492,904,l)
);
}
);
width = 643;
}
);
unicode = 196;
},
{
category = Letter;
glyphname = Aring;
layers = (
{
layerId = "826dc620-19a3-4a75-b922-e71bdb8ea4ca";
name = Fore;
shapes = (
{
closed = 1;
nodes = (
(407,746,o),
(372,714,q),
(375,715,l),
(375,677,o),
(441,497,q),
(564,161,o),
(612,84,q),
(635,45,o),
(664,22,q),
(664,0,l),
(452,0,l),
(452,22,l),
(452,64,o),
(389,236,q),
(351,237,o),
(284,237,q),
(217,237,o),
(176,236,q),
(143,122,o),
(137,95.5,q),
(131,69,o),
(131,22,q),
(131,0,l),
(-37,0,l),
(-37,22,l),
(15,58,o),
(92,288,q),
(169,518,o),
(193,592.5,q),
(217,667,o),
(221,700,q),
(224,700,l),
(176,731,o),
(176,781.5,q),
(176,832,o),
(211,864,q),
(246,896,o),
(294,896,q),
(343,896,o),
(375,866,q),
(407,836,o),
(407,791,q)
);
},
{
closed = 1;
nodes = (
(245,479,o),
(195,309,q),
(368,309,l),
(362,326,o),
(350,366,q),
(324,455,o),
(278,574,q)
);
},
{
closed = 1;
nodes = (
(313,743,o),
(329,750,q),
(340,761,o),
(340,788,q),
(340,839,o),
(288,839,q),
(268,839,o),
(254,831,q),
(243,820,o),
(243,798,q),
(243,743,o),
(296,743,q)
);
}
);
width = 595;
}
);
unicode = 197;
},
{
category = Letter;
glyphname = AE;
layers = (
{
layerId = "826dc620-19a3-4a75-b922-e71bdb8ea4ca";
name = Fore;
shapes = (
{
closed = 1;
nodes = (
(607,629,o),
(584,627,q),
(582,581,o),
(582,382,q),
(839,387,l),
(804,304,l),
(785,304,l),
(747,312,o),
(673.5,312,q),
(600,312,o),
(582,310,q),
(582,277,l),
(582,109,o),
(585,76,q),
(608,74,o),
(661.5,74,q),
(715,74,o),
(790,83,q),
(865,92,o),
(900,106,q),
(919,106,l),
(900,0,l),
(426,0,l),
(426,22,l),
(443,94,o),
(443,223,q),
(443,267,l),
(360,267,o),
(283,266,q),
(174,71,o),
(163,24,q),
(158,2,l),
(-10,2,l),
(-10,24,l),
(21,47,o),
(81.5,135,q),
(142,223,o),
(236,382,q),
(385,638,o),
(402,700,q),
(886,703,l),
(856,615,l),
(837,615,l),
(788,629,o),
(648,629,q)
);
},
{
closed = 1;
nodes = (
(443,476,l),
(443,516,o),
(440,556,q),
(375,447,o),
(319,339,q),
(443,339,l)
);
}
);
width = 947;
}
);
unicode = 198;
},
{
category = Letter;
glyphname = Ccedilla;
layers = (
{
layerId = "826dc620-19a3-4a75-b922-e71bdb8ea4ca";
name = Fore;
shapes = (
{
closed = 1;
nodes = (
(200,462,o),
(233.5,524,q),
(267,586,o),
(319,622,q),
(353,627,o),
(399.5,627,q),
(446,627,o),
(502,607.5,q),
(558,588,o),
(627,537,q),
(671,597,o),
(684,660,q),
(575,712,o),
(458,712,q),
(284,712,o),
(166.5,610,q),
(49,508,o),
(49,345,q),
(49,182,o),
(151,85,q),
(253,-12,o),
(398,-12,q),
(455,-12,o),
(512.5,6,q),
(570,24,o),
(597.5,39,q),
(625,54,o),
(700,103,q),
(663,157,l),
(521,85,o),
(443,85,q),
(339,85,o),
(269.5,161,q),
(200,237,o),
(200,375,q)
);
},
{
closed = 1;
nodes = (
(492,-102,o),
(492,-140,q),
(492,-178,o),
(457,-201,q),
(422,-224,o),
(384,-224,q),
(346,-224,o),
(310,-211,q),
(274,-198,o),
(259,-189,q),
(278,-148,l),
(310,-165,o),
(337.5,-165,q),
(365,-165,o),
(379.5,-156,q),
(394,-147,o),
(394,-132.5,q),
(394,-118,o),
(382,-109,q),
(368,-105,o),
(350,-105,q),
(332,-105,o),
(311,-109,q),
(298,-90,l),
(341,-2,l),
(417,-9,l),
(383,-63,l),
(393,-60,o),
(419.5,-60.5,q),
(446,-61,o),
(469,-81.5,q)
);
}
);
width = 728;
}
);
unicode = 199;
},
{
category = Letter;
glyphname = Egrave;
layers = (
{
layerId = "826dc620-19a3-4a75-b922-e71bdb8ea4ca";
name = Fore;
shapes = (
{
closed = 1;
nodes = (
(294,629,o),
(271,627,q),
(269,581,o),
(269,402,q),
(526,407,l),
(491,324,l),
(472,324,l),
(434,332,o),
(360.5,332,q),
(287,332,o),
(269,330,q),
(269,277,l),
(269,109,o),
(272,76,q),
(295,74,o),
(348.5,74,q),
(402,74,o),
(477,83,q),
(552,92,o),
(587,106,q),
(606,106,l),
(587,0,l),
(108,0,l),
(108,22,l),
(125,94,o),
(125,223,q),
(125,476,l),
(125,606,o),
(108,678,q),
(108,700,l),
(573,703,l),
(543,615,l),
(524,615,l),
(475,629,o),
(335,629,q)
);
},
{
closed = 1;
nodes = (
(407,722,l),
(294,778,o),
(185,874,q),
(222,927,o),
(285,949,q),
(345,846,o),
(444,761,q)
);
}
);
width = 634;
}
);
unicode = 200;
},
{
category = Letter;
glyphname = Eacute;
layers = (
{
layerId = "826dc620-19a3-4a75-b922-e71bdb8ea4ca";
name = Fore;
shapes = (
{
closed = 1;
nodes = (
(294,629,o),
(271,627,q),
(269,581,o),
(269,402,q),
(526,407,l),
(491,324,l),
(472,324,l),
(434,332,o),
(360.5,332,q),
(287,332,o),
(269,330,q),
(269,277,l),
(269,109,o),
(272,76,q),
(295,74,o),
(348.5,74,q),
(402,74,o),
(477,83,q),
(552,92,o),
(587,106,q),
(606,106,l),
(587,0,l),
(108,0,l),
(108,22,l),
(125,94,o),
(125,223,q),
(125,476,l),
(125,606,o),
(108,678,q),
(108,700,l),
(573,703,l),
(543,615,l),
(524,615,l),
(475,629,o),
(335,629,q)
);
},
{
closed = 1;
nodes = (
(335,779,o),
(222,723,q),
(185,762,l),
(285,847,o),
(345,949,q),
(408,927,o),
(444,875,q)
);
}
);
width = 634;
}
);
unicode = 201;
},
{
category = Letter;
glyphname = Ecircumflex;
layers = (
{
layerId = "826dc620-19a3-4a75-b922-e71bdb8ea4ca";
name = Fore;
shapes = (
{
closed = 1;
nodes = (
(294,629,o),
(271,627,q),
(269,581,o),
(269,402,q),
(526,407,l),
(491,324,l),
(472,324,l),
(434,332,o),
(360.5,332,q),
(287,332,o),
(269,330,q),
(269,277,l),
(269,109,o),
(272,76,q),
(295,74,o),
(348.5,74,q),
(402,74,o),
(477,83,q),
(552,92,o),
(587,106,q),
(606,106,l),
(587,0,l),
(108,0,l),
(108,22,l),
(125,94,o),
(125,223,q),
(125,476,l),
(125,606,o),
(108,678,q),
(108,700,l),
(573,703,l),
(543,615,l),
(524,615,l),
(475,629,o),
(335,629,q)
);
},
{
closed = 1;
nodes = (
(352,920,l),
(378,867,o),
(426,822,q),
(444,806,o),
(477,778,q),
(435,733,l),
(362,777,o),
(309,836,q),
(263,789,o),
(195,738,q),
(152,782,l),
(239,858,o),
(272,920,q)
);
}
);
width = 634;
}
);
unicode = 202;
},
{
category = Letter;
glyphname = Edieresis;
layers = (
{
layerId = "826dc620-19a3-4a75-b922-e71bdb8ea4ca";
name = Fore;
shapes = (
{
closed = 1;
nodes = (
(301,629,o),
(278,627,q),
(276,581,o),
(276,402,q),
(533,407,l),
(498,324,l),
(479,324,l),
(441,332,o),
(367.5,332,q),
(294,332,o),
(276,330,q),
(276,277,l),
(276,109,o),
(279,76,q),
(302,74,o),
(355.5,74,q),
(409,74,o),
(484,83,q),
(559,92,o),
(594,106,q),
(613,106,l),
(594,0,l),
(115,0,l),
(115,22,l),
(132,94,o),
(132,223,q),
(132,476,l),
(132,606,o),
(115,678,q),
(115,700,l),
(580,703,l),
(550,615,l),
(531,615,l),
(482,629,o),
(342,629,q)
);
},
{
closed = 1;
nodes = (
(285,885,o),
(288.5,859,q),
(292,833,o),
(292,819,q),
(292,805,o),
(291,796,q),
(279,785,l),
(233,773,o),
(188,770,q),
(172,770,l),
(157,775,l),
(135,814,o),
(135,873,q),
(150,884,l),
(200,897,o),
(244,899,q),
(266,899,l),
(278,893,l)
);
},
{
closed = 1;
nodes = (
(499,896,o),
(502.5,870,q),
(506,844,o),
(506,830,q),
(506,816,o),
(505,807,q),
(493,796,l),
(447,784,o),
(402,781,q),
(386,781,l),
(371,786,l),
(349,825,o),
(349,884,q),
(364,895,l),
(414,908,o),
(458,910,q),
(480,910,l),
(492,904,l)
);
}
);
width = 643;
}
);
unicode = 203;
},
{
category = Letter;
glyphname = Igrave;
layers = (
{
layerId = "826dc620-19a3-4a75-b922-e71bdb8ea4ca";
name = Fore;
shapes = (
{
closed = 1;
nodes = (
(273,230,l),
(273,82,o),
(289,22,q),
(289,0,l),
(115,0,l),
(115,22,l),
(131,82,o),
(131,230,q),
(131,479,l),
(131,618,o),
(115,678,q),
(115,700,l),
(289,700,l),
(289,678,l),
(282,655,o),
(277.5,581.5,q),
(273,508,o),
(273,469,q)
);
},
{
closed = 1;
nodes = (
(295,722,l),
(182,778,o),
(73,874,q),
(110,927,o),
(173,949,q),
(233,846,o),
(332,761,q)
);
}
);
width = 404;
}
);
unicode = 204;
},
{
category = Letter;
glyphname = Iacute;
layers = (
{
layerId = "826dc620-19a3-4a75-b922-e71bdb8ea4ca";
name = Fore;
shapes = (
{
closed = 1;
nodes = (
(273,230,l),
(273,82,o),
(289,22,q),
(289,0,l),
(115,0,l),
(115,22,l),
(131,82,o),
(131,230,q),
(131,479,l),
(131,618,o),
(115,678,q),
(115,700,l),
(289,700,l),
(289,678,l),
(282,655,o),
(277.5,581.5,q),
(273,508,o),
(273,469,q)
);
},
{
closed = 1;
nodes = (
(223,779,o),
(110,723,q),
(73,762,l),
(173,847,o),
(233,949,q),
(296,927,o),
(332,875,q)
);
}
);
width = 404;
}
);
unicode = 205;
},
{
category = Letter;
glyphname = Icircumflex;
layers = (
{
layerId = "826dc620-19a3-4a75-b922-e71bdb8ea4ca";
name = Fore;
shapes = (
{
closed = 1;
nodes = (
(273,230,l),
(273,82,o),
(289,22,q),
(289,0,l),
(115,0,l),
(115,22,l),
(131,82,o),
(131,230,q),
(131,479,l),
(131,618,o),
(115,678,q),
(115,700,l),
(289,700,l),
(289,678,l),
(282,655,o),
(277.5,581.5,q),
(273,508,o),
(273,469,q)
);
},
{
closed = 1;
nodes = (
(239,920,l),
(265,867,o),
(314,822,q),
(331,806,o),
(364,778,q),
(322,733,l),
(249,777,o),
(196,836,q),
(150,789,o),
(82,738,q),
(39,782,l),
(126,858,o),
(159,920,q)
);
}
);
width = 404;
}
);
unicode = 206;
},
{
category = Letter;
glyphname = Idieresis;
layers = (
{
layerId = "826dc620-19a3-4a75-b922-e71bdb8ea4ca";
name = Fore;
shapes = (
{
closed = 1;
nodes = (
(273,230,l),
(273,82,o),
(289,22,q),
(289,0,l),
(115,0,l),
(115,22,l),
(131,82,o),
(131,230,q),
(131,479,l),
(131,618,o),
(115,678,q),
(115,700,l),
(289,700,l),
(289,678,l),
(282,655,o),
(277.5,581.5,q),
(273,508,o),
(273,469,q)
);
},
{
closed = 1;
nodes = (
(166,885,o),
(169.5,859,q),
(173,833,o),
(173,819,q),
(173,805,o),
(172,796,q),
(160,785,l),
(114,773,o),
(69,770,q),
(53,770,l),
(38,775,l),
(16,814,o),
(16,873,q),
(31,884,l),
(81,897,o),
(125,899,q),
(147,899,l),
(159,893,l)
);
},
{
closed = 1;
nodes = (
(380,896,o),
(383.5,870,q),
(387,844,o),
(387,830,q),
(387,816,o),
(386,807,q),
(374,796,l),
(328,784,o),
(283,781,q),
(267,781,l),
(252,786,l),
(230,825,o),
(230,884,q),
(245,895,l),
(295,908,o),
(339,910,q),
(361,910,l),
(373,904,l)
);
}
);
width = 404;
}
);
unicode = 207;
},
{
category = Letter;
glyphname = Eth;
layers = (
{
layerId = "826dc620-19a3-4a75-b922-e71bdb8ea4ca";
name = Fore;
shapes = (
{
closed = 1;
nodes = (
(172,1,l),
(94,1,l),
(94,23,l),
(111,87,o),
(111,221,q),
(111,330,l),
(-11,325,l),
(23,402,l),
(37,402,l),
(85,402,o),
(111,401,q),
(111,479,l),
(111,614,o),
(94,678,q),
(94,700,l),
(138,698,o),
(172,698,q),
(371,701,l),
(569,701,o),
(665,620.5,q),
(761,540,o),
(761,373,q),
(761,270,o),
(724,188,q),
(687,106,o),
(616,59,q),
(528,0,o),
(375,0,q),
(356,0,l)
);
},
{
closed = 1;
nodes = (
(327,325,o),
(253,327,q),
(253,119,o),
(256,87,q),
(321,82,o),
(370,82,q),
(495,82,o),
(543,110,q),
(610,180,o),
(610,357,q),
(610,504,o),
(550.5,565.5,q),
(491,627,o),
(352,627,q),
(348,627,o),
(255,626,q),
(253,579,o),
(253,400,q),
(414,404,l),
(380,325,l),
(366,325,l)
);
}
);
width = 810;
}
);
unicode = 208;
},
{
category = Letter;
glyphname = Ntilde;
layers = (
{
layerId = "826dc620-19a3-4a75-b922-e71bdb8ea4ca";
name = Fore;
shapes = (
{
closed = 1;
nodes = (
(79,0,l),
(79,22,l),
(95,82,o),
(95,249,q),
(95,452,l),
(95,601,o),
(82,677,q),
(82,699,l),
(240,710,l),
(592,216,l),
(592,479,l),
(592,530,o),
(585,591.5,q),
(578,653,o),
(569,678,q),
(569,700,l),
(710,700,l),
(710,678,l),
(704,653,o),
(699,580.5,q),
(694,508,o),
(694,451,q),
(694,213,l),
(694,155,o),
(700,86,q),
(706,17,o),
(710,2,q),
(579,-11,l),
(197,524,l),
(197,220,l),
(197,94,o),
(216,22,q),
(216,0,l)
);
},
{
closed = 1;
nodes = (
(456,773,o),
(396.5,797,q),
(337,821,o),
(320.5,821,q),
(304,821,o),
(295.5,819,q),
(287,817,o),
(281.5,815,q),
(276,813,o),
(266.5,808,q),
(257,803,o),
(254,801,q),
(251,799,o),
(240.5,792.5,q),
(230,786,o),
(229,785,q),
(200,810,l),
(226,841,o),
(263.5,875,q),
(301,909,o),
(324,909,q),
(347,909,o),
(404.5,887.5,q),
(462,866,o),
(477,866,q),
(492,866,o),
(501,867.5,q),
(510,869,o),
(521.5,874,q),
(533,879,o),
(537.5,881,q),
(542,883,o),
(556,891,q),
(570,899,o),
(571,899,q),
(598,874,l),
(515,773,o),
(480,773,q)
);
}
);
width = 788;
}
);
unicode = 209;
},
{
category = Letter;
glyphname = Ograve;
layers = (
{
layerId = "826dc620-19a3-4a75-b922-e71bdb8ea4ca";
name = Fore;
shapes = (
{
closed = 1;
nodes = (
(49,190,o),
(49,344.5,q),
(49,499,o),
(156,606.5,q),
(263,714,o),
(429,714,q),
(595,714,o),
(685,614,q),
(775,514,o),
(775,368,q),
(775,203,o),
(667.5,95.5,q),
(560,-12,o),
(400,-12,q),
(240,-12,o),
(144.5,89,q)
);
},
{
closed = 1;
nodes = (
(624,424,o),
(604.5,486,q),
(585,548,o),
(533,589.5,q),
(481,631,o),
(399,631,q),
(362,631,o),
(324,622.5,q),
(286,614,o),
(269,604,q),
(239,573,o),
(219.5,509,q),
(200,445,o),
(200,374.5,q),
(200,304,o),
(212.5,253.5,q),
(225,203,o),
(251.5,160.5,q),
(278,118,o),
(325,93.5,q),
(372,69,o),
(438.5,69,q),
(505,69,o),
(555,97,q),
(624,163,o),
(624,341,q)
);
},
{
closed = 1;
nodes = (
(504,722,l),
(391,778,o),
(282,874,q),
(319,927,o),
(382,949,q),
(442,846,o),
(541,761,q)
);
}
);
width = 824;
}
);
unicode = 210;
},
{
category = Letter;
glyphname = Oacute;
layers = (
{
layerId = "826dc620-19a3-4a75-b922-e71bdb8ea4ca";
name = Fore;
shapes = (
{
closed = 1;
nodes = (
(49,190,o),
(49,344.5,q),
(49,499,o),
(156,606.5,q),
(263,714,o),
(429,714,q),
(595,714,o),
(685,614,q),
(775,514,o),
(775,368,q),
(775,203,o),
(667.5,95.5,q),
(560,-12,o),
(400,-12,q),
(240,-12,o),
(144.5,89,q)
);
},
{
closed = 1;
nodes = (
(624,424,o),
(604.5,486,q),
(585,548,o),
(533,589.5,q),
(481,631,o),
(399,631,q),
(362,631,o),
(324,622.5,q),
(286,614,o),
(269,604,q),
(239,573,o),
(219.5,509,q),
(200,445,o),
(200,374.5,q),
(200,304,o),
(212.5,253.5,q),
(225,203,o),
(251.5,160.5,q),
(278,118,o),
(325,93.5,q),
(372,69,o),
(438.5,69,q),
(505,69,o),
(555,97,q),
(624,163,o),
(624,341,q)
);
},
{
closed = 1;
nodes = (
(432,779,o),
(319,723,q),
(282,762,l),
(382,847,o),
(442,949,q),
(505,927,o),
(541,875,q)
);
}
);
width = 824;
}
);
unicode = 211;
},
{
category = Letter;
glyphname = Ocircumflex;
layers = (
{
layerId = "826dc620-19a3-4a75-b922-e71bdb8ea4ca";
name = Fore;
shapes = (
{
closed = 1;
nodes = (
(49,190,o),
(49,344.5,q),
(49,499,o),
(156,606.5,q),
(263,714,o),
(429,714,q),
(595,714,o),
(685,614,q),
(775,514,o),
(775,368,q),
(775,203,o),
(667.5,95.5,q),
(560,-12,o),
(400,-12,q),
(240,-12,o),
(144.5,89,q)
);
},
{
closed = 1;
nodes = (
(624,424,o),
(604.5,486,q),
(585,548,o),
(533,589.5,q),
(481,631,o),
(399,631,q),
(362,631,o),
(324,622.5,q),
(286,614,o),
(269,604,q),
(239,573,o),
(219.5,509,q),
(200,445,o),
(200,374.5,q),
(200,304,o),
(212.5,253.5,q),
(225,203,o),
(251.5,160.5,q),
(278,118,o),
(325,93.5,q),
(372,69,o),
(438.5,69,q),
(505,69,o),
(555,97,q),
(624,163,o),
(624,341,q)
);
},
{
closed = 1;
nodes = (
(449,920,l),
(475,867,o),
(524,822,q),
(541,806,o),
(574,778,q),
(532,733,l),
(459,777,o),
(406,836,q),
(360,789,o),
(292,738,q),
(249,782,l),
(336,858,o),
(369,920,q)
);
}
);
width = 824;
}
);
unicode = 212;
},
{
category = Letter;
glyphname = Otilde;
layers = (
{
layerId = "826dc620-19a3-4a75-b922-e71bdb8ea4ca";
name = Fore;
shapes = (
{
closed = 1;
nodes = (
(49,190,o),
(49,344.5,q),
(49,499,o),
(156,606.5,q),
(263,714,o),
(429,714,q),
(595,714,o),
(685,614,q),
(775,514,o),
(775,368,q),
(775,203,o),
(667.5,95.5,q),
(560,-12,o),
(400,-12,q),
(240,-12,o),
(144.5,89,q)
);
},
{
closed = 1;
nodes = (
(624,424,o),
(604.5,486,q),
(585,548,o),
(533,589.5,q),
(481,631,o),
(399,631,q),
(362,631,o),
(324,622.5,q),
(286,614,o),
(269,604,q),
(239,573,o),
(219.5,509,q),
(200,445,o),
(200,374.5,q),
(200,304,o),
(212.5,253.5,q),
(225,203,o),
(251.5,160.5,q),
(278,118,o),
(325,93.5,q),
(372,69,o),
(438.5,69,q),
(505,69,o),
(555,97,q),
(624,163,o),
(624,341,q)
);
},
{
closed = 1;
nodes = (
(468,773,o),
(408.5,797,q),
(349,821,o),
(332.5,821,q),
(316,821,o),
(307.5,819,q),
(299,817,o),
(293.5,815,q),
(288,813,o),
(278.5,808,q),
(269,803,o),
(266,801,q),
(263,799,o),
(252.5,792.5,q),
(242,786,o),
(241,785,q),
(212,810,l),
(238,841,o),
(275.5,875,q),
(313,909,o),
(336,909,q),
(359,909,o),
(416.5,887.5,q),
(474,866,o),
(489,866,q),
(504,866,o),
(513,867.5,q),
(522,869,o),
(533.5,874,q),
(545,879,o),
(549.5,881,q),
(554,883,o),
(568,891,q),
(582,899,o),
(583,899,q),
(610,874,l),
(527,773,o),
(492,773,q)
);
}
);
width = 823;
}
);
unicode = 213;
},
{
category = Letter;
glyphname = Odieresis;
layers = (
{
layerId = "826dc620-19a3-4a75-b922-e71bdb8ea4ca";
name = Fore;
shapes = (
{
closed = 1;
nodes = (
(49,190,o),
(49,344.5,q),
(49,499,o),
(156,606.5,q),
(263,714,o),
(429,714,q),
(595,714,o),
(685,614,q),
(775,514,o),
(775,368,q),
(775,203,o),
(667.5,95.5,q),
(560,-12,o),
(400,-12,q),
(240,-12,o),
(144.5,89,q)
);
},
{
closed = 1;
nodes = (
(624,424,o),
(604.5,486,q),
(585,548,o),
(533,589.5,q),
(481,631,o),
(399,631,q),
(362,631,o),
(324,622.5,q),
(286,614,o),
(269,604,q),
(239,573,o),
(219.5,509,q),
(200,445,o),
(200,374.5,q),
(200,304,o),
(212.5,253.5,q),
(225,203,o),
(251.5,160.5,q),
(278,118,o),
(325,93.5,q),
(372,69,o),
(438.5,69,q),
(505,69,o),
(555,97,q),
(624,163,o),
(624,341,q)
);
},
{
closed = 1;
nodes = (
(375,885,o),
(378.5,859,q),
(382,833,o),
(382,819,q),
(382,805,o),
(381,796,q),
(369,785,l),
(323,773,o),
(278,770,q),
(262,770,l),
(247,775,l),
(225,814,o),
(225,873,q),
(240,884,l),
(290,897,o),
(334,899,q),
(356,899,l),
(368,893,l)
);
},
{
closed = 1;
nodes = (
(589,896,o),
(592.5,870,q),
(596,844,o),
(596,830,q),
(596,816,o),
(595,807,q),
(583,796,l),
(537,784,o),
(492,781,q),
(476,781,l),
(461,786,l),
(439,825,o),
(439,884,q),
(454,895,l),
(504,908,o),
(548,910,q),
(570,910,l),
(582,904,l)
);
}
);
width = 823;
}
);
unicode = 214;
},
{
category = Letter;
glyphname = multiply;
layers = (
{
layerId = "826dc620-19a3-4a75-b922-e71bdb8ea4ca";
name = Fore;
shapes = (
{
closed = 1;
nodes = (
(233,300,l),
(72,450,l),
(146,520,l),
(306,368,l),
(465,520,l),
(538,449,l),
(378,299,l),
(513,175,o),
(540,149,q),
(467,79,l),
(305,231,l),
(283,210,o),
(146,79,q),
(72,150,l)
);
}
);
width = 612;
}
);
unicode = 215;
},
{
category = Letter;
glyphname = Oslash;
layers = (
{
layerId = "826dc620-19a3-4a75-b922-e71bdb8ea4ca";
name = Fore;
shapes = (
{
closed = 1;
nodes = (
(2,499,o),
(109,606.5,q),
(216,714,o),
(385,714,q),
(504,714,o),
(589,655,q),
(636,727,l),
(762,741,l),
(762,735,l),
(694,657,o),
(649,601,q),
(728,507,o),
(728,368,q),
(728,203,o),
(620.5,95.5,q),
(513,-12,o),
(351,-12,q),
(262,-12,o),
(191,22,q),
(153,-30,o),
(136,-59,q),
(5,-76,l),
(5,-70,l),
(42,-29,o),
(120,68,q),
(63,116,o),
(32.5,186.5,q),
(2,257,o),
(2,339,q)
);
},
{
closed = 1;
nodes = (
(315,631,o),
(277,622.5,q),
(239,614,o),
(222,604,q),
(192,573,o),
(172.5,509,q),
(153,445,o),
(153,364,q),
(153,243,o),
(200,166,q),
(426,439,o),
(518,559,q),
(459,631,o),
(352,631,q)
);
},
{
closed = 1;
nodes = (
(577,422,o),
(556,486,q),
(384,272,o),
(255,107,q),
(309,69,o),
(383.5,69,q),
(458,69,o),
(508,97,q),
(577,163,o),
(577,341,q)
);
}
);
width = 811;
}
);
unicode = 216;
},
{
category = Letter;
glyphname = Ugrave;
layers = (
{
layerId = "826dc620-19a3-4a75-b922-e71bdb8ea4ca";
name = Fore;
shapes = (
{
closed = 1;
nodes = (
(676,312,l),
(676,130,o),
(609.5,59.5,q),
(543,-11,o),
(386,-11,q),
(229,-11,o),
(159,57.5,q),
(89,126,o),
(89,277,q),
(89,475,l),
(89,624,o),
(73,678,q),
(73,700,l),
(245,700,l),
(245,678,l),
(231,588,o),
(231,445,q),
(231,322,l),
(231,221,o),
(243.5,178,q),
(256,135,o),
(274,116,q),
(315,71,o),
(399.5,71,q),
(484,71,o),
(525,97,q),
(551,136,o),
(558,204,q),
(565,272,o),
(565,434.5,q),
(565,597,o),
(549,678,q),
(549,700,l),
(692,700,l),
(692,679,l),
(685,656,o),
(680.5,591.5,q),
(676,527,o),
(676,491,q)
);
},
{
closed = 1;
nodes = (
(477,722,l),
(364,778,o),
(255,874,q),
(292,927,o),
(355,949,q),
(415,846,o),
(514,761,q)
);
}
);
width = 769;
}
);
unicode = 217;
},
{
category = Letter;
glyphname = Uacute;
layers = (
{
layerId = "826dc620-19a3-4a75-b922-e71bdb8ea4ca";
name = Fore;
shapes = (
{
closed = 1;
nodes = (
(676,312,l),
(676,130,o),
(609.5,59.5,q),
(543,-11,o),
(386,-11,q),
(229,-11,o),
(159,57.5,q),
(89,126,o),
(89,277,q),
(89,475,l),
(89,624,o),
(73,678,q),
(73,700,l),
(245,700,l),
(245,678,l),
(231,588,o),
(231,445,q),
(231,322,l),
(231,221,o),
(243.5,178,q),
(256,135,o),
(274,116,q),
(315,71,o),
(399.5,71,q),
(484,71,o),
(525,97,q),
(551,136,o),
(558,204,q),
(565,272,o),
(565,434.5,q),
(565,597,o),
(549,678,q),
(549,700,l),
(692,700,l),
(692,679,l),
(685,656,o),
(680.5,591.5,q),
(676,527,o),
(676,491,q)
);
},
{
closed = 1;
nodes = (
(405,779,o),
(292,723,q),
(255,762,l),
(355,847,o),
(415,949,q),
(478,927,o),
(514,875,q)
);
}
);
width = 769;
}
);
unicode = 218;
},
{
category = Letter;
glyphname = Ucircumflex;
layers = (
{
layerId = "826dc620-19a3-4a75-b922-e71bdb8ea4ca";
name = Fore;
shapes = (
{
closed = 1;
nodes = (
(676,312,l),
(676,130,o),
(609.5,59.5,q),
(543,-11,o),
(386,-11,q),
(229,-11,o),
(159,57.5,q),
(89,126,o),
(89,277,q),
(89,475,l),
(89,624,o),
(73,678,q),
(73,700,l),
(245,700,l),
(245,678,l),
(231,588,o),
(231,445,q),
(231,322,l),
(231,221,o),
(243.5,178,q),
(256,135,o),
(274,116,q),
(315,71,o),
(399.5,71,q),
(484,71,o),
(525,97,q),
(551,136,o),
(558,204,q),
(565,272,o),
(565,434.5,q),
(565,597,o),
(549,678,q),
(549,700,l),
(692,700,l),
(692,679,l),
(685,656,o),
(680.5,591.5,q),
(676,527,o),
(676,491,q)
);
},
{
closed = 1;
nodes = (
(422,920,l),
(448,867,o),
(496,822,q),
(514,806,o),
(547,778,q),
(505,733,l),
(432,777,o),
(379,836,q),
(333,789,o),
(265,738,q),
(222,782,l),
(309,858,o),
(342,920,q)
);
}
);
width = 769;
}
);
unicode = 219;
},
{
category = Letter;
glyphname = Udieresis;
layers = (
{
layerId = "826dc620-19a3-4a75-b922-e71bdb8ea4ca";
name = Fore;
shapes = (
{
closed = 1;
nodes = (
(676,312,l),
(676,130,o),
(609.5,59.5,q),
(543,-11,o),
(386,-11,q),
(229,-11,o),
(159,57.5,q),
(89,126,o),
(89,277,q),
(89,475,l),
(89,624,o),
(73,678,q),
(73,700,l),
(245,700,l),
(245,678,l),
(231,588,o),
(231,445,q),
(231,322,l),
(231,221,o),
(243.5,178,q),
(256,135,o),
(274,116,q),
(315,71,o),
(399.5,71,q),
(484,71,o),
(525,97,q),
(551,136,o),
(558,204,q),
(565,272,o),
(565,434.5,q),
(565,597,o),
(549,678,q),
(549,700,l),
(692,700,l),
(692,679,l),
(685,656,o),
(680.5,591.5,q),
(676,527,o),
(676,491,q)
);
},
{
closed = 1;
nodes = (
(348,885,o),
(351.5,859,q),
(355,833,o),
(355,819,q),
(355,805,o),
(354,796,q),
(342,785,l),
(296,773,o),
(251,770,q),
(235,770,l),
(220,775,l),
(198,814,o),
(198,873,q),
(213,884,l),
(263,897,o),
(307,899,q),
(329,899,l),
(341,893,l)
);
},
{
closed = 1;
nodes = (
(562,896,o),
(565.5,870,q),
(569,844,o),
(569,830,q),
(569,816,o),
(568,807,q),
(556,796,l),
(510,784,o),
(465,781,q),
(449,781,l),
(434,786,l),
(412,825,o),
(412,884,q),
(427,895,l),
(477,908,o),
(521,910,q),
(543,910,l),
(555,904,l)
);
}
);
width = 769;
}
);
unicode = 220;
},
{
category = Letter;
glyphname = Yacute;
layers = (
{
layerId = "826dc620-19a3-4a75-b922-e71bdb8ea4ca";
name = Fore;
shapes = (
{
closed = 1;
nodes = (
(361,184,o),
(365.5,114.5,q),
(370,45,o),
(376,22,q),
(376,0,l),
(214,0,l),
(214,22,l),
(229,79,o),
(229,194,q),
(229,294,l),
(131,476,l),
(92,547,o),
(51,608,q),
(10,669,o),
(-9,678,q),
(-9,700,l),
(176,700,l),
(176,678,l),
(176,638,o),
(213,563,q),
(250,488,o),
(310,380,q),
(394,550,o),
(413,600.5,q),
(432,651,o),
(432,678,q),
(432,700,l),
(577,700,l),
(577,678,l),
(541,653,o),
(489,556,q),
(460,502,o),
(361,292,q),
(361,220,l)
);
},
{
closed = 1;
nodes = (
(310,779,o),
(197,723,q),
(160,762,l),
(260,847,o),
(320,949,q),
(383,927,o),
(419,875,q)
);
}
);
width = 579;
}
);
unicode = 221;
},
{
category = Letter;
glyphname = Thorn;
layers = (
{
layerId = "826dc620-19a3-4a75-b922-e71bdb8ea4ca";
name = Fore;
shapes = (
{
closed = 1;
nodes = (
(302,176,o),
(266,182,q),
(271,58,o),
(279,22,q),
(279,0,l),
(108,0,l),
(108,22,l),
(123,79,o),
(123,223,q),
(123,477,l),
(123,621,o),
(108,678,q),
(108,700,l),
(279,700,l),
(279,678,l),
(275,663,o),
(270,606,q),
(294,607,o),
(350,607,q),
(491,607,o),
(564.5,562.5,q),
(638,518,o),
(638,409,q),
(638,300,o),
(552,238,q),
(466,176,o),
(334,176,q)
);
},
{
closed = 1;
nodes = (
(265,243,l),
(297,235,o),
(333,235,q),
(409,235,o),
(448.5,278.5,q),
(488,322,o),
(488,399,q),
(488,476,o),
(455,509,q),
(422,542,o),
(350,542,q),
(278,542,o),
(267,541,q),
(265,489,o),
(265,479,q)
);
}
);
width = 676;
}
);
unicode = 222;
},
{
category = Letter;
glyphname = germandbls;
layers = (
{
layerId = "826dc620-19a3-4a75-b922-e71bdb8ea4ca";
name = Fore;
shapes = (
{
closed = 1;
nodes = (
(300,353,o),
(300,384.5,q),
(300,416,o),
(313.5,443.5,q),
(327,471,o),
(340,484.5,q),
(353,498,o),
(373.5,514.5,q),
(394,531,o),
(402,538,q),
(425,560,o),
(425,589,q),
(425,651,o),
(329,651,q),
(294,651,o),
(275,639,q),
(256,615,o),
(256,526,q),
(256,-12,l),
(106,-12,l),
(106,10,l),
(124,57,o),
(124,168,q),
(124,383,l),
(88,383,o),
(35,380,q),
(69,460,l),
(124,457,l),
(124,491,l),
(124,596,o),
(194.5,665.5,q),
(265,735,o),
(371,735,q),
(375,735,l),
(450,734,o),
(497.5,700.5,q),
(545,667,o),
(545,597,q),
(545,570,o),
(532.5,547.5,q),
(520,525,o),
(508.5,514,q),
(497,503,o),
(475,487,q),
(453,471,o),
(444,462,q),
(416,436,o),
(416,399,q),
(416,367,o),
(442,347,q),
(463,331,o),
(497,314,q),
(531,297,o),
(549.5,285.5,q),
(568,274,o),
(592,254,q),
(638,213,o),
(638,140,q),
(638,67,o),
(587.5,23.5,q),
(537,-20,o),
(452,-22,q),
(446,-22,l),
(359,-22,o),
(295,25,q),
(296,81,o),
(329,139,q),
(352,111,o),
(392.5,85.5,q),
(433,60,o),
(459.5,60,q),
(486,60,o),
(498,66,q),
(510,78,o),
(510,135,q),
(510,168,o),
(484,190,q),
(463,206,o),
(430.5,224,q),
(398,242,o),
(380.5,253.5,q),
(363,265,o),
(342,284,q),
(321,303,o),
(310.5,328,q)
);
}
);
width = 664;
}
);
unicode = 223;
},
{
category = Letter;
glyphname = agrave;
layers = (
{
layerId = "826dc620-19a3-4a75-b922-e71bdb8ea4ca";
name = Fore;
shapes = (
{
closed = 1;
nodes = (
(301,69,o),
(338,115,q),
(338,200,l),
(302,213,o),
(258.5,213,q),
(215,213,o),
(192,197,q),
(177,178,o),
(177,147,q),
(177,69,o),
(245,69,q)
);
},
{
closed = 1;
nodes = (
(470,127,o),
(485,86,q),
(500,45,o),
(522,31,q),
(524,9,l),
(381,-21,l),
(365,9,o),
(351,63,q),
(325,35,o),
(309,21.5,q),
(293,8,o),
(264.5,-5,q),
(236,-18,o),
(204,-18,q),
(141,-18,o),
(93,20,q),
(45,58,o),
(45,130,q),
(45,269,o),
(248,269,q),
(337,265,l),
(337,326,l),
(337,378,o),
(311,410,q),
(285,442,o),
(231,442,q),
(219,442,o),
(197,427.5,q),
(175,413,o),
(102,340,q),
(52,399,o),
(48,459,q),
(176,499,o),
(264,499,q),
(352,499,o),
(411,458,q),
(470,417,o),
(470,329,q),
(470,172,l)
);
},
{
closed = 1;
nodes = (
(333,505,l),
(220,561,o),
(111,657,q),
(148,710,o),
(211,732,q),
(271,629,o),
(370,544,q)
);
}
);
width = 552;
}
);
unicode = 224;
},
{
category = Letter;
glyphname = aacute;
layers = (
{
layerId = "826dc620-19a3-4a75-b922-e71bdb8ea4ca";
name = Fore;
shapes = (
{
closed = 1;
nodes = (
(301,69,o),
(338,115,q),
(338,200,l),
(302,213,o),
(258.5,213,q),
(215,213,o),
(192,197,q),
(177,178,o),
(177,147,q),
(177,69,o),
(245,69,q)
);
},
{
closed = 1;
nodes = (
(470,127,o),
(485,86,q),
(500,45,o),
(522,31,q),
(524,9,l),
(381,-21,l),
(365,9,o),
(351,63,q),
(325,35,o),
(309,21.5,q),
(293,8,o),
(264.5,-5,q),
(236,-18,o),
(204,-18,q),
(141,-18,o),
(93,20,q),
(45,58,o),
(45,130,q),
(45,269,o),
(248,269,q),
(337,265,l),
(337,326,l),
(337,378,o),
(311,410,q),
(285,442,o),
(231,442,q),
(219,442,o),
(197,427.5,q),
(175,413,o),
(102,340,q),
(52,399,o),
(48,459,q),
(176,499,o),
(264,499,q),
(352,499,o),
(411,458,q),
(470,417,o),
(470,329,q),
(470,172,l)
);
},
{
closed = 1;
nodes = (
(347,562,o),
(234,506,q),
(197,545,l),
(297,630,o),
(357,732,q),
(420,710,o),
(456,658,q)
);
}
);
width = 552;
}
);
unicode = 225;
},
{
category = Letter;
glyphname = acircumflex;
layers = (
{
layerId = "826dc620-19a3-4a75-b922-e71bdb8ea4ca";
name = Fore;
shapes = (
{
closed = 1;
nodes = (
(301,69,o),
(338,115,q),
(338,200,l),
(302,213,o),
(258.5,213,q),
(215,213,o),
(192,197,q),
(177,178,o),
(177,147,q),
(177,69,o),
(245,69,q)
);
},
{
closed = 1;
nodes = (
(470,127,o),
(485,86,q),
(500,45,o),
(522,31,q),
(524,9,l),
(381,-21,l),
(365,9,o),
(351,63,q),
(325,35,o),
(309,21.5,q),
(293,8,o),
(264.5,-5,q),
(236,-18,o),
(204,-18,q),
(141,-18,o),
(93,20,q),
(45,58,o),
(45,130,q),
(45,269,o),
(248,269,q),
(337,265,l),
(337,326,l),
(337,378,o),
(311,410,q),
(285,442,o),
(231,442,q),
(219,442,o),
(197,427.5,q),
(175,413,o),
(102,340,q),
(52,399,o),
(48,459,q),
(176,499,o),
(264,499,q),
(352,499,o),
(411,458,q),
(470,417,o),
(470,329,q),
(470,172,l)
);
},
{
closed = 1;
nodes = (
(320,703,l),
(346,650,o),
(394,605,q),
(412,589,o),
(445,561,q),
(403,516,l),
(330,560,o),
(277,619,q),
(231,572,o),
(163,521,q),
(120,565,l),
(207,641,o),
(240,703,q)
);
}
);
width = 552;
}
);
unicode = 226;
},
{
category = Letter;
glyphname = atilde;
layers = (
{
layerId = "826dc620-19a3-4a75-b922-e71bdb8ea4ca";
name = Fore;
shapes = (
{
closed = 1;
nodes = (
(301,69,o),
(338,115,q),
(338,200,l),
(302,213,o),
(258.5,213,q),
(215,213,o),
(192,197,q),
(177,178,o),
(177,147,q),
(177,69,o),
(245,69,q)
);
},
{
closed = 1;
nodes = (
(470,127,o),
(485,86,q),
(500,45,o),
(522,31,q),
(524,9,l),
(381,-21,l),
(365,9,o),
(351,63,q),
(325,35,o),
(309,21.5,q),
(293,8,o),
(264.5,-5,q),
(236,-18,o),
(204,-18,q),
(141,-18,o),
(93,20,q),
(45,58,o),
(45,130,q),
(45,269,o),
(248,269,q),
(337,265,l),
(337,326,l),
(337,378,o),
(311,410,q),
(285,442,o),
(231,442,q),
(219,442,o),
(197,427.5,q),
(175,413,o),
(102,340,q),
(52,399,o),
(48,459,q),
(176,499,o),
(264,499,q),
(352,499,o),
(411,458,q),
(470,417,o),
(470,329,q),
(470,172,l)
);
},
{
closed = 1;
nodes = (
(341,556,o),
(281.5,580,q),
(222,604,o),
(205.5,604,q),
(189,604,o),
(180.5,602,q),
(172,600,o),
(166.5,598,q),
(161,596,o),
(151.5,591,q),
(142,586,o),
(139,584,q),
(136,582,o),
(125.5,575.5,q),
(115,569,o),
(114,568,q),
(85,593,l),
(111,624,o),
(148.5,658,q),
(186,692,o),
(209,692,q),
(232,692,o),
(289.5,670.5,q),
(347,649,o),
(362,649,q),
(377,649,o),
(386,650.5,q),
(395,652,o),
(406.5,657,q),
(418,662,o),
(422.5,664,q),
(427,666,o),
(441,674,q),
(455,682,o),
(456,682,q),
(483,657,l),
(400,556,o),
(365,556,q)
);
}
);
width = 552;
}
);
unicode = 227;
},
{
category = Letter;
glyphname = adieresis;
layers = (
{
layerId = "826dc620-19a3-4a75-b922-e71bdb8ea4ca";
name = Fore;
shapes = (
{
closed = 1;
nodes = (
(301,69,o),
(338,115,q),
(338,200,l),
(302,213,o),
(258.5,213,q),
(215,213,o),
(192,197,q),
(177,178,o),
(177,147,q),
(177,69,o),
(245,69,q)
);
},
{
closed = 1;
nodes = (
(470,127,o),
(485,86,q),
(500,45,o),
(522,31,q),
(524,9,l),
(381,-21,l),
(365,9,o),
(351,63,q),
(325,35,o),
(309,21.5,q),
(293,8,o),
(264.5,-5,q),
(236,-18,o),
(204,-18,q),
(141,-18,o),
(93,20,q),
(45,58,o),
(45,130,q),
(45,269,o),
(248,269,q),
(337,265,l),
(337,326,l),
(337,378,o),
(311,410,q),
(285,442,o),
(231,442,q),
(219,442,o),
(197,427.5,q),
(175,413,o),
(102,340,q),
(52,399,o),
(48,459,q),
(176,499,o),
(264,499,q),
(352,499,o),
(411,458,q),
(470,417,o),
(470,329,q),
(470,172,l)
);
},
{
closed = 1;
nodes = (
(248,668,o),
(251.5,642,q),
(255,616,o),
(255,602,q),
(255,588,o),
(254,579,q),
(242,568,l),
(196,556,o),
(151,553,q),
(135,553,l),
(120,558,l),
(98,597,o),
(98,656,q),
(113,667,l),
(163,680,o),
(207,682,q),
(229,682,l),
(241,676,l)
);
},
{
closed = 1;
nodes = (
(462,679,o),
(465.5,653,q),
(469,627,o),
(469,613,q),
(469,599,o),
(468,590,q),
(456,579,l),
(410,567,o),
(365,564,q),
(349,564,l),
(334,569,l),
(312,608,o),
(312,667,q),
(327,678,l),
(377,691,o),
(421,693,q),
(443,693,l),
(455,687,l)
);
}
);
width = 552;
}
);
unicode = 228;
},
{
category = Letter;
glyphname = aring;
layers = (
{
layerId = "826dc620-19a3-4a75-b922-e71bdb8ea4ca";
name = Fore;
shapes = (
{
closed = 1;
nodes = (
(301,69,o),
(338,115,q),
(338,200,l),
(302,213,o),
(258.5,213,q),
(215,213,o),
(192,197,q),
(177,178,o),
(177,147,q),
(177,69,o),
(245,69,q)
);
},
{
closed = 1;
nodes = (
(470,127,o),
(485,86,q),
(500,45,o),
(522,31,q),
(524,9,l),
(381,-21,l),
(365,9,o),
(351,63,q),
(325,35,o),
(309,21.5,q),
(293,8,o),
(264.5,-5,q),
(236,-18,o),
(204,-18,q),
(141,-18,o),
(93,20,q),
(45,58,o),
(45,130,q),
(45,269,o),
(248,269,q),
(337,265,l),
(337,326,l),
(337,378,o),
(311,410,q),
(285,442,o),
(231,442,q),
(219,442,o),
(197,427.5,q),
(175,413,o),
(102,340,q),
(52,399,o),
(48,459,q),
(176,499,o),
(264,499,q),
(352,499,o),
(411,458,q),
(470,417,o),
(470,329,q),
(470,172,l)
);
},
{
closed = 1;
nodes = (
(366,593,o),
(334,561,q),
(302,528,o),
(255.5,528,q),
(209,528,o),
(179.5,558.5,q),
(150,589,o),
(150,634.5,q),
(150,680,o),
(182.5,712,q),
(215,744,o),
(260,744,q),
(307,744,o),
(336.5,713.5,q),
(366,683,o),
(366,638,q)
);
},
{
closed = 1;
nodes = (
(281,594,o),
(292,601,q),
(302,613,o),
(302,633,q),
(302,678,o),
(255,678,q),
(236,678,o),
(225,671,q),
(215,661,o),
(215,643,q),
(215,594,o),
(262,594,q)
);
}
);
width = 552;
}
);
unicode = 229;
},
{
category = Letter;
glyphname = ae;
layers = (
{
layerId = "826dc620-19a3-4a75-b922-e71bdb8ea4ca";
name = Fore;
shapes = (
{
closed = 1;
nodes = (
(467,-19,o),
(400,53,q),
(313,-18,o),
(230.5,-18,q),
(148,-18,o),
(96.5,18.5,q),
(45,55,o),
(45,127,q),
(45,264,o),
(248,264,q),
(337,260,l),
(337,323,l),
(337,377,o),
(311,409.5,q),
(285,442,o),
(231,442,q),
(219,442,o),
(200,429.5,q),
(181,417,o),
(168,404,q),
(127,365,o),
(102,340,q),
(52,399,o),
(48,459,q),
(176,499,o),
(266,499,q),
(378,499,o),
(433,437,q),
(503,499,o),
(600.5,499,q),
(698,499,o),
(746,436,q),
(794,373,o),
(794,262,q),
(756,223,l),
(482,223,l),
(483,151,o),
(520.5,112,q),
(558,73,o),
(610.5,73,q),
(663,73,o),
(769,128,q),
(794,90,l),
(775,72,o),
(751,53,q),
(727,34,o),
(670.5,7.5,q),
(614,-19,o),
(563,-19,q)
);
},
{
closed = 1;
nodes = (
(540,435,o),
(518,420,q),
(502,395,o),
(493,354,q),
(484,313,o),
(483,281,q),
(658,291,l),
(658,435,o),
(577,435,q)
);
},
{
closed = 1;
nodes = (
(215,208,o),
(192,193,q),
(177,174,o),
(177,144,q),
(177,69,o),
(247,69,q),
(308,69,o),
(359,113,q),
(339,153,o),
(339,196,q),
(339,197,l),
(297,208,o),
(256,208,q)
);
}
);
width = 834;
}
);
unicode = 230;
},
{
category = Letter;
glyphname = ccedilla;
layers = (
{
layerId = "826dc620-19a3-4a75-b922-e71bdb8ea4ca";
name = Fore;
shapes = (
{
closed = 1;
nodes = (
(188,71,o),
(290,71,q),
(362,71,o),
(479,132,q),
(505,91,l),
(472,60,o),
(416.5,27.5,q),
(361,-5,o),
(315,-15,q),
(285,-63,l),
(295,-60,o),
(321.5,-60.5,q),
(348,-61,o),
(371,-81.5,q),
(394,-102,o),
(394,-140,q),
(394,-178,o),
(359,-201,q),
(324,-224,o),
(286,-224,q),
(248,-224,o),
(212,-211,q),
(176,-198,o),
(161,-189,q),
(180,-148,l),
(212,-165,o),
(239.5,-165,q),
(267,-165,o),
(281.5,-156,q),
(296,-147,o),
(296,-132.5,q),
(296,-118,o),
(284,-109,q),
(270,-105,o),
(252,-105,q),
(234,-105,o),
(213,-109,q),
(200,-90,l),
(237,-14,l),
(146,1,o),
(95,68,q),
(44,135,o),
(44,241.5,q),
(44,348,o),
(127,423.5,q),
(210,499,o),
(317,499,q),
(424,499,o),
(501,448,q),
(467,391,o),
(437,359,q),
(356,421,o),
(282,421,q),
(263,421,o),
(248,418,q),
(222,394,o),
(205,348,q),
(188,302,o),
(188,246,q)
);
}
);
width = 542;
}
);
unicode = 231;
},
{
category = Letter;
glyphname = egrave;
layers = (
{
layerId = "826dc620-19a3-4a75-b922-e71bdb8ea4ca";
name = Fore;
shapes = (
{
closed = 1;
nodes = (
(182,-19,o),
(113,46,q),
(44,111,o),
(44,221.5,q),
(44,332,o),
(117,415.5,q),
(190,499,o),
(306,499,q),
(404,499,o),
(452,436,q),
(500,373,o),
(500,262,q),
(462,223,l),
(188,223,l),
(189,151,o),
(226.5,112,q),
(264,73,o),
(316.5,73,q),
(369,73,o),
(475,128,q),
(500,90,l),
(481,72,o),
(457,53,q),
(433,34,o),
(376.5,7.5,q),
(320,-19,o),
(269,-19,q)
);
},
{
closed = 1;
nodes = (
(246,435,o),
(224,420,q),
(208,395,o),
(199,354,q),
(190,313,o),
(189,281,q),
(364,291,l),
(364,435,o),
(283,435,q)
);
},
{
closed = 1;
nodes = (
(321,505,l),
(208,561,o),
(99,657,q),
(136,710,o),
(199,732,q),
(259,629,o),
(358,544,q)
);
}
);
width = 540;
}
);
unicode = 232;
},
{
category = Letter;
glyphname = eacute;
layers = (
{
layerId = "826dc620-19a3-4a75-b922-e71bdb8ea4ca";
name = Fore;
shapes = (
{
closed = 1;
nodes = (
(182,-19,o),
(113,46,q),
(44,111,o),
(44,221.5,q),
(44,332,o),
(117,415.5,q),
(190,499,o),
(306,499,q),
(404,499,o),
(452,436,q),
(500,373,o),
(500,262,q),
(462,223,l),
(188,223,l),
(189,151,o),
(226.5,112,q),
(264,73,o),
(316.5,73,q),
(369,73,o),
(475,128,q),
(500,90,l),
(481,72,o),
(457,53,q),
(433,34,o),
(376.5,7.5,q),
(320,-19,o),
(269,-19,q)
);
},
{
closed = 1;
nodes = (
(246,435,o),
(224,420,q),
(208,395,o),
(199,354,q),
(190,313,o),
(189,281,q),
(364,291,l),
(364,435,o),
(283,435,q)
);
},
{
closed = 1;
nodes = (
(335,562,o),
(222,506,q),
(185,545,l),
(285,630,o),
(345,732,q),
(408,710,o),
(444,658,q)
);
}
);
width = 540;
}
);
unicode = 233;
},
{
category = Letter;
glyphname = ecircumflex;
layers = (
{
layerId = "826dc620-19a3-4a75-b922-e71bdb8ea4ca";
name = Fore;
shapes = (
{
closed = 1;
nodes = (
(182,-19,o),
(113,46,q),
(44,111,o),
(44,221.5,q),
(44,332,o),
(117,415.5,q),
(190,499,o),
(306,499,q),
(404,499,o),
(452,436,q),
(500,373,o),
(500,262,q),
(462,223,l),
(188,223,l),
(189,151,o),
(226.5,112,q),
(264,73,o),
(316.5,73,q),
(369,73,o),
(475,128,q),
(500,90,l),
(481,72,o),
(457,53,q),
(433,34,o),
(376.5,7.5,q),
(320,-19,o),
(269,-19,q)
);
},
{
closed = 1;
nodes = (
(246,435,o),
(224,420,q),
(208,395,o),
(199,354,q),
(190,313,o),
(189,281,q),
(364,291,l),
(364,435,o),
(283,435,q)
);
},
{
closed = 1;
nodes = (
(310,703,l),
(336,650,o),
(384,605,q),
(402,589,o),
(435,561,q),
(393,516,l),
(320,560,o),
(267,619,q),
(221,572,o),
(153,521,q),
(110,565,l),
(197,641,o),
(230,703,q)
);
}
);
width = 540;
}
);
unicode = 234;
},
{
category = Letter;
glyphname = edieresis;
layers = (
{
layerId = "826dc620-19a3-4a75-b922-e71bdb8ea4ca";
name = Fore;
shapes = (
{
closed = 1;
nodes = (
(182,-19,o),
(113,46,q),
(44,111,o),
(44,221.5,q),
(44,332,o),
(117,415.5,q),
(190,499,o),
(306,499,q),
(404,499,o),
(452,436,q),
(500,373,o),
(500,262,q),
(462,223,l),
(188,223,l),
(189,151,o),
(226.5,112,q),
(264,73,o),
(316.5,73,q),
(369,73,o),
(475,128,q),
(500,90,l),
(481,72,o),
(457,53,q),
(433,34,o),
(376.5,7.5,q),
(320,-19,o),
(269,-19,q)
);
},
{
closed = 1;
nodes = (
(246,435,o),
(224,420,q),
(208,395,o),
(199,354,q),
(190,313,o),
(189,281,q),
(364,291,l),
(364,435,o),
(283,435,q)
);
},
{
closed = 1;
nodes = (
(240,668,o),
(243.5,642,q),
(247,616,o),
(247,602,q),
(247,588,o),
(246,579,q),
(234,568,l),
(188,556,o),
(143,553,q),
(127,553,l),
(112,558,l),
(90,597,o),
(90,656,q),
(105,667,l),
(155,680,o),
(199,682,q),
(221,682,l),
(233,676,l)
);
},
{
closed = 1;
nodes = (
(454,679,o),
(457.5,653,q),
(461,627,o),
(461,613,q),
(461,599,o),
(460,590,q),
(448,579,l),
(402,567,o),
(357,564,q),
(341,564,l),
(326,569,l),
(304,608,o),
(304,667,q),
(319,678,l),
(369,691,o),
(413,693,q),
(435,693,l),
(447,687,l)
);
}
);
width = 540;
}
);
unicode = 235;
},
{
category = Letter;
glyphname = igrave;
layers = (
{
layerId = "826dc620-19a3-4a75-b922-e71bdb8ea4ca";
name = Fore;
shapes = (
{
closed = 1;
nodes = (
(226,84,o),
(255,22,q),
(255,0,l),
(77,0,l),
(77,22,l),
(94,73,o),
(94,157,q),
(94,305,l),
(94,360,o),
(77,396.5,q),
(60,433,o),
(34,447,q),
(34,469,l),
(220,503,l),
(232,483,l),
(226,460,o),
(226,393,q),
(226,179,l)
);
},
{
closed = 1;
nodes = (
(194,505,l),
(81,561,o),
(-28,657,q),
(9,710,o),
(72,732,q),
(132,629,o),
(231,544,q)
);
}
);
width = 335;
}
);
unicode = 236;
},
{
category = Letter;
glyphname = iacute;
layers = (
{
layerId = "826dc620-19a3-4a75-b922-e71bdb8ea4ca";
name = Fore;
shapes = (
{
closed = 1;
nodes = (
(259,84,o),
(288,22,q),
(288,0,l),
(110,0,l),
(110,22,l),
(127,73,o),
(127,157,q),
(127,305,l),
(127,360,o),
(110,396.5,q),
(93,433,o),
(67,447,q),
(67,469,l),
(253,503,l),
(265,483,l),
(259,460,o),
(259,393,q),
(259,179,l)
);
},
{
closed = 1;
nodes = (
(241,562,o),
(128,506,q),
(91,545,l),
(191,630,o),
(251,732,q),
(314,710,o),
(350,658,q)
);
}
);
width = 303;
}
);
unicode = 237;
},
{
category = Letter;
glyphname = icircumflex;
layers = (
{
layerId = "826dc620-19a3-4a75-b922-e71bdb8ea4ca";
name = Fore;
shapes = (
{
closed = 1;
nodes = (
(137,325,l),
(137,408,o),
(85,441,q),
(85,467,l),
(259,495,l),
(273,473,l),
(269,443,o),
(269,390,q),
(269,160,l),
(269,67,o),
(295,8,q),
(295,-12,l),
(121,-12,l),
(121,8,l),
(137,53,o),
(137,136,q)
);
},
{
closed = 1;
nodes = (
(220,725,l),
(233,690,o),
(255,656,q),
(277,622,o),
(292,604.5,q),
(307,587,o),
(341,550,q),
(287,499,l),
(260,520,o),
(222,556.5,q),
(184,593,o),
(162,620,q),
(118,567,o),
(55,506,q),
(2,551,l),
(35,585,o),
(50.5,602,q),
(66,619,o),
(87.5,650,q),
(109,681,o),
(121,711,q)
);
}
);
width = 397;
}
);
unicode = 238;
},
{
category = Letter;
glyphname = idieresis;
layers = (
{
layerId = "826dc620-19a3-4a75-b922-e71bdb8ea4ca";
name = Fore;
shapes = (
{
closed = 1;
nodes = (
(182,593,o),
(180,579,q),
(166,567,l),
(123,553,o),
(80,550,q),
(63,550,l),
(42,556,l),
(23,592,o),
(23,645,q),
(40,660,l),
(82,674,o),
(125,677,q),
(147,677,l),
(162,669,l),
(182,649,o),
(182,598,q)
);
},
{
closed = 1;
nodes = (
(358,595,o),
(357,587,q),
(343,575,l),
(298,562,o),
(256,559,q),
(239,559,l),
(219,564,l),
(200,599,o),
(200,655,q),
(217,669,l),
(259,683,o),
(301,685,q),
(323,685,l),
(339,678,l),
(358,659,o),
(358,606,q)
);
},
{
closed = 1;
nodes = (
(137,325,l),
(137,363,o),
(123,394,q),
(109,425,o),
(85,441,q),
(85,466,l),
(259,494,l),
(272,473,l),
(269,443,o),
(269,390,q),
(269,160,l),
(269,67,o),
(295,8,q),
(295,-12,l),
(121,-12,l),
(121,8,l),
(137,53,o),
(137,135,q)
);
}
);
width = 402;
}
);
unicode = 239;
},
{
category = Letter;
glyphname = eth;
layers = (
{
layerId = "826dc620-19a3-4a75-b922-e71bdb8ea4ca";
name = Fore;
shapes = (
{
closed = 1;
nodes = (
(417,-19,o),
(300.5,-19,q),
(184,-19,o),
(117.5,49,q),
(51,117,o),
(51,230,q),
(51,375,o),
(166,450,q),
(228,492,o),
(295,492,q),
(264,525,o),
(244,544,q),
(130,502,o),
(85,483,q),
(92,569,l),
(112,575,o),
(181,597,q),
(121,645,o),
(47,681,q),
(44,703,l),
(222,741,l),
(255,689,o),
(300,639,q),
(452,695,l),
(447,613,l),
(414,603,o),
(351,582,q),
(396,537,o),
(429,506.5,q),
(462,476,o),
(496,442,q),
(571,367,o),
(571,254,q),
(571,141,o),
(494,61,q)
);
},
{
closed = 1;
nodes = (
(427,325,o),
(399,379.5,q),
(371,434,o),
(301,434,q),
(256,434,o),
(231,412,q),
(215,389,o),
(205,343,q),
(195,297,o),
(195,254,q),
(195,45,o),
(328,45,q),
(368,45,o),
(393,66,q),
(410,89,o),
(418.5,136.5,q),
(427,184,o),
(427,228,q)
);
}
);
width = 615;
}
);
unicode = 240;
},
{
category = Letter;
glyphname = ntilde;
layers = (
{
layerId = "826dc620-19a3-4a75-b922-e71bdb8ea4ca";
name = Fore;
shapes = (
{
closed = 1;
nodes = (
(109,417,o),
(49,447,q),
(49,469,l),
(211,500,l),
(222,481,l),
(230,457,o),
(233,417,q),
(284,458,o),
(321.5,478.5,q),
(359,499,o),
(401,499,q),
(476,499,o),
(517,452.5,q),
(558,406,o),
(558,318,q),
(558,191,l),
(558,92,o),
(588,22,q),
(588,0,l),
(412,0,l),
(412,22,l),
(429,69,o),
(429,157,q),
(429,282,l),
(429,340,o),
(415,367.5,q),
(401,395,o),
(355,395,q),
(309,395,o),
(238,353,q),
(238,189,l),
(238,84,o),
(267,22,q),
(267,0,l),
(92,0,l),
(92,22,l),
(109,73,o),
(109,164,q),
(109,298,l)
);
},
{
closed = 1;
nodes = (
(377,556,o),
(317.5,580,q),
(258,604,o),
(241.5,604,q),
(225,604,o),
(216.5,602,q),
(208,600,o),
(202.5,598,q),
(197,596,o),
(187.5,591,q),
(178,586,o),
(175,584,q),
(172,582,o),
(161.5,575.5,q),
(151,569,o),
(150,568,q),
(121,593,l),
(147,624,o),
(184.5,658,q),
(222,692,o),
(245,692,q),
(268,692,o),
(325.5,670.5,q),
(383,649,o),
(398,649,q),
(413,649,o),
(422,650.5,q),
(431,652,o),
(442.5,657,q),
(454,662,o),
(458.5,664,q),
(463,666,o),
(477,674,q),
(491,682,o),
(492,682,q),
(519,657,l),
(436,556,o),
(401,556,q)
);
}
);
width = 643;
}
);
unicode = 241;
},
{
category = Letter;
glyphname = ograve;
layers = (
{
layerId = "826dc620-19a3-4a75-b922-e71bdb8ea4ca";
name = Fore;
shapes = (
{
closed = 1;
nodes = (
(44,117,o),
(44,228,q),
(44,339,o),
(121,418.5,q),
(198,498,o),
(317.5,498,q),
(437,498,o),
(500.5,431.5,q),
(564,365,o),
(564,253,q),
(564,141,o),
(487,61,q),
(410,-19,o),
(293.5,-19,q),
(177,-19,o),
(110.5,49,q)
);
},
{
closed = 1;
nodes = (
(420,325,o),
(392,379.5,q),
(364,434,o),
(294,434,q),
(249,434,o),
(224,412,q),
(208,389,o),
(198,343,q),
(188,297,o),
(188,254,q),
(188,45,o),
(321,45,q),
(361,45,o),
(386,66,q),
(403,89,o),
(411.5,136.5,q),
(420,184,o),
(420,228,q)
);
},
{
closed = 1;
nodes = (
(353,505,l),
(240,561,o),
(131,657,q),
(168,710,o),
(231,732,q),
(291,629,o),
(390,544,q)
);
}
);
width = 608;
}
);
unicode = 242;
},
{
category = Letter;
glyphname = oacute;
layers = (
{
layerId = "826dc620-19a3-4a75-b922-e71bdb8ea4ca";
name = Fore;
shapes = (
{
closed = 1;
nodes = (
(44,117,o),
(44,228,q),
(44,339,o),
(121,418.5,q),
(198,498,o),
(317.5,498,q),
(437,498,o),
(500.5,431.5,q),
(564,365,o),
(564,253,q),
(564,141,o),
(487,61,q),
(410,-19,o),
(293.5,-19,q),
(177,-19,o),
(110.5,49,q)
);
},
{
closed = 1;
nodes = (
(420,325,o),
(392,379.5,q),
(364,434,o),
(294,434,q),
(249,434,o),
(224,412,q),
(208,389,o),
(198,343,q),
(188,297,o),
(188,254,q),
(188,45,o),
(321,45,q),
(361,45,o),
(386,66,q),
(403,89,o),
(411.5,136.5,q),
(420,184,o),
(420,228,q)
);
},
{
closed = 1;
nodes = (
(367,562,o),
(254,506,q),
(217,545,l),
(317,630,o),
(377,732,q),
(440,710,o),
(476,658,q)
);
}
);
width = 608;
}
);
unicode = 243;
},
{
category = Letter;
glyphname = ocircumflex;
layers = (
{
layerId = "826dc620-19a3-4a75-b922-e71bdb8ea4ca";
name = Fore;
shapes = (
{
closed = 1;
nodes = (
(44,117,o),
(44,228,q),
(44,339,o),
(121,418.5,q),
(198,498,o),
(317.5,498,q),
(437,498,o),
(500.5,431.5,q),
(564,365,o),
(564,253,q),
(564,141,o),
(487,61,q),
(410,-19,o),
(293.5,-19,q),
(177,-19,o),
(110.5,49,q)
);
},
{
closed = 1;
nodes = (
(420,325,o),
(392,379.5,q),
(364,434,o),
(294,434,q),
(249,434,o),
(224,412,q),
(208,389,o),
(198,343,q),
(188,297,o),
(188,254,q),
(188,45,o),
(321,45,q),
(361,45,o),
(386,66,q),
(403,89,o),
(411.5,136.5,q),
(420,184,o),
(420,228,q)
);
},
{
closed = 1;
nodes = (
(341,703,l),
(367,650,o),
(416,605,q),
(433,589,o),
(466,561,q),
(424,516,l),
(351,560,o),
(298,619,q),
(252,572,o),
(184,521,q),
(141,565,l),
(228,641,o),
(261,703,q)
);
}
);
width = 608;
}
);
unicode = 244;
},
{
category = Letter;
glyphname = otilde;
layers = (
{
layerId = "826dc620-19a3-4a75-b922-e71bdb8ea4ca";
name = Fore;
shapes = (
{
closed = 1;
nodes = (
(44,117,o),
(44,228,q),
(44,339,o),
(121,418.5,q),
(198,498,o),
(317.5,498,q),
(437,498,o),
(500.5,431.5,q),
(564,365,o),
(564,253,q),
(564,141,o),
(487,61,q),
(410,-19,o),
(293.5,-19,q),
(177,-19,o),
(110.5,49,q)
);
},
{
closed = 1;
nodes = (
(420,325,o),
(392,379.5,q),
(364,434,o),
(294,434,q),
(249,434,o),
(224,412,q),
(208,389,o),
(198,343,q),
(188,297,o),
(188,254,q),
(188,45,o),
(321,45,q),
(361,45,o),
(386,66,q),
(403,89,o),
(411.5,136.5,q),
(420,184,o),
(420,228,q)
);
},
{
closed = 1;
nodes = (
(361,556,o),
(301.5,580,q),
(242,604,o),
(225.5,604,q),
(209,604,o),
(200.5,602,q),
(192,600,o),
(186.5,598,q),
(181,596,o),
(171.5,591,q),
(162,586,o),
(159,584,q),
(156,582,o),
(145.5,575.5,q),
(135,569,o),
(134,568,q),
(105,593,l),
(131,624,o),
(168.5,658,q),
(206,692,o),
(229,692,q),
(252,692,o),
(309.5,670.5,q),
(367,649,o),
(382,649,q),
(397,649,o),
(406,650.5,q),
(415,652,o),
(426.5,657,q),
(438,662,o),
(442.5,664,q),
(447,666,o),
(461,674,q),
(475,682,o),
(476,682,q),
(503,657,l),
(420,556,o),
(385,556,q)
);
}
);
width = 608;
}
);
unicode = 245;
},
{
category = Letter;
glyphname = odieresis;
layers = (
{
layerId = "826dc620-19a3-4a75-b922-e71bdb8ea4ca";
name = Fore;
shapes = (
{
closed = 1;
nodes = (
(44,117,o),
(44,228,q),
(44,339,o),
(121,418.5,q),
(198,498,o),
(317.5,498,q),
(437,498,o),
(500.5,431.5,q),
(564,365,o),
(564,253,q),
(564,141,o),
(487,61,q),
(410,-19,o),
(293.5,-19,q),
(177,-19,o),
(110.5,49,q)
);
},
{
closed = 1;
nodes = (
(420,325,o),
(392,379.5,q),
(364,434,o),
(294,434,q),
(249,434,o),
(224,412,q),
(208,389,o),
(198,343,q),
(188,297,o),
(188,254,q),
(188,45,o),
(321,45,q),
(361,45,o),
(386,66,q),
(403,89,o),
(411.5,136.5,q),
(420,184,o),
(420,228,q)
);
},
{
closed = 1;
nodes = (
(264,668,o),
(267.5,642,q),
(271,616,o),
(271,602,q),
(271,588,o),
(270,579,q),
(258,568,l),
(212,556,o),
(167,553,q),
(151,553,l),
(136,558,l),
(114,597,o),
(114,656,q),
(129,667,l),
(179,680,o),
(223,682,q),
(245,682,l),
(257,676,l)
);
},
{
closed = 1;
nodes = (
(478,679,o),
(481.5,653,q),
(485,627,o),
(485,613,q),
(485,599,o),
(484,590,q),
(472,579,l),
(426,567,o),
(381,564,q),
(365,564,l),
(350,569,l),
(328,608,o),
(328,667,q),
(343,678,l),
(393,691,o),
(437,693,q),
(459,693,l),
(471,687,l)
);
}
);
width = 608;
}
);
unicode = 246;
},
{
category = Letter;
glyphname = divide;
layers = (
{
layerId = "826dc620-19a3-4a75-b922-e71bdb8ea4ca";
name = Fore;
shapes = (
{
closed = 1;
nodes = (
(215,463,o),
(234,479.5,q),
(253,496,o),
(281.5,496,q),
(310,496,o),
(329,479.5,q),
(348,463,o),
(348,438,q),
(348,413,o),
(329,397,q),
(310,381,o),
(281,381,q),
(252,381,o),
(233.5,397,q),
(215,413,o),
(215,438,q)
);
},
{
closed = 1;
nodes = (
(215,139,o),
(215,163.5,q),
(215,188,o),
(234,204.5,q),
(253,221,o),
(281.5,221,q),
(310,221,o),
(329,204.5,q),
(348,188,o),
(348,163.5,q),
(348,139,o),
(328.5,122.5,q),
(309,106,o),
(281,106,q),
(253,106,o),
(234,122.5,q)
);
},
{
closed = 1;
nodes = (
(561,257,l),
(10,257,l),
(11,345,l),
(563,344,l)
);
}
);
width = 573;
}
);
unicode = 247;
},
{
category = Letter;
glyphname = oslash;
layers = (
{
layerId = "826dc620-19a3-4a75-b922-e71bdb8ea4ca";
name = Fore;
shapes = (
{
closed = 1;
nodes = (
(551,141,o),
(474,61,q),
(397,-19,o),
(283,-19,q),
(233,-19,o),
(189,-5,q),
(163,-57,o),
(155,-76,q),
(48,-94,l),
(50,-73,l),
(74,-42,o),
(120,29,q),
(31,97,o),
(31,230,q),
(31,339,o),
(108,418.5,q),
(185,498,o),
(299,498,q),
(343,498,o),
(379,489,q),
(393,515,o),
(412,559,q),
(505,567,l),
(503,545,l),
(481,515,o),
(449,462,q),
(551,400,o),
(551,250,q)
);
},
{
closed = 1;
nodes = (
(407,112,o),
(407,248,q),
(407,311,o),
(388,359,q),
(361,313,o),
(229,72,q),
(261,45,o),
(304.5,45,q),
(348,45,o),
(373,66,q)
);
},
{
closed = 1;
nodes = (
(175,297,o),
(175,243,q),
(175,189,o),
(188,143,q),
(238,229,o),
(336,409,q),
(341,419,l),
(314,434,o),
(275,434,q),
(236,434,o),
(211,412,q),
(195,389,o),
(185,343,q)
);
}
);
width = 594;
}
);
unicode = 248;
},
{
category = Letter;
glyphname = ugrave;
layers = (
{
layerId = "826dc620-19a3-4a75-b922-e71bdb8ea4ca";
name = Fore;
shapes = (
{
closed = 1;
nodes = (
(534,143,o),
(548.5,100,q),
(563,57,o),
(583,40,q),
(586,18,l),
(429,-22,l),
(408,14,o),
(405,59,q),
(319,-13,o),
(258,-13,q),
(156,-13,o),
(120.5,30.5,q),
(85,74,o),
(85,172,q),
(85,291,l),
(85,390,o),
(55,458,q),
(55,480,l),
(229,480,l),
(229,456,l),
(214,404,o),
(214,321,q),
(214,321,o),
(214,188,q),
(214,138,o),
(231,110.5,q),
(248,83,o),
(279,83,q),
(332,83,o),
(405,134,q),
(405,291,l),
(405,392,o),
(376,458,q),
(376,480,l),
(549,480,l),
(549,456,l),
(534,404,o),
(534,321,q),
(534,188,l)
);
},
{
closed = 1;
nodes = (
(369,505,l),
(256,561,o),
(147,657,q),
(184,710,o),
(247,732,q),
(307,629,o),
(406,544,q)
);
}
);
width = 640;
}
);
unicode = 249;
},
{
category = Letter;
glyphname = uacute;
layers = (
{
layerId = "826dc620-19a3-4a75-b922-e71bdb8ea4ca";
name = Fore;
shapes = (
{
closed = 1;
nodes = (
(534,143,o),
(548.5,100,q),
(563,57,o),
(583,40,q),
(586,18,l),
(429,-22,l),
(408,14,o),
(405,59,q),
(319,-13,o),
(258,-13,q),
(156,-13,o),
(120.5,30.5,q),
(85,74,o),
(85,172,q),
(85,291,l),
(85,390,o),
(55,458,q),
(55,480,l),
(229,480,l),
(229,456,l),
(214,404,o),
(214,321,q),
(214,321,o),
(214,188,q),
(214,138,o),
(231,110.5,q),
(248,83,o),
(279,83,q),
(332,83,o),
(405,134,q),
(405,291,l),
(405,392,o),
(376,458,q),
(376,480,l),
(549,480,l),
(549,456,l),
(534,404,o),
(534,321,q),
(534,188,l)
);
},
{
closed = 1;
nodes = (
(383,562,o),
(270,506,q),
(233,545,l),
(333,630,o),
(393,732,q),
(456,710,o),
(492,658,q)
);
}
);
width = 640;
}
);
unicode = 250;
},
{
category = Letter;
glyphname = ucircumflex;
layers = (
{
layerId = "826dc620-19a3-4a75-b922-e71bdb8ea4ca";
name = Fore;
shapes = (
{
closed = 1;
nodes = (
(534,143,o),
(548.5,100,q),
(563,57,o),
(583,40,q),
(586,18,l),
(429,-22,l),
(408,14,o),
(405,59,q),
(319,-13,o),
(258,-13,q),
(156,-13,o),
(120.5,30.5,q),
(85,74,o),
(85,172,q),
(85,291,l),
(85,390,o),
(55,458,q),
(55,480,l),
(229,480,l),
(229,456,l),
(214,404,o),
(214,321,q),
(214,321,o),
(214,188,q),
(214,138,o),
(231,110.5,q),
(248,83,o),
(279,83,q),
(332,83,o),
(405,134,q),
(405,291,l),
(405,392,o),
(376,458,q),
(376,480,l),
(549,480,l),
(549,456,l),
(534,404,o),
(534,321,q),
(534,188,l)
);
},
{
closed = 1;
nodes = (
(359,703,l),
(385,650,o),
(434,605,q),
(451,589,o),
(484,561,q),
(442,516,l),
(369,560,o),
(316,619,q),
(270,572,o),
(202,521,q),
(159,565,l),
(246,641,o),
(279,703,q)
);
}
);
width = 640;
}
);
unicode = 251;
},
{
category = Letter;
glyphname = udieresis;
layers = (
{
layerId = "826dc620-19a3-4a75-b922-e71bdb8ea4ca";
name = Fore;
shapes = (
{
closed = 1;
nodes = (
(534,143,o),
(548.5,100,q),
(563,57,o),
(583,40,q),
(586,18,l),
(429,-22,l),
(408,14,o),
(405,59,q),
(319,-13,o),
(258,-13,q),
(156,-13,o),
(120.5,30.5,q),
(85,74,o),
(85,172,q),
(85,291,l),
(85,390,o),
(55,458,q),
(55,480,l),
(229,480,l),
(229,456,l),
(214,404,o),
(214,321,q),
(214,321,o),
(214,188,q),
(214,138,o),
(231,110.5,q),
(248,83,o),
(279,83,q),
(332,83,o),
(405,134,q),
(405,291,l),
(405,392,o),
(376,458,q),
(376,480,l),
(549,480,l),
(549,456,l),
(534,404,o),
(534,321,q),
(534,188,l)
);
},
{
closed = 1;
nodes = (
(265,668,o),
(268.5,642,q),
(272,616,o),
(272,602,q),
(272,588,o),
(271,579,q),
(259,568,l),
(213,556,o),
(168,553,q),
(152,553,l),
(137,558,l),
(115,597,o),
(115,656,q),
(130,667,l),
(180,680,o),
(224,682,q),
(246,682,l),
(258,676,l)
);
},
{
closed = 1;
nodes = (
(479,679,o),
(482.5,653,q),
(486,627,o),
(486,613,q),
(486,599,o),
(485,590,q),
(473,579,l),
(427,567,o),
(382,564,q),
(366,564,l),
(351,569,l),
(329,608,o),
(329,667,q),
(344,678,l),
(394,691,o),
(438,693,q),
(460,693,l),
(472,687,l)
);
}
);
width = 640;
}
);
unicode = 252;
},
{
category = Letter;
glyphname = yacute;
layers = (
{
layerId = "826dc620-19a3-4a75-b922-e71bdb8ea4ca";
name = Fore;
shapes = (
{
closed = 1;
nodes = (
(166,431,o),
(201,338,q),
(279,129,l),
(363,388,o),
(363,436,q),
(363,438,l),
(363,453,o),
(358,464,q),
(358,486,l),
(503,486,l),
(503,464,l),
(490,450,o),
(462.5,376,q),
(435,302,o),
(343.5,41.5,q),
(252,-219,o),
(249,-228,q),
(249,-246,l),
(87,-255,l),
(84,-233,l),
(112,-199,o),
(130,-174,q),
(179,-105,o),
(216,-9,q),
(73,320,l),
(24,434,o),
(-7,460,q),
(-7,482,l),
(166,493,l),
(166,479,l)
);
},
{
closed = 1;
nodes = (
(311,562,o),
(198,506,q),
(161,545,l),
(261,630,o),
(321,732,q),
(384,710,o),
(420,658,q)
);
}
);
width = 503;
}
);
unicode = 253;
},
{
category = Letter;
glyphname = thorn;
layers = (
{
layerId = "826dc620-19a3-4a75-b922-e71bdb8ea4ca";
name = Fore;
shapes = (
{
closed = 1;
nodes = (
(226,434,l),
(293,501,o),
(366,501,q),
(467,501,o),
(529.5,434,q),
(592,367,o),
(592,271,q),
(592,152,o),
(508,68,q),
(424,-16,o),
(317,-16,q),
(279,-16,o),
(233,-8,q),
(233,-55,l),
(233,-168,o),
(276,-217,q),
(276,-239,l),
(96,-257,l),
(101,-208,o),
(101,-100,q),
(99,572,l),
(99,648,o),
(50,690,q),
(50,714,l),
(215,741,l),
(229,719,l),
(226,689,o),
(226,636,q)
);
},
{
closed = 1;
nodes = (
(380,61,o),
(400,66,q),
(424,96,o),
(436,151.5,q),
(448,207,o),
(448,252,q),
(448,410,o),
(365,410,q),
(305,410,o),
(233,365,q),
(233,92,l),
(298,61,o),
(356,61,q)
);
}
);
width = 637;
}
);
unicode = 254;
},
{
category = Letter;
glyphname = ydieresis;
layers = (
{
layerId = "826dc620-19a3-4a75-b922-e71bdb8ea4ca";
name = Fore;
shapes = (
{
closed = 1;
nodes = (
(175,431,o),
(210,338,q),
(288,129,l),
(372,388,o),
(372,436,q),
(372,438,l),
(372,453,o),
(367,464,q),
(367,486,l),
(512,486,l),
(512,464,l),
(499,450,o),
(471.5,376,q),
(444,302,o),
(352.5,41.5,q),
(261,-219,o),
(258,-228,q),
(258,-246,l),
(96,-255,l),
(93,-233,l),
(121,-199,o),
(138,-174,q),
(188,-105,o),
(225,-9,q),
(82,320,l),
(33,434,o),
(2,460,q),
(2,482,l),
(175,493,l),
(175,479,l)
);
},
{
closed = 1;
nodes = (
(229,668,o),
(232.5,642,q),
(236,616,o),
(236,602,q),
(236,588,o),
(235,579,q),
(223,568,l),
(177,556,o),
(132,553,q),
(116,553,l),
(101,558,l),
(79,597,o),
(79,656,q),
(94,667,l),
(144,680,o),
(188,682,q),
(210,682,l),
(222,676,l)
);
},
{
closed = 1;
nodes = (
(443,679,o),
(446.5,653,q),
(450,627,o),
(450,613,q),
(450,599,o),
(449,590,q),
(437,579,l),
(391,567,o),
(346,564,q),
(330,564,l),
(315,569,l),
(293,608,o),
(293,667,q),
(308,678,l),
(358,691,o),
(402,693,q),
(424,693,l),
(436,687,l)
);
}
);
width = 542;
}
);
unicode = 255;
},
{
category = Letter;
glyphname = hbar;
layers = (
{
layerId = "826dc620-19a3-4a75-b922-e71bdb8ea4ca";
name = Fore;
shapes = (
{
closed = 1;
nodes = (
(203,616,l),
(212,616,o),
(246,617,q),
(348,620,o),
(391,620,q),
(354,534,l),
(340,534,l),
(337,534,o),
(312,536,q),
(237,540,o),
(124,540,q),
(-37,534,l),
(0,618,l),
(14,618,l)
);
},
{
closed = 1;
nodes = (
(224,75,o),
(249,22,q),
(249,0,l),
(78,0,l),
(78,22,l),
(95,77,o),
(95,167,q),
(95,560,l),
(95,646,o),
(50,689,q),
(50,711,l),
(215,746,l),
(227,724,l),
(224,696,o),
(224,528,q),
(224,418,l),
(276,459,o),
(314,479,q),
(352,499,o),
(396,499,q),
(476,499,o),
(519,452.5,q),
(562,406,o),
(562,318,q),
(562,191,l),
(562,92,o),
(592,22,q),
(592,0,l),
(416,0,l),
(416,22,l),
(433,69,o),
(433,157,q),
(433,282,l),
(433,341,o),
(417.5,368,q),
(402,395,o),
(351.5,395,q),
(301,395,o),
(224,353,q),
(224,188,l)
);
}
);
width = 647;
}
);
unicode = 295;
},
{
category = Letter;
glyphname = Itilde;
layers = (
{
layerId = "826dc620-19a3-4a75-b922-e71bdb8ea4ca";
name = Fore;
shapes = (
{
closed = 1;
nodes = (
(273,230,l),
(273,82,o),
(289,22,q),
(289,0,l),
(115,0,l),
(115,22,l),
(131,82,o),
(131,230,q),
(131,479,l),
(131,618,o),
(115,678,q),
(115,700,l),
(289,700,l),
(289,678,l),
(282,655,o),
(277.5,581.5,q),
(273,508,o),
(273,469,q)
);
},
{
closed = 1;
nodes = (
(259,773,o),
(199.5,797,q),
(140,821,o),
(123.5,821,q),
(107,821,o),
(98.5,819,q),
(90,817,o),
(84.5,815,q),
(79,813,o),
(69.5,808,q),
(60,803,o),
(57,801,q),
(54,799,o),
(43.5,792.5,q),
(33,786,o),
(32,785,q),
(3,810,l),
(29,841,o),
(66.5,875,q),
(104,909,o),
(127,909,q),
(150,909,o),
(207.5,887.5,q),
(265,866,o),
(280,866,q),
(295,866,o),
(304,867.5,q),
(313,869,o),
(324.5,874,q),
(336,879,o),
(340.5,881,q),
(345,883,o),
(359,891,q),
(373,899,o),
(374,899,q),
(401,874,l),
(318,773,o),
(283,773,q)
);
}
);
width = 404;
}
);
unicode = 296;
},
{
category = Letter;
glyphname = itilde;
layers = (
{
layerId = "826dc620-19a3-4a75-b922-e71bdb8ea4ca";
name = Fore;
shapes = (
{
closed = 1;
nodes = (
(326,84,o),
(355,22,q),
(355,0,l),
(177,0,l),
(177,22,l),
(194,73,o),
(194,157,q),
(194,305,l),
(194,360,o),
(177,396.5,q),
(160,433,o),
(134,447,q),
(134,469,l),
(320,503,l),
(332,483,l),
(326,460,o),
(326,393,q),
(326,179,l)
);
},
{
closed = 1;
nodes = (
(303,556,o),
(243.5,580,q),
(184,604,o),
(167.5,604,q),
(151,604,o),
(142.5,602,q),
(134,600,o),
(128.5,598,q),
(123,596,o),
(113.5,591,q),
(104,586,o),
(101,584,q),
(98,582,o),
(87.5,575.5,q),
(77,569,o),
(76,568,q),
(47,593,l),
(73,624,o),
(110.5,658,q),
(148,692,o),
(171,692,q),
(194,692,o),
(251.5,670.5,q),
(309,649,o),
(324,649,q),
(339,649,o),
(348,650.5,q),
(357,652,o),
(368.5,657,q),
(380,662,o),
(384.5,664,q),
(389,666,o),
(403,674,q),
(417,682,o),
(418,682,q),
(445,657,l),
(362,556,o),
(327,556,q)
);
}
);
width = 494;
}
);
unicode = 297;
},
{
category = Letter;
glyphname = dotlessi;
layers = (
{
layerId = "826dc620-19a3-4a75-b922-e71bdb8ea4ca";
name = Fore;
shapes = (
{
closed = 1;
nodes = (
(239,179,l),
(239,84,o),
(268,22,q),
(268,0,l),
(90,0,l),
(90,22,l),
(107,73,o),
(107,157,q),
(107,305,l),
(107,360,o),
(90,396.5,q),
(73,433,o),
(47,447,q),
(47,469,l),
(233,503,l),
(245,483,l),
(239,460,o),
(239,393,q)
);
}
);
width = 317;
}
);
unicode = 305;
},
{
category = Letter;
glyphname = IJ;
layers = (
{
layerId = "826dc620-19a3-4a75-b922-e71bdb8ea4ca";
name = Fore;
shapes = (
{
closed = 1;
nodes = (
(273,230,l),
(273,82,o),
(289,22,q),
(289,0,l),
(115,0,l),
(115,22,l),
(131,82,o),
(131,230,q),
(131,479,l),
(131,618,o),
(115,678,q),
(115,700,l),
(289,700,l),
(289,678,l),
(282,655,o),
(277.5,581.5,q),
(273,508,o),
(273,469,q)
);
},
{
closed = 1;
nodes = (
(544,479,l),
(544,626,o),
(526,678,q),
(526,700,l),
(702,700,l),
(702,678,l),
(695,655,o),
(690.5,581.5,q),
(686,508,o),
(686,469,q),
(686,161,l),
(686,63,o),
(672,20.5,q),
(658,-22,o),
(650.5,-44.5,q),
(643,-67,o),
(623.5,-91.5,q),
(604,-116,o),
(595,-128,q),
(586,-140,o),
(559,-162,q),
(532,-184,o),
(524,-190,q),
(444,-248,l),
(391,-200,l),
(414,-184,o),
(447,-157,q),
(507,-106,o),
(525.5,-34,q),
(544,38,o),
(544,203,q)
);
}
);
width = 810;
}
);
unicode = 306;
},
{
category = Letter;
glyphname = ij;
layers = (
{
layerId = "826dc620-19a3-4a75-b922-e71bdb8ea4ca";
name = Fore;
shapes = (
{
closed = 1;
nodes = (
(229,709,o),
(232.5,683,q),
(236,657,o),
(236,643,q),
(236,629,o),
(234,618,q),
(225,610,l),
(181,597,o),
(110,592,q),
(99,597,l),
(91,610,o),
(86.5,640,q),
(82,670,o),
(82,681.5,q),
(82,693,o),
(82,697,q),
(91,705,l),
(145,723,o),
(198,723,q),
(209,723,l),
(220,717,l)
);
},
{
closed = 1;
nodes = (
(239,179,l),
(239,84,o),
(268,22,q),
(268,0,l),
(93,0,l),
(93,22,l),
(110,73,o),
(110,157,q),
(110,305,l),
(110,360,o),
(93,396.5,q),
(76,433,o),
(50,447,q),
(50,469,l),
(233,503,l),
(245,483,l),
(239,460,o),
(239,393,q)
);
},
{
closed = 1;
nodes = (
(537,114,l),
(537,-43,o),
(480,-122,q),
(458,-151,o),
(445,-164,q),
(431,-178,o),
(353,-250,q),
(305,-203,l),
(334,-179,o),
(346,-164,q),
(379,-127,o),
(393.5,-60,q),
(408,7,o),
(408,152,q),
(408,302,l),
(408,357,o),
(387.5,396,q),
(367,435,o),
(341,447,q),
(341,469,l),
(531,503,l),
(543,483,l),
(537,456,o),
(537,384,q)
);
},
{
closed = 1;
nodes = (
(528,709,o),
(531.5,683,q),
(535,657,o),
(535,643,q),
(535,629,o),
(533,618,q),
(524,610,l),
(480,597,o),
(409,592,q),
(398,597,l),
(390,610,o),
(385.5,640,q),
(381,670,o),
(381,681.5,q),
(381,693,o),
(381,697,q),
(390,705,l),
(444,723,o),
(497,723,q),
(508,723,l),
(519,717,l)
);
}
);
width = 603;
}
);
unicode = 307;
},
{
category = Letter;
glyphname = Jcircumflex;
layers = (
{
layerId = "826dc620-19a3-4a75-b922-e71bdb8ea4ca";
name = Fore;
shapes = (
{
closed = 1;
nodes = (
(140,479,l),
(140,626,o),
(122,678,q),
(122,700,l),
(298,700,l),
(298,678,l),
(291,655,o),
(286.5,581.5,q),
(282,508,o),
(282,469,q),
(282,161,l),
(282,63,o),
(268,20.5,q),
(254,-22,o),
(246.5,-44.5,q),
(239,-67,o),
(219.5,-91.5,q),
(200,-116,o),
(191,-128,q),
(182,-140,o),
(155,-162,q),
(128,-184,o),
(120,-190,q),
(40,-248,l),
(-13,-200,l),
(10,-184,o),
(43,-157,q),
(103,-106,o),
(121.5,-34,q),
(140,38,o),
(140,203,q)
);
},
{
closed = 1;
nodes = (
(240,920,l),
(266,867,o),
(314,822,q),
(332,806,o),
(365,778,q),
(323,733,l),
(250,777,o),
(197,836,q),
(151,789,o),
(83,738,q),
(40,782,l),
(127,858,o),
(160,920,q)
);
}
);
width = 406;
}
);
unicode = 308;
},
{
category = Letter;
glyphname = jcircumflex;
layers = (
{
layerId = "826dc620-19a3-4a75-b922-e71bdb8ea4ca";
name = Fore;
shapes = (
{
closed = 1;
nodes = (
(211,11,o),
(185,-64,q),
(175,-92,o),
(153.5,-121.5,q),
(132,-151,o),
(118,-165.5,q),
(104,-180,o),
(27,-250,q),
(-21,-203,l),
(8,-179,o),
(20,-164,q),
(53,-127,o),
(67.5,-60,q),
(82,7,o),
(82,152,q),
(82,302,l),
(82,357,o),
(61.5,396,q),
(41,435,o),
(15,447,q),
(15,469,l),
(205,503,l),
(217,483,l),
(211,456,o),
(211,384,q),
(211,114,l)
);
},
{
closed = 1;
nodes = (
(157,703,l),
(183,650,o),
(232,605,q),
(249,589,o),
(282,561,q),
(240,516,l),
(167,560,o),
(114,619,q),
(68,572,o),
(0,521,q),
(-43,565,l),
(44,641,o),
(77,703,q)
);
}
);
width = 277;
}
);
unicode = 309;
},
{
category = Letter;
glyphname = kcommaaccent;
layers = (
{
layerId = "826dc620-19a3-4a75-b922-e71bdb8ea4ca";
name = Fore;
shapes = (
{
closed = 1;
nodes = (
(384,-56,o),
(384,-91,q),
(384,-126,o),
(360,-161,q),
(336,-196,o),
(291,-236,q),
(248,-218,l),
(269,-177,o),
(274.5,-156,q),
(280,-135,o),
(280,-104,q),
(280,-73,o),
(263,-43,q),
(265,-37,o),
(270,-34,q),
(284,-29,o),
(312,-25.5,q),
(340,-22,o),
(350,-22,q),
(360,-22,o),
(364,-23,q),
(374,-30,l)
);
},
{
closed = 1;
nodes = (
(79,0,l),
(79,22,l),
(95,71,o),
(95,167,q),
(95,560,l),
(95,646,o),
(50,689,q),
(50,711,l),
(215,746,l),
(227,724,l),
(224,696,o),
(224,529,q),
(224,335,l),
(374,449,l),
(397,467,o),
(397,486,q),
(554,486,l),
(554,464,l),
(516,459,o),
(449,405,q),
(308,292,l),
(488,99,l),
(504,82,o),
(539.5,54.5,q),
(575,27,o),
(598,22,q),
(598,0,l),
(408,0,l),
(408,19,o),
(388,40,q),
(361,73,o),
(224,224,q),
(224,179,l),
(224,70,o),
(241,22,q),
(241,0,l)
);
}
);
width = 583;
}
);
unicode = 311;
},
{
category = Letter;
glyphname = kgreenlandic;
layers = (
{
layerId = "826dc620-19a3-4a75-b922-e71bdb8ea4ca";
name = Fore;
shapes = (
{
closed = 1;
nodes = (
(241,84,o),
(270,22,q),
(270,0,l),
(92,0,l),
(92,22,l),
(109,73,o),
(109,164,q),
(109,298,l),
(109,417,o),
(49,447,q),
(49,469,l),
(213,500,l),
(224,481,l),
(241,447,o),
(241,395,q),
(241,335,l),
(391,449,l),
(414,467,o),
(414,486,q),
(568,486,l),
(568,456,l),
(530,451,o),
(463,397,q),
(317,282,l),
(507,92,l),
(566,33,o),
(615,14,q),
(615,0,l),
(426,0,l),
(426,13,o),
(386,58,q),
(328,120,o),
(241,218,q),
(241,189,l)
);
}
);
width = 600;
}
);
unicode = 312;
},
{
category = Letter;
glyphname = Ldotaccent;
layers = (
{
layerId = "826dc620-19a3-4a75-b922-e71bdb8ea4ca";
name = Fore;
shapes = (
{
closed = 1;
nodes = (
(108,22,l),
(124,91,o),
(124,220,q),
(124,479,l),
(124,618,o),
(108,678,q),
(108,700,l),
(282,700,l),
(282,678,l),
(275,655,o),
(270.5,584,q),
(266,513,o),
(266,476,q),
(266,209,l),
(266,136,o),
(272,76,q),
(291,74,o),
(351,74,q),
(509,74,o),
(585,106,q),
(604,106,l),
(586,0,l),
(108,0,l)
);
},
{
closed = 1;
nodes = (
(494,328,o),
(499,328,q),
(511,321,l),
(521,311,o),
(525,281,q),
(529,251,o),
(529,234.5,q),
(529,218,o),
(527,206,q),
(517,197,l),
(472,184,o),
(383,176,q),
(371,182,l),
(362,197,o),
(356.5,232,q),
(351,267,o),
(351,280.5,q),
(351,294,o),
(351,298,q),
(361,307,l),
(425,328,o),
(488,328,q)
);
}
);
width = 584;
}
);
unicode = 319;
},
{
category = Letter;
glyphname = ldot;
layers = (
{
layerId = "826dc620-19a3-4a75-b922-e71bdb8ea4ca";
name = Fore;
shapes = (
{
closed = 1;
nodes = (
(223,676,o),
(223,610,q),
(223,544,o),
(224,529,q),
(224,167,l),
(224,74,o),
(240,22,q),
(241,0,l),
(79,0,l),
(79,22,l),
(95,74,o),
(95,167,q),
(95,560,l),
(95,646,o),
(50,689,q),
(50,711,l),
(215,746,l),
(227,724,l)
);
},
{
closed = 1;
nodes = (
(511,350,o),
(517,350,q),
(529,343,l),
(539,334,o),
(543,302.5,q),
(547,271,o),
(547,254,q),
(547,237,o),
(545,225,q),
(535,216,l),
(491,203,o),
(398,195,q),
(386,201,l),
(377,216,o),
(371.5,252,q),
(366,288,o),
(366,302,q),
(366,316,o),
(366,320,q),
(376,329,l),
(440,350,o),
(506,350,q)
);
}
);
width = 619;
}
);
unicode = 320;
},
{
category = Letter;
glyphname = Lslash;
layers = (
{
layerId = "826dc620-19a3-4a75-b922-e71bdb8ea4ca";
name = Fore;
shapes = (
{
closed = 1;
nodes = (
(5,342,l),
(183,399,o),
(385,483,q),
(381,400,l),
(316,379,o),
(181,327,q),
(60,284,o),
(0,257,q)
);
},
{
closed = 1;
nodes = (
(106,22,l),
(122,91,o),
(122,220,q),
(122,479,l),
(122,618,o),
(106,678,q),
(106,700,l),
(280,700,l),
(280,678,l),
(273,655,o),
(268.5,584,q),
(264,513,o),
(264,476,q),
(264,209,l),
(264,136,o),
(270,76,q),
(289,74,o),
(349,74,q),
(507,74,o),
(583,106,q),
(602,106,l),
(584,0,l),
(106,0,l)
);
}
);
width = 582;
}
);
unicode = 321;
},
{
category = Letter;
glyphname = lslash;
layers = (
{
layerId = "826dc620-19a3-4a75-b922-e71bdb8ea4ca";
name = Fore;
shapes = (
{
closed = 1;
nodes = (
(7,371,l),
(82,396,o),
(191.5,438,q),
(301,480,o),
(329,490,q),
(325,414,l),
(237,387,o),
(2,294,q)
);
},
{
closed = 1;
nodes = (
(232,676,o),
(232,610,q),
(232,544,o),
(233,529,q),
(233,167,l),
(233,74,o),
(249,22,q),
(250,0,l),
(88,0,l),
(88,22,l),
(104,74,o),
(104,167,q),
(104,560,l),
(104,646,o),
(59,689,q),
(59,711,l),
(224,746,l),
(236,724,l)
);
}
);
width = 331;
}
);
unicode = 322;
},
{
category = Letter;
glyphname = Nacute;
layers = (
{
layerId = "826dc620-19a3-4a75-b922-e71bdb8ea4ca";
name = Fore;
shapes = (
{
closed = 1;
nodes = (
(69,0,l),
(69,22,l),
(85,82,o),
(85,249,q),
(85,452,l),
(85,601,o),
(72,677,q),
(72,699,l),
(230,710,l),
(582,216,l),
(582,479,l),
(582,530,o),
(575,591.5,q),
(568,653,o),
(559,678,q),
(559,700,l),
(700,700,l),
(700,678,l),
(694,653,o),
(689,580.5,q),
(684,508,o),
(684,451,q),
(684,213,l),
(684,155,o),
(690,86,q),
(696,17,o),
(700,2,q),
(569,-11,l),
(187,524,l),
(187,220,l),
(187,94,o),
(206,22,q),
(206,0,l)
);
},
{
closed = 1;
nodes = (
(409,779,o),
(296,723,q),
(259,762,l),
(359,847,o),
(419,949,q),
(482,927,o),
(518,875,q)
);
}
);
width = 778;
}
);
unicode = 323;
},
{
category = Letter;
glyphname = nacute;
layers = (
{
layerId = "826dc620-19a3-4a75-b922-e71bdb8ea4ca";
name = Fore;
shapes = (
{
closed = 1;
nodes = (
(112,417,o),
(52,447,q),
(52,469,l),
(214,500,l),
(225,481,l),
(233,457,o),
(236,417,q),
(287,458,o),
(324.5,478.5,q),
(362,499,o),
(404,499,q),
(479,499,o),
(520,452.5,q),
(561,406,o),
(561,318,q),
(561,191,l),
(561,92,o),
(591,22,q),
(591,0,l),
(415,0,l),
(415,22,l),
(432,69,o),
(432,157,q),
(432,282,l),
(432,340,o),
(418,367.5,q),
(404,395,o),
(358,395,q),
(312,395,o),
(241,353,q),
(241,189,l),
(241,84,o),
(270,22,q),
(270,0,l),
(95,0,l),
(95,22,l),
(112,73,o),
(112,164,q),
(112,298,l)
);
},
{
closed = 1;
nodes = (
(384,562,o),
(271,506,q),
(234,545,l),
(334,630,o),
(394,732,q),
(457,710,o),
(493,658,q)
);
}
);
width = 646;
}
);
unicode = 324;
},
{
category = Letter;
glyphname = OE;
layers = (
{
layerId = "826dc620-19a3-4a75-b922-e71bdb8ea4ca";
name = Fore;
shapes = (
{
closed = 1;
nodes = (
(969,629,o),
(881,629,q),
(793,629,o),
(781,628,q),
(779,582,o),
(779,402,q),
(1035,406,l),
(1014,324,l),
(992,324,l),
(918,332,o),
(868.5,332,q),
(819,332,o),
(779,330,q),
(779,277,l),
(779,109,o),
(783,76,q),
(803,74,o),
(854,74,q),
(1016,74,o),
(1093,106,q),
(1123,106,l),
(1101,0,l),
(618,0,l),
(618,15,l),
(623,29,o),
(628,64,q),
(527,-11,o),
(401,-11,q),
(239,-11,o),
(144,89,q),
(49,189,o),
(49,345,q),
(49,501,o),
(156,607.5,q),
(263,714,o),
(431,714,q),
(545,714,o),
(628,653,q),
(625,674,o),
(622,686,q),
(622,700,l),
(1089,703,l),
(1057,615,l),
(1033,615,l)
);
},
{
closed = 1;
nodes = (
(625,266,o),
(625,332,q),
(625,398,o),
(614.5,448,q),
(604,498,o),
(579,540,q),
(527,627,o),
(395,627,q),
(362,627,o),
(324.5,619,q),
(287,611,o),
(267,600,q),
(238,566,o),
(219.5,501.5,q),
(201,437,o),
(201,371,q),
(201,73,o),
(444,73,q),
(510,73,o),
(561,104,q),
(558,103,l),
(591,136,o),
(608,201,q)
);
}
);
width = 1151;
}
);
unicode = 338;
},
{
category = Letter;
glyphname = oe;
layers = (
{
layerId = "826dc620-19a3-4a75-b922-e71bdb8ea4ca";
name = Fore;
shapes = (
{
closed = 1;
nodes = (
(720,-19,o),
(670,-19,q),
(620,-19,o),
(573,3.5,q),
(526,26,o),
(493,68,q),
(414,-19,o),
(295.5,-19,q),
(177,-19,o),
(110.5,49,q),
(44,117,o),
(44,228,q),
(44,339,o),
(121,418.5,q),
(198,498,o),
(312,498,q),
(451,498,o),
(516,414,q),
(591,499,o),
(706,499,q),
(804,499,o),
(852,436,q),
(900,373,o),
(900,262,q),
(862,223,l),
(588,223,l),
(589,151,o),
(626.5,112,q),
(664,73,o),
(716.5,73,q),
(769,73,o),
(875,128,q),
(900,90,l),
(881,72,o),
(857,53,q),
(833,34,o),
(776.5,7.5,q)
);
},
{
closed = 1;
nodes = (
(420,325,o),
(392,379.5,q),
(364,434,o),
(294,434,q),
(249,434,o),
(224,412,q),
(208,389,o),
(198,343,q),
(188,297,o),
(188,254,q),
(188,45,o),
(321,45,q),
(361,45,o),
(386,66,q),
(403,89,o),
(411.5,136.5,q),
(420,184,o),
(420,228,q)
);
},
{
closed = 1;
nodes = (
(646,435,o),
(624,420,q),
(608,395,o),
(599,354,q),
(590,313,o),
(589,281,q),
(764,291,l),
(764,435,o),
(683,435,q)
);
}
);
width = 940;
}
);
unicode = 339;
},
{
category = Letter;
glyphname = Racute;
layers = (
{
layerId = "826dc620-19a3-4a75-b922-e71bdb8ea4ca";
name = Fore;
shapes = (
{
closed = 1;
nodes = (
(352,700,l),
(481,700,o),
(551.5,661,q),
(622,622,o),
(622,529.5,q),
(622,437,o),
(565,381,q),
(508,325,o),
(413,316,q),
(527,183,l),
(600,98,o),
(639.5,66,q),
(679,34,o),
(711,24,q),
(711,0,l),
(536,0,l),
(522,21,o),
(467,91,q),
(287,310,l),
(275,310,o),
(270,311,q),
(270,172,l),
(270,74,o),
(286,22,q),
(286,0,l),
(108,0,l),
(108,22,l),
(128,74,o),
(128,162,q),
(128,521,l),
(128,621,o),
(111,678,q),
(111,700,l),
(139,698,o),
(209,698,q)
);
},
{
closed = 1;
nodes = (
(413,635,o),
(348.5,635,q),
(284,635,o),
(272,634,q),
(270,604,o),
(270,374,q),
(293,371,o),
(327,371,q),
(407,371,o),
(440.5,406.5,q),
(474,442,o),
(474,512,q),
(474,582,o),
(443.5,608.5,q)
);
},
{
closed = 1;
nodes = (
(374,779,o),
(261,723,q),
(224,762,l),
(324,847,o),
(384,949,q),
(447,927,o),
(483,875,q)
);
}
);
width = 707;
}
);
unicode = 340;
},
{
category = Letter;
glyphname = Rcommaaccent;
layers = (
{
layerId = "826dc620-19a3-4a75-b922-e71bdb8ea4ca";
name = Fore;
shapes = (
{
closed = 1;
nodes = (
(444,-56,o),
(444,-91,q),
(444,-126,o),
(420,-161,q),
(396,-196,o),
(351,-236,q),
(308,-218,l),
(329,-177,o),
(334.5,-156,q),
(340,-135,o),
(340,-104,q),
(340,-73,o),
(323,-43,q),
(325,-37,o),
(330,-34,q),
(344,-29,o),
(372,-25.5,q),
(400,-22,o),
(410,-22,q),
(420,-22,o),
(424,-23,q),
(434,-30,l)
);
},
{
closed = 1;
nodes = (
(352,700,l),
(481,700,o),
(551.5,661,q),
(622,622,o),
(622,529.5,q),
(622,437,o),
(565,381,q),
(508,325,o),
(413,316,q),
(527,183,l),
(600,98,o),
(639.5,66,q),
(679,34,o),
(711,24,q),
(711,0,l),
(536,0,l),
(522,21,o),
(467,91,q),
(287,310,l),
(275,310,o),
(270,311,q),
(270,172,l),
(270,74,o),
(286,22,q),
(286,0,l),
(108,0,l),
(108,22,l),
(128,74,o),
(128,162,q),
(128,521,l),
(128,621,o),
(111,678,q),
(111,700,l),
(139,698,o),
(209,698,q)
);
},
{
closed = 1;
nodes = (
(413,635,o),
(348.5,635,q),
(284,635,o),
(272,634,q),
(270,604,o),
(270,374,q),
(293,371,o),
(327,371,q),
(407,371,o),
(440.5,406.5,q),
(474,442,o),
(474,512,q),
(474,582,o),
(443.5,608.5,q)
);
}
);
width = 707;
}
);
unicode = 342;
},
{
category = Letter;
glyphname = rcommaaccent;
layers = (
{
layerId = "826dc620-19a3-4a75-b922-e71bdb8ea4ca";
name = Fore;
shapes = (
{
closed = 1;
nodes = (
(239,-56,o),
(239,-91,q),
(239,-126,o),
(215,-161,q),
(191,-196,o),
(146,-236,q),
(103,-218,l),
(124,-177,o),
(129.5,-156,q),
(135,-135,o),
(135,-104,q),
(135,-73,o),
(118,-43,q),
(120,-37,o),
(125,-34,q),
(139,-29,o),
(167,-25.5,q),
(195,-22,o),
(205,-22,q),
(215,-22,o),
(219,-23,q),
(229,-30,l)
);
},
{
closed = 1;
nodes = (
(88,0,l),
(88,22,l),
(105,76,o),
(105,156,q),
(105,305,l),
(105,349,o),
(88.5,390.5,q),
(72,432,o),
(49,445,q),
(49,467,l),
(190,500,l),
(200,486,l),
(206,477,o),
(218,445,q),
(283,499,o),
(354,499,q),
(389,499,o),
(419,485,q),
(419,480,o),
(419,476,q),
(419,413,o),
(394,350,q),
(341,387,o),
(280,387,q),
(261,387,o),
(234,381,q),
(234,184,l),
(234,88,o),
(263,22,q),
(263,0,l)
);
}
);
width = 412;
}
);
unicode = 343;
},
{
category = Letter;
glyphname = Rcaron;
layers = (
{
layerId = "826dc620-19a3-4a75-b922-e71bdb8ea4ca";
name = Fore;
shapes = (
{
closed = 1;
nodes = (
(352,700,l),
(481,700,o),
(551.5,661,q),
(622,622,o),
(622,529.5,q),
(622,437,o),
(565,381,q),
(508,325,o),
(413,316,q),
(527,183,l),
(600,98,o),
(639.5,66,q),
(679,34,o),
(711,24,q),
(711,0,l),
(536,0,l),
(522,21,o),
(467,91,q),
(287,310,l),
(275,310,o),
(270,311,q),
(270,172,l),
(270,74,o),
(286,22,q),
(286,0,l),
(108,0,l),
(108,22,l),
(128,74,o),
(128,162,q),
(128,521,l),
(128,621,o),
(111,678,q),
(111,700,l),
(139,698,o),
(209,698,q)
);
},
{
closed = 1;
nodes = (
(413,635,o),
(348.5,635,q),
(284,635,o),
(272,634,q),
(270,604,o),
(270,374,q),
(293,371,o),
(327,371,q),
(407,371,o),
(440.5,406.5,q),
(474,442,o),
(474,512,q),
(474,582,o),
(443.5,608.5,q)
);
},
{
closed = 1;
nodes = (
(310,733,l),
(257,823,o),
(187,880,q),
(225,919,l),
(259,899,o),
(296,867,q),
(333,835,o),
(351,809,q),
(374,839,o),
(409,870.5,q),
(444,902,o),
(476,919,q),
(520,880,l),
(460,836,o),
(410,743,q)
);
}
);
width = 707;
}
);
unicode = 344;
},
{
category = Letter;
glyphname = rcaron;
layers = (
{
layerId = "826dc620-19a3-4a75-b922-e71bdb8ea4ca";
name = Fore;
shapes = (
{
closed = 1;
nodes = (
(238,88,o),
(267,22,q),
(267,0,l),
(92,0,l),
(92,22,l),
(109,76,o),
(109,156,q),
(109,305,l),
(109,349,o),
(92.5,390.5,q),
(76,432,o),
(53,445,q),
(53,467,l),
(194,500,l),
(204,486,l),
(210,477,o),
(222,445,q),
(287,499,o),
(358,499,q),
(393,499,o),
(423,485,q),
(423,480,o),
(423,476,q),
(423,413,o),
(398,350,q),
(345,387,o),
(284,387,q),
(265,387,o),
(238,381,q),
(238,184,l)
);
},
{
closed = 1;
nodes = (
(165,516,l),
(112,606,o),
(42,663,q),
(80,702,l),
(114,682,o),
(151,650,q),
(188,618,o),
(206,592,q),
(229,622,o),
(264,653.5,q),
(299,685,o),
(331,702,q),
(375,663,l),
(315,619,o),
(265,526,q)
);
}
);
width = 416;
}
);
unicode = 345;
},
{
category = Letter;
glyphname = dotlessj;
layers = (
{
layerId = "826dc620-19a3-4a75-b922-e71bdb8ea4ca";
name = Fore;
shapes = (
{
closed = 1;
nodes = (
(211,114,l),
(211,-43,o),
(154,-122,q),
(132,-151,o),
(119,-164,q),
(105,-178,o),
(27,-250,q),
(-21,-203,l),
(8,-179,o),
(20,-164,q),
(53,-127,o),
(67.5,-60,q),
(82,7,o),
(82,152,q),
(82,302,l),
(82,357,o),
(61.5,396,q),
(41,435,o),
(15,447,q),
(15,469,l),
(205,503,l),
(217,483,l),
(211,456,o),
(211,384,q)
);
}
);
width = 277;
}
);
unicode = 567;
},
{
category = Letter;
glyphname = circumflex;
layers = (
{
layerId = "826dc620-19a3-4a75-b922-e71bdb8ea4ca";
name = Fore;
shapes = (
{
closed = 1;
nodes = (
(287,703,l),
(313,650,o),
(362,605,q),
(379,589,o),
(412,561,q),
(370,516,l),
(297,560,o),
(244,619,q),
(198,572,o),
(130,521,q),
(87,565,l),
(174,641,o),
(207,703,q)
);
}
);
width = 500;
}
);
unicode = 710;
},
{
category = Letter;
glyphname = caron;
layers = (
{
layerId = "826dc620-19a3-4a75-b922-e71bdb8ea4ca";
name = Fore;
shapes = (
{
closed = 1;
nodes = (
(215,516,l),
(162,606,o),
(92,663,q),
(130,702,l),
(164,682,o),
(201,650,q),
(238,618,o),
(256,592,q),
(279,622,o),
(314,653.5,q),
(349,685,o),
(381,702,q),
(425,663,l),
(365,619,o),
(315,526,q)
);
}
);
width = 517;
}
);
unicode = 711;
},
{
category = Letter;
glyphname = ring;
layers = (
{
layerId = "826dc620-19a3-4a75-b922-e71bdb8ea4ca";
name = Fore;
shapes = (
{
closed = 1;
nodes = (
(368,593,o),
(336,561,q),
(304,528,o),
(257.5,528,q),
(211,528,o),
(181.5,558.5,q),
(152,589,o),
(152,634.5,q),
(152,680,o),
(184.5,712,q),
(217,744,o),
(262,744,q),
(309,744,o),
(338.5,713.5,q),
(368,683,o),
(368,638,q)
);
},
{
closed = 1;
nodes = (
(283,594,o),
(294,601,q),
(304,613,o),
(304,633,q),
(304,678,o),
(257,678,q),
(238,678,o),
(227,671,q),
(217,661,o),
(217,643,q),
(217,594,o),
(264,594,q)
);
}
);
width = 524;
}
);
unicode = 730;
},
{
category = Letter;
glyphname = tilde;
layers = (
{
layerId = "826dc620-19a3-4a75-b922-e71bdb8ea4ca";
name = Fore;
shapes = (
{
closed = 1;
nodes = (
(320,556,o),
(260.5,580,q),
(201,604,o),
(184.5,604,q),
(168,604,o),
(159.5,602,q),
(151,600,o),
(145.5,598,q),
(140,596,o),
(130.5,591,q),
(121,586,o),
(118,584,q),
(115,582,o),
(104.5,575.5,q),
(94,569,o),
(93,568,q),
(64,593,l),
(90,624,o),
(127.5,658,q),
(165,692,o),
(188,692,q),
(211,692,o),
(268.5,670.5,q),
(326,649,o),
(341,649,q),
(356,649,o),
(365,650.5,q),
(374,652,o),
(385.5,657,q),
(397,662,o),
(401.5,664,q),
(406,666,o),
(420,674,q),
(434,682,o),
(435,682,q),
(462,657,l),
(379,556,o),
(344,556,q)
);
}
);
width = 527;
}
);
unicode = 732;
},
{
category = Letter;
glyphname = dotaccentcmb;
layers = (
{
layerId = "826dc620-19a3-4a75-b922-e71bdb8ea4ca";
name = Fore;
shapes = (
{
closed = 1;
nodes = (
(330,697,o),
(334,671.5,q),
(338,646,o),
(338,632,q),
(338,618,o),
(336,608,q),
(326,600,l),
(286,587,o),
(209,579,q),
(199,585,l),
(190,600,o),
(185,628.5,q),
(180,657,o),
(180,668.5,q),
(180,680,o),
(180,683,q),
(190,690,l),
(245,711,o),
(299,711,q),
(303,711,o),
(308,711,q),
(320,705,l)
);
}
);
width = 500;
}
);
unicode = 775;
},
{
category = Letter;
glyphname = endash;
layers = (
{
layerId = "826dc620-19a3-4a75-b922-e71bdb8ea4ca";
name = Fore;
shapes = (
{
closed = 1;
nodes = (
(126,318,o),
(239,318,q),
(433,320,l),
(455,320,o),
(501.5,322,q),
(548,324,o),
(572,324,q),
(537,227,l),
(523,227,l),
(449,236,o),
(244,236,q),
(0,230,l),
(35,328,l),
(49,328,l)
);
}
);
width = 572;
}
);
unicode = 8211;
},
{
category = Letter;
glyphname = emdash;
layers = (
{
layerId = "826dc620-19a3-4a75-b922-e71bdb8ea4ca";
name = Fore;
shapes = (
{
closed = 1;
nodes = (
(129,319,o),
(378.5,319,q),
(628,319,o),
(729,319.5,q),
(830,320,o),
(876.5,322,q),
(923,324,o),
(947,324,q),
(911,227,l),
(897,227,l),
(823,236,o),
(245,236,q),
(1,230,l),
(37,328,l),
(51,328,l)
);
}
);
width = 948;
}
);
unicode = 8212;
},
{
category = Letter;
glyphname = quoteleft;
layers = (
{
layerId = "826dc620-19a3-4a75-b922-e71bdb8ea4ca";
name = Fore;
shapes = (
{
closed = 1;
nodes = (
(189,566,o),
(191,554,q),
(204,520,o),
(242,489,q),
(241,473,l),
(223,455,o),
(196,439.5,q),
(169,424,o),
(147,419,q),
(133,426,o),
(128,431,q),
(108,453,o),
(89,495,q),
(81,514,o),
(81,543,q),
(82,614,o),
(165,725,q),
(229,708,l),
(189,635,o),
(189,580,q)
);
}
);
width = 310;
}
);
unicode = 8216;
},
{
category = Letter;
glyphname = quoteright;
layers = (
{
layerId = "826dc620-19a3-4a75-b922-e71bdb8ea4ca";
name = Fore;
shapes = (
{
closed = 1;
nodes = (
(121,578,o),
(119,590,q),
(106,624,o),
(68,655,q),
(69,671,l),
(87,689,o),
(114,704.5,q),
(141,720,o),
(163,725,q),
(177,718,o),
(182,713,q),
(202,691,o),
(221,649,q),
(229,630,o),
(229,601,q),
(228,530,o),
(145,419,q),
(81,436,l),
(121,509,o),
(121,564,q)
);
}
);
width = 310;
}
);
unicode = 8217;
},
{
category = Letter;
glyphname = quotesinglbase;
layers = (
{
layerId = "826dc620-19a3-4a75-b922-e71bdb8ea4ca";
name = Fore;
shapes = (
{
closed = 1;
nodes = (
(245,-78,o),
(135,-193,q),
(65,-161,l),
(99,-110,o),
(112.5,-74.5,q),
(126,-39,o),
(126,5.5,q),
(126,50,o),
(96,82,q),
(96,90,o),
(99,95,q),
(152,113,o),
(206,113,q),
(213,113,o),
(219,112,q),
(228,108,o),
(231,101,q),
(245,73,o),
(245,30,q)
);
}
);
width = 322;
}
);
unicode = 8218;
},
{
category = Letter;
glyphname = quotedblleft;
layers = (
{
layerId = "826dc620-19a3-4a75-b922-e71bdb8ea4ca";
name = Fore;
shapes = (
{
closed = 1;
nodes = (
(400,512,o),
(448,477,q),
(447,461,l),
(426,440,o),
(397,423,q),
(368,406,o),
(348,402,q),
(331,410,l),
(321,418,o),
(306,438,q),
(291,458,o),
(281.5,477,q),
(272,496,o),
(272,526,q),
(273,598,o),
(356,726,q),
(422,712,l),
(422,705,o),
(414,686.5,q),
(406,668,o),
(400.5,651,q),
(395,634,o),
(394,627.5,q),
(393,621,o),
(390,606,q),
(387,591,o),
(387,572.5,q),
(387,554,o),
(390,537,q)
);
},
{
closed = 1;
nodes = (
(82,457,o),
(72.5,476,q),
(63,495,o),
(63,525,q),
(64,598,o),
(147,726,q),
(213,712,l),
(213,711,o),
(207,695.5,q),
(201,680,o),
(200,676,q),
(199,672,o),
(194,657.5,q),
(189,643,o),
(188,637,q),
(187,631,o),
(183.5,618,q),
(180,605,o),
(179.5,596.5,q),
(179,588,o),
(178,577,q),
(176,559,o),
(181,536,q),
(191,511,o),
(239,476,q),
(238,460,l),
(217,439,o),
(188,422,q),
(159,405,o),
(139,401,q),
(122,409,l),
(112,417,o),
(97,437,q)
);
}
);
width = 528;
}
);
unicode = 8220;
},
{
category = Letter;
glyphname = quotedblright;
layers = (
{
layerId = "826dc620-19a3-4a75-b922-e71bdb8ea4ca";
name = Fore;
shapes = (
{
closed = 1;
nodes = (
(113,615,o),
(65,650,q),
(66,666,l),
(87,687,o),
(116,704,q),
(145,721,o),
(165,725,q),
(182,717,l),
(192,709,o),
(207,689,q),
(222,669,o),
(231.5,650,q),
(241,631,o),
(241,601,q),
(240,529,o),
(157,401,q),
(91,415,l),
(91,422,o),
(99,440.5,q),
(107,459,o),
(112.5,476,q),
(118,493,o),
(119,499.5,q),
(120,506,o),
(123,521,q),
(126,536,o),
(126,555,q),
(126,574,o),
(123,590,q)
);
},
{
closed = 1;
nodes = (
(431,670,o),
(440.5,651,q),
(450,632,o),
(450,602,q),
(449,529,o),
(366,401,q),
(300,415,l),
(300,416,o),
(306,431.5,q),
(312,447,o),
(313,451,q),
(314,455,o),
(319,469.5,q),
(324,484,o),
(325,490,q),
(326,496,o),
(329.5,509,q),
(333,522,o),
(333.5,530.5,q),
(334,539,o),
(335,550,q),
(337,568,o),
(332,591,q),
(322,616,o),
(274,651,q),
(275,667,l),
(296,688,o),
(325,705,q),
(354,722,o),
(374,726,q),
(391,718,l),
(401,710,o),
(416,690,q)
);
}
);
width = 528;
}
);
unicode = 8221;
},
{
category = Letter;
glyphname = quotedblbase;
layers = (
{
layerId = "826dc620-19a3-4a75-b922-e71bdb8ea4ca";
name = Fore;
shapes = (
{
closed = 1;
nodes = (
(245,-78,o),
(135,-193,q),
(65,-161,l),
(99,-110,o),
(112.5,-74.5,q),
(126,-39,o),
(126,5.5,q),
(126,50,o),
(96,82,q),
(96,90,o),
(99,95,q),
(152,113,o),
(206,113,q),
(213,113,o),
(219,112,q),
(228,108,o),
(231,101,q),
(245,73,o),
(245,30,q)
);
},
{
closed = 1;
nodes = (
(437,-78,o),
(327,-193,q),
(257,-161,l),
(291,-110,o),
(304.5,-74.5,q),
(318,-39,o),
(318,5.5,q),
(318,50,o),
(288,82,q),
(288,90,o),
(291,95,q),
(344,113,o),
(398,113,q),
(405,113,o),
(411,112,q),
(420,108,o),
(423,101,q),
(437,73,o),
(437,30,q)
);
}
);
width = 514;
}
);
unicode = 8222;
},
{
category = Letter;
glyphname = bullet;
layers = (
{
layerId = "826dc620-19a3-4a75-b922-e71bdb8ea4ca";
name = Fore;
shapes = (
{
closed = 1;
nodes = (
(424,256,o),
(419,235,q),
(400,218,l),
(365,196,o),
(311.5,187,q),
(258,178,o),
(235.5,178,q),
(213,178,o),
(201,180,q),
(179,192,l),
(158,219,o),
(150,270.5,q),
(142,322,o),
(142,350.5,q),
(142,379,o),
(146,401,q),
(165,419,l),
(200,438,o),
(251.5,448.5,q),
(303,459,o),
(328.5,459,q),
(354,459,o),
(369,457,q),
(388,447,l),
(409,416,o),
(416.5,364,q),
(424,312,o),
(424,284,q)
);
}
);
width = 567;
}
);
unicode = 8226;
},
{
category = Letter;
glyphname = guilsinglleft;
layers = (
{
layerId = "826dc620-19a3-4a75-b922-e71bdb8ea4ca";
name = Fore;
shapes = (
{
closed = 1;
nodes = (
(57,271,l),
(105,298,o),
(121,312,q),
(283,452,l),
(341,399,l),
(313,368,l),
(205,256,l),
(342,114,l),
(281,56,l),
(240,99,o),
(227,109,q),
(64,248,l)
);
}
);
width = 398;
}
);
unicode = 8249;
},
{
category = Letter;
glyphname = guilsinglright;
layers = (
{
layerId = "826dc620-19a3-4a75-b922-e71bdb8ea4ca";
name = Fore;
shapes = (
{
closed = 1;
nodes = (
(334,245,l),
(171,106,l),
(158,96,o),
(117,53,q),
(56,111,l),
(193,253,l),
(85,365,l),
(57,396,l),
(115,449,l),
(277,309,l),
(293,295,o),
(341,268,q)
);
}
);
width = 398;
}
);
unicode = 8250;
},
{
category = Letter;
glyphname = Euro;
layers = (
{
layerId = "826dc620-19a3-4a75-b922-e71bdb8ea4ca";
name = Fore;
shapes = (
{
closed = 1;
nodes = (
(584,712,o),
(668,675,q),
(658,622,o),
(621,568,q),
(523,627,o),
(424,627,q),
(392,627,o),
(358,622,q),
(272,564,o),
(248,457,q),
(437,457,l),
(492,457,o),
(586,464,q),
(553,382,l),
(239,382,l),
(239,375,l),
(239,358,o),
(241,328,q),
(433,328,l),
(488,328,o),
(582,335,q),
(549,253,l),
(255,253,l),
(280,170,o),
(338.5,124,q),
(397,78,o),
(476,78,q),
(511,78,o),
(562,97,q),
(613,116,o),
(647,136,q),
(687,78,l),
(661,62,l),
(544,-12,o),
(426,-12,q),
(308,-12,o),
(214,55,q),
(120,122,o),
(95,254,q),
(5,254,l),
(39,328,l),
(88,328,l),
(88,340,l),
(88,355,o),
(90,383,q),
(14,383,l),
(49,457,l),
(105,457,l),
(142,575,o),
(248.5,643.5,q),
(355,712,o),
(498,712,q)
);
}
);
width = 715;
}
);
unicode = 8364;
},
{
category = Letter;
glyphname = commaaccent;
layers = (
{
layerId = "826dc620-19a3-4a75-b922-e71bdb8ea4ca";
name = Fore;
shapes = (
{
closed = 1;
nodes = (
(221,-56,o),
(221,-91,q),
(221,-126,o),
(197,-161,q),
(173,-196,o),
(128,-236,q),
(85,-218,l),
(106,-177,o),
(111.5,-156,q),
(117,-135,o),
(117,-104,q),
(117,-73,o),
(100,-43,q),
(102,-37,o),
(107,-34,q),
(121,-29,o),
(149,-25.5,q),
(177,-22,o),
(187,-22,q),
(197,-22,o),
(201,-23,q),
(211,-30,l)
);
}
);
width = 251;
}
);
},
{
category = Letter;
glyphname = grave.cap;
layers = (
{
layerId = "826dc620-19a3-4a75-b922-e71bdb8ea4ca";
name = Fore;
shapes = (
{
closed = 1;
nodes = (
(382,751,l),
(249,762,o),
(116,811,q),
(130,884,o),
(174,918,q),
(220,883,o),
(284,848.5,q),
(348,814,o),
(399,798,q)
);
}
);
width = 544;
}
);
},
{
category = Letter;
glyphname = acute.cap;
layers = (
{
layerId = "826dc620-19a3-4a75-b922-e71bdb8ea4ca";
name = Fore;
shapes = (
{
closed = 1;
nodes = (
(132,798,l),
(183,814,o),
(247,848.5,q),
(311,883,o),
(357,918,q),
(401,884,o),
(415,811,q),
(282,762,o),
(149,751,q)
);
}
);
width = 544;
}
);
},
{
category = Letter;
glyphname = circumflex.cap;
layers = (
{
layerId = "826dc620-19a3-4a75-b922-e71bdb8ea4ca";
name = Fore;
shapes = (
{
closed = 1;
nodes = (
(289,903,l),
(315,850,o),
(364,805,q),
(381,789,o),
(414,761,q),
(372,716,l),
(299,760,o),
(246,819,q),
(200,772,o),
(132,721,q),
(89,765,l),
(176,841,o),
(209,903,q)
);
}
);
width = 500;
}
);
},
{
category = Letter;
glyphname = dieresis.cap;
layers = (
{
layerId = "826dc620-19a3-4a75-b922-e71bdb8ea4ca";
name = Fore;
shapes = (
{
closed = 1;
nodes = (
(234,863,o),
(237.5,836.5,q),
(241,810,o),
(241,795.5,q),
(241,781,o),
(240,772,q),
(228,761,l),
(183,749,o),
(135,746,q),
(119,746,l),
(104,751,l),
(82,790,o),
(82,851,q),
(97,862,l),
(146,875,o),
(193,877,q),
(215,877,l),
(227,871,l)
);
},
{
closed = 1;
nodes = (
(446,873,o),
(449.5,846.5,q),
(453,820,o),
(453,805.5,q),
(453,791,o),
(452,782,q),
(440,771,l),
(395,759,o),
(347,756,q),
(331,756,l),
(316,761,l),
(294,800,o),
(294,861,q),
(309,872,l),
(358,885,o),
(405,887,q),
(427,887,l),
(439,881,l)
);
}
);
width = 535;
}
);
},
{
category = Letter;
glyphname = caron.cap;
layers = (
{
layerId = "826dc620-19a3-4a75-b922-e71bdb8ea4ca";
name = Fore;
shapes = (
{
closed = 1;
nodes = (
(215,730,l),
(162,816,o),
(92,868,q),
(130,907,l),
(164,887,o),
(201,855,q),
(238,823,o),
(256,797,q),
(279,827,o),
(314,858.5,q),
(349,890,o),
(381,907,q),
(425,868,l),
(365,827,o),
(315,740,q)
);
}
);
width = 517;
}
);
},
{
category = Letter;
glyphname = ring.cap;
layers = (
{
layerId = "826dc620-19a3-4a75-b922-e71bdb8ea4ca";
name = Fore;
shapes = (
{
closed = 1;
nodes = (
(371,762,o),
(338,730,q),
(305,696,o),
(257.5,696,q),
(210,696,o),
(179.5,727,q),
(149,758,o),
(149,805,q),
(149,852,o),
(182,885,q),
(215,918,o),
(262,918,q),
(310,918,o),
(340.5,887,q),
(371,856,o),
(371,809,q)
);
},
{
closed = 1;
nodes = (
(284,764,o),
(295,771,q),
(305,783,o),
(305,804,q),
(305,850,o),
(257,850,q),
(237,850,o),
(226,843,q),
(216,833,o),
(216,814,q),
(216,764,o),
(264,764,q)
);
}
);
width = 523;
}
);
},
{
category = Letter;
glyphname = tilde.cap;
layers = (
{
layerId = "826dc620-19a3-4a75-b922-e71bdb8ea4ca";
name = Fore;
shapes = (
{
closed = 1;
nodes = (
(379,781,o),
(347,781,q),
(315,781,o),
(260.5,805,q),
(206,829,o),
(176,829,q),
(148,829,o),
(118,809,q),
(115,807,o),
(104.5,800.5,q),
(94,794,o),
(93,793,q),
(64,818,l),
(90,849,o),
(127.5,883,q),
(165,917,o),
(188,917,q),
(211,917,o),
(268.5,895.5,q),
(326,874,o),
(341,874,q),
(356,874,o),
(365,875.5,q),
(374,877,o),
(385.5,882,q),
(397,887,o),
(401.5,889,q),
(406,891,o),
(420,899,q),
(434,907,o),
(435,907,q),
(462,882,l)
);
}
);
width = 527;
}
);
},
{
category = Letter;
glyphname = dotaccentcmb.cap;
layers = (
{
layerId = "826dc620-19a3-4a75-b922-e71bdb8ea4ca";
name = Fore;
shapes = (
{
closed = 1;
nodes = (
(334,904,o),
(338,878.5,q),
(342,853,o),
(342,839,q),
(342,825,o),
(340,815,q),
(330,807,l),
(290,794,o),
(213,786,q),
(203,792,l),
(194,807,o),
(189,835.5,q),
(184,864,o),
(184,875.5,q),
(184,887,o),
(184,890,q),
(194,897,l),
(249,918,o),
(303,918,q),
(307,918,o),
(312,918,q),
(324,912,l)
);
}
